%TF.GenerationSoftware,KiCad,Pcbnew,8.0.7*%
%TF.CreationDate,2024-12-24T17:50:32+01:00*%
%TF.ProjectId,AudioInterface,41756469-6f49-46e7-9465-72666163652e,1.1*%
%TF.SameCoordinates,Original*%
%TF.FileFunction,Legend,Top*%
%TF.FilePolarity,Positive*%
%FSLAX46Y46*%
G04 Gerber Fmt 4.6, Leading zero omitted, Abs format (unit mm)*
G04 Created by KiCad (PCBNEW 8.0.7) date 2024-12-24 17:50:32*
%MOMM*%
%LPD*%
G01*
G04 APERTURE LIST*
G04 Aperture macros list*
%AMRoundRect*
0 Rectangle with rounded corners*
0 $1 Rounding radius*
0 $2 $3 $4 $5 $6 $7 $8 $9 X,Y pos of 4 corners*
0 Add a 4 corners polygon primitive as box body*
4,1,4,$2,$3,$4,$5,$6,$7,$8,$9,$2,$3,0*
0 Add four circle primitives for the rounded corners*
1,1,$1+$1,$2,$3*
1,1,$1+$1,$4,$5*
1,1,$1+$1,$6,$7*
1,1,$1+$1,$8,$9*
0 Add four rect primitives between the rounded corners*
20,1,$1+$1,$2,$3,$4,$5,0*
20,1,$1+$1,$4,$5,$6,$7,0*
20,1,$1+$1,$6,$7,$8,$9,0*
20,1,$1+$1,$8,$9,$2,$3,0*%
%AMFreePoly0*
4,1,16,0.535355,0.785355,0.550000,0.750000,0.550000,-0.750000,0.535355,-0.785355,0.500000,-0.800000,-0.650000,-0.800000,-0.685355,-0.785355,-0.700000,-0.750000,-0.691603,-0.722265,-0.210093,0.000000,-0.691603,0.722265,-0.699029,0.759806,-0.677735,0.791603,-0.650000,0.800000,0.500000,0.800000,0.535355,0.785355,0.535355,0.785355,$1*%
%AMFreePoly1*
4,1,16,0.535355,0.785355,0.541603,0.777735,1.041603,0.027735,1.049029,-0.009806,1.041603,-0.027735,0.541603,-0.777735,0.509806,-0.799029,0.500000,-0.800000,-0.500000,-0.800000,-0.535355,-0.785355,-0.550000,-0.750000,-0.550000,0.750000,-0.535355,0.785355,-0.500000,0.800000,0.500000,0.800000,0.535355,0.785355,0.535355,0.785355,$1*%
G04 Aperture macros list end*
%ADD10C,0.150000*%
%ADD11C,0.300000*%
%ADD12C,0.254000*%
%ADD13C,0.200000*%
%ADD14C,0.000000*%
%ADD15C,0.100000*%
%ADD16C,0.250000*%
%ADD17C,0.120000*%
%ADD18C,0.400000*%
%ADD19C,0.127000*%
%ADD20RoundRect,0.050000X-0.737500X0.225000X-0.737500X-0.225000X0.737500X-0.225000X0.737500X0.225000X0*%
%ADD21C,0.600000*%
%ADD22RoundRect,0.050000X1.170000X3.230000X-1.170000X3.230000X-1.170000X-3.230000X1.170000X-3.230000X0*%
%ADD23RoundRect,0.050000X0.285000X0.700000X-0.285000X0.700000X-0.285000X-0.700000X0.285000X-0.700000X0*%
%ADD24RoundRect,0.050000X0.325000X0.950000X-0.325000X0.950000X-0.325000X-0.950000X0.325000X-0.950000X0*%
%ADD25RoundRect,0.050000X1.000000X1.225000X-1.000000X1.225000X-1.000000X-1.225000X1.000000X-1.225000X0*%
%ADD26C,0.900000*%
%ADD27C,6.500000*%
%ADD28C,1.950000*%
%ADD29RoundRect,0.050000X-0.850000X0.850000X-0.850000X-0.850000X0.850000X-0.850000X0.850000X0.850000X0*%
%ADD30O,1.800000X1.800000*%
%ADD31C,1.801800*%
%ADD32C,3.100000*%
%ADD33C,4.087800*%
%ADD34RoundRect,0.160000X0.210000X-0.160000X0.210000X0.160000X-0.210000X0.160000X-0.210000X-0.160000X0*%
%ADD35RoundRect,0.160000X-0.210000X0.160000X-0.210000X-0.160000X0.210000X-0.160000X0.210000X0.160000X0*%
%ADD36FreePoly0,90.000000*%
%ADD37FreePoly1,90.000000*%
%ADD38RoundRect,0.050000X0.850000X0.850000X-0.850000X0.850000X-0.850000X-0.850000X0.850000X-0.850000X0*%
%ADD39RoundRect,0.050000X0.850000X-0.850000X0.850000X0.850000X-0.850000X0.850000X-0.850000X-0.850000X0*%
%ADD40RoundRect,0.172500X-0.172500X-0.197500X0.172500X-0.197500X0.172500X0.197500X-0.172500X0.197500X0*%
%ADD41RoundRect,0.165000X-0.195000X0.165000X-0.195000X-0.165000X0.195000X-0.165000X0.195000X0.165000X0*%
%ADD42RoundRect,0.165000X0.165000X0.195000X-0.165000X0.195000X-0.165000X-0.195000X0.165000X-0.195000X0*%
%ADD43RoundRect,0.102000X-1.000000X0.350000X-1.000000X-0.350000X1.000000X-0.350000X1.000000X0.350000X0*%
%ADD44RoundRect,0.265625X-1.534375X-0.584375X1.534375X-0.584375X1.534375X0.584375X-1.534375X0.584375X0*%
%ADD45RoundRect,0.160000X0.160000X0.210000X-0.160000X0.210000X-0.160000X-0.210000X0.160000X-0.210000X0*%
%ADD46RoundRect,0.160000X-0.160000X-0.210000X0.160000X-0.210000X0.160000X0.210000X-0.160000X0.210000X0*%
%ADD47RoundRect,0.175000X-0.175000X0.612500X-0.175000X-0.612500X0.175000X-0.612500X0.175000X0.612500X0*%
%ADD48O,3.100000X1.900000*%
%ADD49RoundRect,0.172500X-0.197500X0.172500X-0.197500X-0.172500X0.197500X-0.172500X0.197500X0.172500X0*%
%ADD50RoundRect,0.225000X0.300000X-0.225000X0.300000X0.225000X-0.300000X0.225000X-0.300000X-0.225000X0*%
%ADD51RoundRect,0.250000X0.400000X-0.250000X0.400000X0.250000X-0.400000X0.250000X-0.400000X-0.250000X0*%
%ADD52RoundRect,0.165000X-0.165000X-0.195000X0.165000X-0.195000X0.165000X0.195000X-0.165000X0.195000X0*%
%ADD53RoundRect,0.050000X0.625000X-0.325000X0.625000X0.325000X-0.625000X0.325000X-0.625000X-0.325000X0*%
%ADD54RoundRect,0.050000X0.400000X-0.325000X0.400000X0.325000X-0.400000X0.325000X-0.400000X-0.325000X0*%
%ADD55RoundRect,0.050000X1.950000X-2.230000X1.950000X2.230000X-1.950000X2.230000X-1.950000X-2.230000X0*%
%ADD56FreePoly0,0.000000*%
%ADD57FreePoly1,0.000000*%
%ADD58RoundRect,0.050000X0.300000X0.700000X-0.300000X0.700000X-0.300000X-0.700000X0.300000X-0.700000X0*%
%ADD59RoundRect,0.250000X-0.250000X-0.400000X0.250000X-0.400000X0.250000X0.400000X-0.250000X0.400000X0*%
%ADD60RoundRect,0.273809X0.301191X0.726191X-0.301191X0.726191X-0.301191X-0.726191X0.301191X-0.726191X0*%
%ADD61RoundRect,0.273809X-0.301191X-0.726191X0.301191X-0.726191X0.301191X0.726191X-0.301191X0.726191X0*%
%ADD62FreePoly0,270.000000*%
%ADD63FreePoly1,270.000000*%
%ADD64FreePoly0,180.000000*%
%ADD65FreePoly1,180.000000*%
%ADD66RoundRect,0.050000X0.700000X-1.250000X0.700000X1.250000X-0.700000X1.250000X-0.700000X-1.250000X0*%
%ADD67C,1.400000*%
%ADD68RoundRect,0.050000X-0.330000X0.140000X-0.330000X-0.140000X0.330000X-0.140000X0.330000X0.140000X0*%
%ADD69RoundRect,0.050000X-0.750000X1.250000X-0.750000X-1.250000X0.750000X-1.250000X0.750000X1.250000X0*%
%ADD70C,0.850000*%
%ADD71O,2.100000X1.200000*%
%ADD72O,1.900000X1.200000*%
%ADD73RoundRect,0.050000X-0.750000X0.150000X-0.750000X-0.150000X0.750000X-0.150000X0.750000X0.150000X0*%
G04 APERTURE END LIST*
D10*
X50977819Y8528494D02*
X51692104Y8528494D01*
X51692104Y8528494D02*
X51834961Y8480875D01*
X51834961Y8480875D02*
X51930200Y8385637D01*
X51930200Y8385637D02*
X51977819Y8242780D01*
X51977819Y8242780D02*
X51977819Y8147542D01*
X51977819Y9480875D02*
X51977819Y9004685D01*
X51977819Y9004685D02*
X50977819Y9004685D01*
X51882580Y10385637D02*
X51930200Y10338018D01*
X51930200Y10338018D02*
X51977819Y10195161D01*
X51977819Y10195161D02*
X51977819Y10099923D01*
X51977819Y10099923D02*
X51930200Y9957066D01*
X51930200Y9957066D02*
X51834961Y9861828D01*
X51834961Y9861828D02*
X51739723Y9814209D01*
X51739723Y9814209D02*
X51549247Y9766590D01*
X51549247Y9766590D02*
X51406390Y9766590D01*
X51406390Y9766590D02*
X51215914Y9814209D01*
X51215914Y9814209D02*
X51120676Y9861828D01*
X51120676Y9861828D02*
X51025438Y9957066D01*
X51025438Y9957066D02*
X50977819Y10099923D01*
X50977819Y10099923D02*
X50977819Y10195161D01*
X50977819Y10195161D02*
X51025438Y10338018D01*
X51025438Y10338018D02*
X51073057Y10385637D01*
X50977819Y11099923D02*
X51692104Y11099923D01*
X51692104Y11099923D02*
X51834961Y11052304D01*
X51834961Y11052304D02*
X51930200Y10957066D01*
X51930200Y10957066D02*
X51977819Y10814209D01*
X51977819Y10814209D02*
X51977819Y10718971D01*
X51977819Y12052304D02*
X51977819Y11576114D01*
X51977819Y11576114D02*
X50977819Y11576114D01*
X51882580Y12957066D02*
X51930200Y12909447D01*
X51930200Y12909447D02*
X51977819Y12766590D01*
X51977819Y12766590D02*
X51977819Y12671352D01*
X51977819Y12671352D02*
X51930200Y12528495D01*
X51930200Y12528495D02*
X51834961Y12433257D01*
X51834961Y12433257D02*
X51739723Y12385638D01*
X51739723Y12385638D02*
X51549247Y12338019D01*
X51549247Y12338019D02*
X51406390Y12338019D01*
X51406390Y12338019D02*
X51215914Y12385638D01*
X51215914Y12385638D02*
X51120676Y12433257D01*
X51120676Y12433257D02*
X51025438Y12528495D01*
X51025438Y12528495D02*
X50977819Y12671352D01*
X50977819Y12671352D02*
X50977819Y12766590D01*
X50977819Y12766590D02*
X51025438Y12909447D01*
X51025438Y12909447D02*
X51073057Y12957066D01*
X50977819Y13671352D02*
X51692104Y13671352D01*
X51692104Y13671352D02*
X51834961Y13623733D01*
X51834961Y13623733D02*
X51930200Y13528495D01*
X51930200Y13528495D02*
X51977819Y13385638D01*
X51977819Y13385638D02*
X51977819Y13290400D01*
X51977819Y14623733D02*
X51977819Y14147543D01*
X51977819Y14147543D02*
X50977819Y14147543D01*
X51882580Y15528495D02*
X51930200Y15480876D01*
X51930200Y15480876D02*
X51977819Y15338019D01*
X51977819Y15338019D02*
X51977819Y15242781D01*
X51977819Y15242781D02*
X51930200Y15099924D01*
X51930200Y15099924D02*
X51834961Y15004686D01*
X51834961Y15004686D02*
X51739723Y14957067D01*
X51739723Y14957067D02*
X51549247Y14909448D01*
X51549247Y14909448D02*
X51406390Y14909448D01*
X51406390Y14909448D02*
X51215914Y14957067D01*
X51215914Y14957067D02*
X51120676Y15004686D01*
X51120676Y15004686D02*
X51025438Y15099924D01*
X51025438Y15099924D02*
X50977819Y15242781D01*
X50977819Y15242781D02*
X50977819Y15338019D01*
X50977819Y15338019D02*
X51025438Y15480876D01*
X51025438Y15480876D02*
X51073057Y15528495D01*
X50977819Y16242781D02*
X51692104Y16242781D01*
X51692104Y16242781D02*
X51834961Y16195162D01*
X51834961Y16195162D02*
X51930200Y16099924D01*
X51930200Y16099924D02*
X51977819Y15957067D01*
X51977819Y15957067D02*
X51977819Y15861829D01*
X51977819Y17195162D02*
X51977819Y16718972D01*
X51977819Y16718972D02*
X50977819Y16718972D01*
X51882580Y18099924D02*
X51930200Y18052305D01*
X51930200Y18052305D02*
X51977819Y17909448D01*
X51977819Y17909448D02*
X51977819Y17814210D01*
X51977819Y17814210D02*
X51930200Y17671353D01*
X51930200Y17671353D02*
X51834961Y17576115D01*
X51834961Y17576115D02*
X51739723Y17528496D01*
X51739723Y17528496D02*
X51549247Y17480877D01*
X51549247Y17480877D02*
X51406390Y17480877D01*
X51406390Y17480877D02*
X51215914Y17528496D01*
X51215914Y17528496D02*
X51120676Y17576115D01*
X51120676Y17576115D02*
X51025438Y17671353D01*
X51025438Y17671353D02*
X50977819Y17814210D01*
X50977819Y17814210D02*
X50977819Y17909448D01*
X50977819Y17909448D02*
X51025438Y18052305D01*
X51025438Y18052305D02*
X51073057Y18099924D01*
G36*
X-209458Y4862923D02*
G01*
X-137516Y4790981D01*
X-97174Y4629614D01*
X-97174Y4314749D01*
X-137516Y4153383D01*
X-209459Y4081439D01*
X-277974Y4047181D01*
X-433040Y4047181D01*
X-501556Y4081439D01*
X-573499Y4153383D01*
X-613840Y4314749D01*
X-613840Y4629614D01*
X-573499Y4790981D01*
X-501556Y4862923D01*
X-433040Y4897181D01*
X-277974Y4897181D01*
X-209458Y4862923D01*
G37*
G36*
X3638687Y3786070D02*
G01*
X-874951Y3786070D01*
X-874951Y4638848D01*
X-763840Y4638848D01*
X-763840Y4305515D01*
X-763589Y4302962D01*
X-763751Y4301869D01*
X-762942Y4296396D01*
X-762399Y4290883D01*
X-761977Y4289862D01*
X-761601Y4287325D01*
X-713982Y4096849D01*
X-709035Y4083003D01*
X-705716Y4078524D01*
X-703582Y4073372D01*
X-694254Y4062006D01*
X-599016Y3966767D01*
X-593266Y3962047D01*
X-591967Y3960550D01*
X-589713Y3959131D01*
X-587651Y3957439D01*
X-585819Y3956681D01*
X-579524Y3952718D01*
X-484286Y3905099D01*
X-470555Y3899844D01*
X-467866Y3899653D01*
X-465377Y3898622D01*
X-450745Y3897181D01*
X-260269Y3897181D01*
X-245637Y3898622D01*
X-243148Y3899654D01*
X-240460Y3899844D01*
X-226728Y3905099D01*
X-131490Y3952718D01*
X-125191Y3956683D01*
X-123363Y3957440D01*
X-121307Y3959129D01*
X-119047Y3960550D01*
X-117748Y3962049D01*
X-111998Y3966767D01*
X-16759Y4062007D01*
X-7432Y4073372D01*
X-5299Y4078524D01*
X-1979Y4083003D01*
X2968Y4096849D01*
X50587Y4287325D01*
X50962Y4289862D01*
X51385Y4290883D01*
X51927Y4296396D01*
X52737Y4301869D01*
X52574Y4302962D01*
X52826Y4305515D01*
X52826Y4638848D01*
X52574Y4641402D01*
X52737Y4642494D01*
X51927Y4647968D01*
X51385Y4653480D01*
X50962Y4654502D01*
X50587Y4657038D01*
X2968Y4847514D01*
X-1979Y4861360D01*
X-5298Y4865839D01*
X-7432Y4870992D01*
X-16760Y4882357D01*
X-106584Y4972181D01*
X331398Y4972181D01*
X331398Y4162658D01*
X332839Y4148026D01*
X333870Y4145537D01*
X334061Y4142849D01*
X339316Y4129117D01*
X386935Y4033879D01*
X390898Y4027583D01*
X391656Y4025753D01*
X393345Y4023695D01*
X394767Y4021436D01*
X396265Y4020137D01*
X400983Y4014388D01*
X448602Y3966768D01*
X454351Y3962050D01*
X455652Y3960550D01*
X457911Y3959128D01*
X459968Y3957440D01*
X461795Y3956683D01*
X468095Y3952718D01*
X563333Y3905099D01*
X577064Y3899844D01*
X579753Y3899653D01*
X582242Y3898622D01*
X596874Y3897181D01*
X787350Y3897181D01*
X801982Y3898622D01*
X804471Y3899654D01*
X807159Y3899844D01*
X820891Y3905099D01*
X916129Y3952718D01*
X922428Y3956683D01*
X924256Y3957440D01*
X926312Y3959128D01*
X928572Y3960550D01*
X929872Y3962050D01*
X935622Y3966768D01*
X983240Y4014387D01*
X987958Y4020137D01*
X989457Y4021436D01*
X990878Y4023695D01*
X992568Y4025753D01*
X993325Y4027583D01*
X997289Y4033879D01*
X1044908Y4129117D01*
X1050163Y4142848D01*
X1050354Y4145538D01*
X1051385Y4148026D01*
X1052826Y4162658D01*
X1052826Y4972181D01*
X1051385Y4986813D01*
X1237601Y4986813D01*
X1237601Y4957549D01*
X1248800Y4930513D01*
X1269492Y4909821D01*
X1296528Y4898622D01*
X1311160Y4897181D01*
X1521874Y4897181D01*
X1521874Y3972181D01*
X1523315Y3957549D01*
X1534514Y3930513D01*
X1555206Y3909821D01*
X1582242Y3898622D01*
X1611506Y3898622D01*
X1638542Y3909821D01*
X1659234Y3930513D01*
X1670433Y3957549D01*
X1671874Y3972181D01*
X1671874Y4897181D01*
X1882588Y4897181D01*
X1897220Y4898622D01*
X1924256Y4909821D01*
X1944948Y4930513D01*
X1956147Y4957549D01*
X1956147Y4972181D01*
X2902827Y4972181D01*
X2902827Y3972181D01*
X2904268Y3957549D01*
X2915467Y3930513D01*
X2936159Y3909821D01*
X2963195Y3898622D01*
X2977827Y3897181D01*
X3454017Y3897181D01*
X3468649Y3898622D01*
X3495685Y3909821D01*
X3516377Y3930513D01*
X3527576Y3957549D01*
X3527576Y3986813D01*
X3516377Y4013849D01*
X3495685Y4034541D01*
X3468649Y4045740D01*
X3454017Y4047181D01*
X3052827Y4047181D01*
X3052827Y4972181D01*
X3051386Y4986813D01*
X3040187Y5013849D01*
X3019495Y5034541D01*
X2992459Y5045740D01*
X2963195Y5045740D01*
X2936159Y5034541D01*
X2915467Y5013849D01*
X2904268Y4986813D01*
X2902827Y4972181D01*
X1956147Y4972181D01*
X1956147Y4986813D01*
X1944948Y5013849D01*
X1924256Y5034541D01*
X1897220Y5045740D01*
X1882588Y5047181D01*
X1311160Y5047181D01*
X1296528Y5045740D01*
X1269492Y5034541D01*
X1248800Y5013849D01*
X1237601Y4986813D01*
X1051385Y4986813D01*
X1040186Y5013849D01*
X1019494Y5034541D01*
X992458Y5045740D01*
X963194Y5045740D01*
X936158Y5034541D01*
X915466Y5013849D01*
X904267Y4986813D01*
X902826Y4972181D01*
X902826Y4180363D01*
X868567Y4111847D01*
X838160Y4081439D01*
X769645Y4047181D01*
X614579Y4047181D01*
X546063Y4081439D01*
X515656Y4111847D01*
X481398Y4180363D01*
X481398Y4972181D01*
X479957Y4986813D01*
X468758Y5013849D01*
X448066Y5034541D01*
X421030Y5045740D01*
X391766Y5045740D01*
X364730Y5034541D01*
X344038Y5013849D01*
X332839Y4986813D01*
X331398Y4972181D01*
X-106584Y4972181D01*
X-111998Y4977595D01*
X-117748Y4982314D01*
X-119047Y4983812D01*
X-121307Y4985234D01*
X-123363Y4986922D01*
X-125191Y4987680D01*
X-131490Y4991644D01*
X-226728Y5039263D01*
X-240460Y5044518D01*
X-243148Y5044709D01*
X-245637Y5045740D01*
X-260269Y5047181D01*
X-450745Y5047181D01*
X-465377Y5045740D01*
X-467866Y5044710D01*
X-470555Y5044518D01*
X-484286Y5039263D01*
X-579524Y4991644D01*
X-585819Y4987682D01*
X-587651Y4986923D01*
X-589713Y4985232D01*
X-591967Y4983812D01*
X-593266Y4982316D01*
X-599016Y4977595D01*
X-694254Y4882357D01*
X-703581Y4870992D01*
X-705715Y4865842D01*
X-709035Y4861360D01*
X-713982Y4847514D01*
X-761601Y4657038D01*
X-761977Y4654502D01*
X-762399Y4653480D01*
X-762942Y4647968D01*
X-763751Y4642494D01*
X-763589Y4641402D01*
X-763840Y4638848D01*
X-874951Y4638848D01*
X-874951Y5158292D01*
X3638687Y5158292D01*
X3638687Y3786070D01*
G37*
G36*
X-209458Y30008923D02*
G01*
X-137516Y29936981D01*
X-97174Y29775614D01*
X-97174Y29460749D01*
X-137516Y29299383D01*
X-209459Y29227439D01*
X-277974Y29193181D01*
X-433040Y29193181D01*
X-501556Y29227439D01*
X-573499Y29299383D01*
X-613840Y29460749D01*
X-613840Y29775614D01*
X-573499Y29936981D01*
X-501556Y30008923D01*
X-433040Y30043181D01*
X-277974Y30043181D01*
X-209458Y30008923D01*
G37*
G36*
X3409590Y30008923D02*
G01*
X3439997Y29978516D01*
X3474255Y29910000D01*
X3474255Y29802553D01*
X3439997Y29734037D01*
X3409590Y29703630D01*
X3341074Y29669372D01*
X3052827Y29669372D01*
X3052827Y30043181D01*
X3341074Y30043181D01*
X3409590Y30008923D01*
G37*
G36*
X3735366Y28932070D02*
G01*
X-874951Y28932070D01*
X-874951Y29784848D01*
X-763840Y29784848D01*
X-763840Y29451515D01*
X-763589Y29448962D01*
X-763751Y29447869D01*
X-762942Y29442396D01*
X-762399Y29436883D01*
X-761977Y29435862D01*
X-761601Y29433325D01*
X-713982Y29242849D01*
X-709035Y29229003D01*
X-705716Y29224524D01*
X-703582Y29219372D01*
X-694254Y29208006D01*
X-599016Y29112767D01*
X-593266Y29108047D01*
X-591967Y29106550D01*
X-589713Y29105131D01*
X-587651Y29103439D01*
X-585819Y29102681D01*
X-579524Y29098718D01*
X-484286Y29051099D01*
X-470555Y29045844D01*
X-467866Y29045653D01*
X-465377Y29044622D01*
X-450745Y29043181D01*
X-260269Y29043181D01*
X-245637Y29044622D01*
X-243148Y29045654D01*
X-240460Y29045844D01*
X-226728Y29051099D01*
X-131490Y29098718D01*
X-125191Y29102683D01*
X-123363Y29103440D01*
X-121307Y29105129D01*
X-119047Y29106550D01*
X-117748Y29108049D01*
X-111998Y29112767D01*
X-16759Y29208007D01*
X-7432Y29219372D01*
X-5299Y29224524D01*
X-1979Y29229003D01*
X2968Y29242849D01*
X50587Y29433325D01*
X50962Y29435862D01*
X51385Y29436883D01*
X51927Y29442396D01*
X52737Y29447869D01*
X52574Y29448962D01*
X52826Y29451515D01*
X52826Y29784848D01*
X52574Y29787402D01*
X52737Y29788494D01*
X51927Y29793968D01*
X51385Y29799480D01*
X50962Y29800502D01*
X50587Y29803038D01*
X2968Y29993514D01*
X-1979Y30007360D01*
X-5298Y30011839D01*
X-7432Y30016992D01*
X-16760Y30028357D01*
X-106584Y30118181D01*
X331398Y30118181D01*
X331398Y29308658D01*
X332839Y29294026D01*
X333870Y29291537D01*
X334061Y29288849D01*
X339316Y29275117D01*
X386935Y29179879D01*
X390898Y29173583D01*
X391656Y29171753D01*
X393345Y29169695D01*
X394767Y29167436D01*
X396265Y29166137D01*
X400983Y29160388D01*
X448602Y29112768D01*
X454351Y29108050D01*
X455652Y29106550D01*
X457911Y29105128D01*
X459968Y29103440D01*
X461795Y29102683D01*
X468095Y29098718D01*
X563333Y29051099D01*
X577064Y29045844D01*
X579753Y29045653D01*
X582242Y29044622D01*
X596874Y29043181D01*
X787350Y29043181D01*
X801982Y29044622D01*
X804471Y29045654D01*
X807159Y29045844D01*
X820891Y29051099D01*
X916129Y29098718D01*
X922428Y29102683D01*
X924256Y29103440D01*
X926312Y29105128D01*
X928572Y29106550D01*
X929872Y29108050D01*
X935622Y29112768D01*
X983240Y29160387D01*
X987958Y29166137D01*
X989457Y29167436D01*
X990878Y29169695D01*
X992568Y29171753D01*
X993325Y29173583D01*
X997289Y29179879D01*
X1044908Y29275117D01*
X1050163Y29288848D01*
X1050354Y29291538D01*
X1051385Y29294026D01*
X1052826Y29308658D01*
X1052826Y30118181D01*
X1051385Y30132813D01*
X1237601Y30132813D01*
X1237601Y30103549D01*
X1248800Y30076513D01*
X1269492Y30055821D01*
X1296528Y30044622D01*
X1311160Y30043181D01*
X1521874Y30043181D01*
X1521874Y29118181D01*
X1523315Y29103549D01*
X1534514Y29076513D01*
X1555206Y29055821D01*
X1582242Y29044622D01*
X1611506Y29044622D01*
X1638542Y29055821D01*
X1659234Y29076513D01*
X1670433Y29103549D01*
X1671874Y29118181D01*
X1671874Y30043181D01*
X1882588Y30043181D01*
X1897220Y30044622D01*
X1924256Y30055821D01*
X1944948Y30076513D01*
X1956147Y30103549D01*
X1956147Y30118181D01*
X2902827Y30118181D01*
X2902827Y29118181D01*
X2904268Y29103549D01*
X2915467Y29076513D01*
X2936159Y29055821D01*
X2963195Y29044622D01*
X2992459Y29044622D01*
X3019495Y29055821D01*
X3040187Y29076513D01*
X3051386Y29103549D01*
X3052827Y29118181D01*
X3052827Y29519372D01*
X3176873Y29519372D01*
X3487813Y29075171D01*
X3497384Y29064011D01*
X3522063Y29048284D01*
X3550880Y29043198D01*
X3579451Y29049528D01*
X3603425Y29066310D01*
X3619152Y29090988D01*
X3624237Y29119806D01*
X3617908Y29148377D01*
X3610698Y29161190D01*
X3359894Y29519482D01*
X3373411Y29520813D01*
X3375900Y29521845D01*
X3378588Y29522035D01*
X3392320Y29527290D01*
X3487558Y29574909D01*
X3493857Y29578874D01*
X3495685Y29579631D01*
X3497741Y29581320D01*
X3500001Y29582741D01*
X3501300Y29584240D01*
X3507050Y29588958D01*
X3554669Y29636577D01*
X3559387Y29642327D01*
X3560886Y29643626D01*
X3562307Y29645886D01*
X3563996Y29647942D01*
X3564753Y29649770D01*
X3568718Y29656069D01*
X3616337Y29751307D01*
X3621592Y29765038D01*
X3621783Y29767728D01*
X3622814Y29770216D01*
X3624255Y29784848D01*
X3624255Y29927705D01*
X3622814Y29942337D01*
X3621783Y29944826D01*
X3621592Y29947515D01*
X3616337Y29961246D01*
X3568718Y30056484D01*
X3564753Y30062784D01*
X3563996Y30064611D01*
X3562307Y30066668D01*
X3560886Y30068927D01*
X3559387Y30070227D01*
X3554669Y30075976D01*
X3507050Y30123595D01*
X3501300Y30128314D01*
X3500001Y30129812D01*
X3497741Y30131234D01*
X3495685Y30132922D01*
X3493857Y30133680D01*
X3487558Y30137644D01*
X3392320Y30185263D01*
X3378588Y30190518D01*
X3375900Y30190709D01*
X3373411Y30191740D01*
X3358779Y30193181D01*
X2977827Y30193181D01*
X2963195Y30191740D01*
X2936159Y30180541D01*
X2915467Y30159849D01*
X2904268Y30132813D01*
X2902827Y30118181D01*
X1956147Y30118181D01*
X1956147Y30132813D01*
X1944948Y30159849D01*
X1924256Y30180541D01*
X1897220Y30191740D01*
X1882588Y30193181D01*
X1311160Y30193181D01*
X1296528Y30191740D01*
X1269492Y30180541D01*
X1248800Y30159849D01*
X1237601Y30132813D01*
X1051385Y30132813D01*
X1040186Y30159849D01*
X1019494Y30180541D01*
X992458Y30191740D01*
X963194Y30191740D01*
X936158Y30180541D01*
X915466Y30159849D01*
X904267Y30132813D01*
X902826Y30118181D01*
X902826Y29326363D01*
X868567Y29257847D01*
X838160Y29227439D01*
X769645Y29193181D01*
X614579Y29193181D01*
X546063Y29227439D01*
X515656Y29257847D01*
X481398Y29326363D01*
X481398Y30118181D01*
X479957Y30132813D01*
X468758Y30159849D01*
X448066Y30180541D01*
X421030Y30191740D01*
X391766Y30191740D01*
X364730Y30180541D01*
X344038Y30159849D01*
X332839Y30132813D01*
X331398Y30118181D01*
X-106584Y30118181D01*
X-111998Y30123595D01*
X-117748Y30128314D01*
X-119047Y30129812D01*
X-121307Y30131234D01*
X-123363Y30132922D01*
X-125191Y30133680D01*
X-131490Y30137644D01*
X-226728Y30185263D01*
X-240460Y30190518D01*
X-243148Y30190709D01*
X-245637Y30191740D01*
X-260269Y30193181D01*
X-450745Y30193181D01*
X-465377Y30191740D01*
X-467866Y30190710D01*
X-470555Y30190518D01*
X-484286Y30185263D01*
X-579524Y30137644D01*
X-585819Y30133682D01*
X-587651Y30132923D01*
X-589713Y30131232D01*
X-591967Y30129812D01*
X-593266Y30128316D01*
X-599016Y30123595D01*
X-694254Y30028357D01*
X-703581Y30016992D01*
X-705715Y30011842D01*
X-709035Y30007360D01*
X-713982Y29993514D01*
X-761601Y29803038D01*
X-761977Y29800502D01*
X-762399Y29799480D01*
X-762942Y29793968D01*
X-763751Y29788494D01*
X-763589Y29787402D01*
X-763840Y29784848D01*
X-874951Y29784848D01*
X-874951Y30304292D01*
X3735366Y30304292D01*
X3735366Y28932070D01*
G37*
D11*
G36*
X45040228Y43063180D02*
G01*
X45101041Y43002367D01*
X45169558Y42865334D01*
X45169558Y42364725D01*
X45101041Y42227693D01*
X45040227Y42166878D01*
X44903196Y42098362D01*
X44593063Y42098362D01*
X44517177Y42136305D01*
X44517177Y43093753D01*
X44593063Y43131696D01*
X44903196Y43131696D01*
X45040228Y43063180D01*
G37*
G36*
X40183085Y43729846D02*
G01*
X40326971Y43585960D01*
X40407653Y43263232D01*
X40407653Y42633493D01*
X40326970Y42310765D01*
X40183084Y42166878D01*
X40046053Y42098362D01*
X39735920Y42098362D01*
X39598888Y42166878D01*
X39455002Y42310765D01*
X39374320Y42633494D01*
X39374320Y43263232D01*
X39455002Y43585961D01*
X39598888Y43729846D01*
X39735920Y43798362D01*
X40046053Y43798362D01*
X40183085Y43729846D01*
G37*
G36*
X52069851Y40912356D02*
G01*
X38852098Y40912356D01*
X38852098Y43281696D01*
X39074320Y43281696D01*
X39074320Y42615029D01*
X39074822Y42609926D01*
X39074497Y42607738D01*
X39076116Y42596788D01*
X39077202Y42585765D01*
X39078049Y42583721D01*
X39078799Y42578649D01*
X39174037Y42197697D01*
X39183930Y42170006D01*
X39190569Y42161046D01*
X39194837Y42150742D01*
X39213492Y42128011D01*
X39403967Y41937535D01*
X39415469Y41928096D01*
X39418066Y41925101D01*
X39422580Y41922260D01*
X39426698Y41918880D01*
X39430355Y41917365D01*
X39442952Y41909436D01*
X39633428Y41814198D01*
X39660892Y41803688D01*
X39666267Y41803307D01*
X39671246Y41801244D01*
X39700510Y41798362D01*
X40081463Y41798362D01*
X40110727Y41801244D01*
X40115704Y41803306D01*
X40121082Y41803688D01*
X40148545Y41814198D01*
X40339021Y41909436D01*
X40351612Y41917363D01*
X40355275Y41918879D01*
X40359397Y41922263D01*
X40363907Y41925101D01*
X40366502Y41928094D01*
X40378005Y41937534D01*
X40568481Y42128011D01*
X40587136Y42150742D01*
X40591403Y42161044D01*
X40598043Y42170005D01*
X40607936Y42197697D01*
X40703174Y42578648D01*
X40703924Y42583721D01*
X40704771Y42585765D01*
X40705856Y42596787D01*
X40707476Y42607738D01*
X40707150Y42609926D01*
X40707653Y42615029D01*
X40707653Y43281696D01*
X41264796Y43281696D01*
X41264796Y42234077D01*
X41267678Y42204813D01*
X41269740Y42199835D01*
X41270122Y42194459D01*
X41280632Y42166995D01*
X41375870Y41976518D01*
X41378950Y41971624D01*
X41379720Y41969316D01*
X41382212Y41966442D01*
X41391535Y41951632D01*
X41405744Y41939309D01*
X41418066Y41925101D01*
X41432871Y41915782D01*
X41435750Y41913285D01*
X41438061Y41912515D01*
X41442952Y41909436D01*
X41633428Y41814198D01*
X41660892Y41803688D01*
X41666267Y41803307D01*
X41671246Y41801244D01*
X41700510Y41798362D01*
X41986225Y41798362D01*
X42015489Y41801244D01*
X42020466Y41803306D01*
X42025844Y41803688D01*
X42053307Y41814198D01*
X42149800Y41862445D01*
X42188603Y41823642D01*
X42242675Y41801244D01*
X42301203Y41801244D01*
X42355275Y41823642D01*
X42396659Y41865026D01*
X42419057Y41919098D01*
X42421939Y41948362D01*
X42421939Y43281696D01*
X42419057Y43310960D01*
X42791488Y43310960D01*
X42791488Y43252432D01*
X42813886Y43198360D01*
X42855270Y43156976D01*
X42909342Y43134578D01*
X42938606Y43131696D01*
X43074320Y43131696D01*
X43074320Y42234077D01*
X43077202Y42204813D01*
X43079264Y42199835D01*
X43079646Y42194459D01*
X43090156Y42166995D01*
X43185394Y41976518D01*
X43188474Y41971624D01*
X43189244Y41969316D01*
X43191736Y41966442D01*
X43201059Y41951632D01*
X43215268Y41939309D01*
X43227590Y41925101D01*
X43242395Y41915782D01*
X43245274Y41913285D01*
X43247585Y41912515D01*
X43252476Y41909436D01*
X43442952Y41814198D01*
X43470416Y41803688D01*
X43475791Y41803307D01*
X43480770Y41801244D01*
X43510034Y41798362D01*
X43700510Y41798362D01*
X43729774Y41801244D01*
X43783846Y41823642D01*
X43825230Y41865026D01*
X43847628Y41919098D01*
X43847628Y41977626D01*
X43825230Y42031698D01*
X43783846Y42073082D01*
X43729774Y42095480D01*
X43700510Y42098362D01*
X43545444Y42098362D01*
X43431360Y42155404D01*
X43374320Y42269487D01*
X43374320Y43131696D01*
X43700510Y43131696D01*
X43729774Y43134578D01*
X43783846Y43156976D01*
X43825230Y43198360D01*
X43847628Y43252432D01*
X43847628Y43281696D01*
X44217177Y43281696D01*
X44217177Y41281696D01*
X44220059Y41252432D01*
X44242457Y41198360D01*
X44283841Y41156976D01*
X44337913Y41134578D01*
X44396441Y41134578D01*
X44450513Y41156976D01*
X44491897Y41198360D01*
X44514295Y41252432D01*
X44517177Y41281696D01*
X44517177Y41804017D01*
X44518035Y41803688D01*
X44523410Y41803307D01*
X44528389Y41801244D01*
X44557653Y41798362D01*
X44938606Y41798362D01*
X44967870Y41801244D01*
X44972847Y41803306D01*
X44978225Y41803688D01*
X45005688Y41814198D01*
X45196164Y41909436D01*
X45208759Y41917365D01*
X45212418Y41918880D01*
X45216535Y41922260D01*
X45221050Y41925101D01*
X45223647Y41928096D01*
X45235149Y41937535D01*
X45330387Y42032774D01*
X45339825Y42044276D01*
X45342819Y42046871D01*
X45345659Y42051384D01*
X45349042Y42055505D01*
X45350558Y42059167D01*
X45358484Y42071757D01*
X45453722Y42262233D01*
X45464232Y42289697D01*
X45464613Y42295073D01*
X45466676Y42300051D01*
X45469558Y42329315D01*
X45469558Y42900743D01*
X45466676Y42930007D01*
X45464613Y42934986D01*
X45464232Y42940361D01*
X45453722Y42967824D01*
X45358484Y43158302D01*
X45350557Y43170894D01*
X45349041Y43174555D01*
X45345657Y43178678D01*
X45342819Y43183187D01*
X45339827Y43185782D01*
X45330386Y43197286D01*
X45245976Y43281696D01*
X46026701Y43281696D01*
X46026701Y42234077D01*
X46029583Y42204813D01*
X46031645Y42199835D01*
X46032027Y42194459D01*
X46042537Y42166995D01*
X46137775Y41976518D01*
X46140855Y41971624D01*
X46141625Y41969316D01*
X46144117Y41966442D01*
X46153440Y41951632D01*
X46167649Y41939309D01*
X46179971Y41925101D01*
X46194776Y41915782D01*
X46197655Y41913285D01*
X46199966Y41912515D01*
X46204857Y41909436D01*
X46395333Y41814198D01*
X46422797Y41803688D01*
X46428172Y41803307D01*
X46433151Y41801244D01*
X46462415Y41798362D01*
X46748130Y41798362D01*
X46777394Y41801244D01*
X46782371Y41803306D01*
X46787749Y41803688D01*
X46815212Y41814198D01*
X46911705Y41862445D01*
X46950508Y41823642D01*
X47004580Y41801244D01*
X47063108Y41801244D01*
X47117180Y41823642D01*
X47158564Y41865026D01*
X47180962Y41919098D01*
X47183844Y41948362D01*
X47183844Y43281696D01*
X47180962Y43310960D01*
X47553393Y43310960D01*
X47553393Y43252432D01*
X47575791Y43198360D01*
X47617175Y43156976D01*
X47671247Y43134578D01*
X47700511Y43131696D01*
X47836225Y43131696D01*
X47836225Y42234077D01*
X47839107Y42204813D01*
X47841169Y42199835D01*
X47841551Y42194459D01*
X47852061Y42166995D01*
X47947299Y41976518D01*
X47950379Y41971624D01*
X47951149Y41969316D01*
X47953641Y41966442D01*
X47962964Y41951632D01*
X47977173Y41939309D01*
X47989495Y41925101D01*
X48004300Y41915782D01*
X48007179Y41913285D01*
X48009490Y41912515D01*
X48014381Y41909436D01*
X48204857Y41814198D01*
X48232321Y41803688D01*
X48237696Y41803307D01*
X48242675Y41801244D01*
X48271939Y41798362D01*
X48462415Y41798362D01*
X48491679Y41801244D01*
X48545751Y41823642D01*
X48587135Y41865026D01*
X48609533Y41919098D01*
X48609533Y41977626D01*
X48587135Y42031698D01*
X48545751Y42073082D01*
X48491679Y42095480D01*
X48462415Y42098362D01*
X48307349Y42098362D01*
X48193265Y42155404D01*
X48136225Y42269487D01*
X48136225Y43131696D01*
X48462415Y43131696D01*
X48491679Y43134578D01*
X48545751Y43156976D01*
X48587135Y43198360D01*
X48609533Y43252432D01*
X48609533Y43310960D01*
X48587135Y43365032D01*
X48556471Y43395696D01*
X50408832Y43395696D01*
X50412980Y43337315D01*
X50439155Y43284966D01*
X50483370Y43246620D01*
X50538892Y43228112D01*
X50597273Y43232260D01*
X50624736Y43242770D01*
X50815212Y43338008D01*
X50827805Y43345936D01*
X50831465Y43347451D01*
X50835584Y43350833D01*
X50840098Y43353673D01*
X50842694Y43356668D01*
X50854196Y43366106D01*
X50979082Y43490992D01*
X50979082Y42098362D01*
X50557654Y42098362D01*
X50528390Y42095480D01*
X50474318Y42073082D01*
X50432934Y42031698D01*
X50410536Y41977626D01*
X50410536Y41919098D01*
X50432934Y41865026D01*
X50474318Y41823642D01*
X50528390Y41801244D01*
X50557654Y41798362D01*
X51700511Y41798362D01*
X51729775Y41801244D01*
X51783847Y41823642D01*
X51825231Y41865026D01*
X51847629Y41919098D01*
X51847629Y41977626D01*
X51825231Y42031698D01*
X51783847Y42073082D01*
X51729775Y42095480D01*
X51700511Y42098362D01*
X51279082Y42098362D01*
X51279082Y43948362D01*
X51279071Y43948467D01*
X51279082Y43948519D01*
X51279051Y43948672D01*
X51276200Y43977626D01*
X51270516Y43991348D01*
X51267604Y44005908D01*
X51259427Y44018118D01*
X51253802Y44031698D01*
X51243298Y44042202D01*
X51235037Y44054538D01*
X51222811Y44062689D01*
X51212418Y44073082D01*
X51198695Y44078767D01*
X51186339Y44087004D01*
X51171925Y44089856D01*
X51158346Y44095480D01*
X51143489Y44095480D01*
X51128924Y44098361D01*
X51114518Y44095480D01*
X51099818Y44095480D01*
X51086095Y44089796D01*
X51071535Y44086884D01*
X51059323Y44078707D01*
X51045746Y44073082D01*
X51035244Y44062581D01*
X51022905Y44054317D01*
X51004468Y44031805D01*
X51004362Y44031698D01*
X51004342Y44031651D01*
X51004274Y44031567D01*
X50822036Y43758210D01*
X50659276Y43595450D01*
X50490572Y43511098D01*
X50465686Y43495433D01*
X50427340Y43451218D01*
X50408832Y43395696D01*
X48556471Y43395696D01*
X48545751Y43406416D01*
X48491679Y43428814D01*
X48462415Y43431696D01*
X48136225Y43431696D01*
X48136225Y43948362D01*
X48133343Y43977626D01*
X48110945Y44031698D01*
X48069561Y44073082D01*
X48015489Y44095480D01*
X47956961Y44095480D01*
X47902889Y44073082D01*
X47861505Y44031698D01*
X47839107Y43977626D01*
X47836225Y43948362D01*
X47836225Y43431696D01*
X47700511Y43431696D01*
X47671247Y43428814D01*
X47617175Y43406416D01*
X47575791Y43365032D01*
X47553393Y43310960D01*
X47180962Y43310960D01*
X47158564Y43365032D01*
X47117180Y43406416D01*
X47063108Y43428814D01*
X47004580Y43428814D01*
X46950508Y43406416D01*
X46909124Y43365032D01*
X46886726Y43310960D01*
X46883844Y43281696D01*
X46883844Y42200971D01*
X46849751Y42166878D01*
X46712720Y42098362D01*
X46497825Y42098362D01*
X46383741Y42155404D01*
X46326701Y42269487D01*
X46326701Y43281696D01*
X46323819Y43310960D01*
X46301421Y43365032D01*
X46260037Y43406416D01*
X46205965Y43428814D01*
X46147437Y43428814D01*
X46093365Y43406416D01*
X46051981Y43365032D01*
X46029583Y43310960D01*
X46026701Y43281696D01*
X45245976Y43281696D01*
X45235148Y43292524D01*
X45223646Y43301963D01*
X45221050Y43304957D01*
X45216536Y43307798D01*
X45212417Y43311179D01*
X45208757Y43312695D01*
X45196164Y43320622D01*
X45005688Y43415860D01*
X44978225Y43426370D01*
X44972847Y43426753D01*
X44967870Y43428814D01*
X44938606Y43431696D01*
X44557653Y43431696D01*
X44528389Y43428814D01*
X44523410Y43426752D01*
X44518035Y43426370D01*
X44490571Y43415860D01*
X44457569Y43399360D01*
X44450513Y43406416D01*
X44396441Y43428814D01*
X44337913Y43428814D01*
X44283841Y43406416D01*
X44242457Y43365032D01*
X44220059Y43310960D01*
X44217177Y43281696D01*
X43847628Y43281696D01*
X43847628Y43310960D01*
X43825230Y43365032D01*
X43783846Y43406416D01*
X43729774Y43428814D01*
X43700510Y43431696D01*
X43374320Y43431696D01*
X43374320Y43948362D01*
X43371438Y43977626D01*
X43349040Y44031698D01*
X43307656Y44073082D01*
X43253584Y44095480D01*
X43195056Y44095480D01*
X43140984Y44073082D01*
X43099600Y44031698D01*
X43077202Y43977626D01*
X43074320Y43948362D01*
X43074320Y43431696D01*
X42938606Y43431696D01*
X42909342Y43428814D01*
X42855270Y43406416D01*
X42813886Y43365032D01*
X42791488Y43310960D01*
X42419057Y43310960D01*
X42396659Y43365032D01*
X42355275Y43406416D01*
X42301203Y43428814D01*
X42242675Y43428814D01*
X42188603Y43406416D01*
X42147219Y43365032D01*
X42124821Y43310960D01*
X42121939Y43281696D01*
X42121939Y42200971D01*
X42087846Y42166878D01*
X41950815Y42098362D01*
X41735920Y42098362D01*
X41621836Y42155404D01*
X41564796Y42269487D01*
X41564796Y43281696D01*
X41561914Y43310960D01*
X41539516Y43365032D01*
X41498132Y43406416D01*
X41444060Y43428814D01*
X41385532Y43428814D01*
X41331460Y43406416D01*
X41290076Y43365032D01*
X41267678Y43310960D01*
X41264796Y43281696D01*
X40707653Y43281696D01*
X40707150Y43286800D01*
X40707476Y43288987D01*
X40705856Y43299939D01*
X40704771Y43310960D01*
X40703924Y43313005D01*
X40703174Y43318077D01*
X40607936Y43699028D01*
X40598043Y43726720D01*
X40591403Y43735682D01*
X40587136Y43745983D01*
X40568481Y43768714D01*
X40378005Y43959190D01*
X40366503Y43968629D01*
X40363907Y43971623D01*
X40359393Y43974464D01*
X40355274Y43977845D01*
X40351614Y43979361D01*
X40339021Y43987288D01*
X40148545Y44082526D01*
X40121082Y44093036D01*
X40115704Y44093419D01*
X40110727Y44095480D01*
X40081463Y44098362D01*
X39700510Y44098362D01*
X39671246Y44095480D01*
X39666267Y44093418D01*
X39660892Y44093036D01*
X39633428Y44082526D01*
X39442952Y43987288D01*
X39430358Y43979361D01*
X39426699Y43977845D01*
X39422579Y43974464D01*
X39418066Y43971623D01*
X39415469Y43968630D01*
X39403968Y43959190D01*
X39213492Y43768714D01*
X39194837Y43745983D01*
X39190569Y43735680D01*
X39183930Y43726719D01*
X39174037Y43699028D01*
X39078799Y43318076D01*
X39078049Y43313005D01*
X39077202Y43310960D01*
X39076116Y43299938D01*
X39074497Y43288987D01*
X39074822Y43286800D01*
X39074320Y43281696D01*
X38852098Y43281696D01*
X38852098Y44320584D01*
X52069851Y44320584D01*
X52069851Y40912356D01*
G37*
G36*
X6764514Y12329180D02*
G01*
X6825327Y12268367D01*
X6893844Y12131334D01*
X6893844Y11630725D01*
X6825327Y11493693D01*
X6764513Y11432878D01*
X6627482Y11364362D01*
X6317349Y11364362D01*
X6241463Y11402305D01*
X6241463Y12359753D01*
X6317349Y12397696D01*
X6627482Y12397696D01*
X6764514Y12329180D01*
G37*
G36*
X10556041Y10178356D02*
G01*
X2957336Y10178356D01*
X2957336Y13214362D01*
X3179558Y13214362D01*
X3179558Y11214362D01*
X3182440Y11185098D01*
X3204838Y11131026D01*
X3246222Y11089642D01*
X3300294Y11067244D01*
X3358822Y11067244D01*
X3412894Y11089642D01*
X3454278Y11131026D01*
X3476676Y11185098D01*
X3479558Y11214362D01*
X3479558Y12547696D01*
X4131939Y12547696D01*
X4131939Y11214362D01*
X4134821Y11185098D01*
X4157219Y11131026D01*
X4198603Y11089642D01*
X4252675Y11067244D01*
X4311203Y11067244D01*
X4365275Y11089642D01*
X4406659Y11131026D01*
X4429057Y11185098D01*
X4431939Y11214362D01*
X4431939Y12295088D01*
X4466031Y12329180D01*
X4603063Y12397696D01*
X4817958Y12397696D01*
X4932040Y12340655D01*
X4989082Y12226572D01*
X4989082Y11214362D01*
X4991964Y11185098D01*
X5014362Y11131026D01*
X5055746Y11089642D01*
X5109818Y11067244D01*
X5168346Y11067244D01*
X5222418Y11089642D01*
X5263802Y11131026D01*
X5286200Y11185098D01*
X5289082Y11214362D01*
X5289082Y12261981D01*
X5286200Y12291245D01*
X5284137Y12296224D01*
X5283756Y12301599D01*
X5273246Y12329062D01*
X5178008Y12519540D01*
X5174929Y12524431D01*
X5174159Y12526742D01*
X5171661Y12529622D01*
X5162343Y12544425D01*
X5158572Y12547696D01*
X5941463Y12547696D01*
X5941463Y10547696D01*
X5944345Y10518432D01*
X5966743Y10464360D01*
X6008127Y10422976D01*
X6062199Y10400578D01*
X6120727Y10400578D01*
X6174799Y10422976D01*
X6216183Y10464360D01*
X6238581Y10518432D01*
X6241463Y10547696D01*
X6241463Y11070017D01*
X6242321Y11069688D01*
X6247696Y11069307D01*
X6252675Y11067244D01*
X6281939Y11064362D01*
X6662892Y11064362D01*
X6692156Y11067244D01*
X6697133Y11069306D01*
X6702511Y11069688D01*
X6729974Y11080198D01*
X6920450Y11175436D01*
X6933045Y11183365D01*
X6936704Y11184880D01*
X6940821Y11188260D01*
X6945336Y11191101D01*
X6947933Y11194096D01*
X6959435Y11203535D01*
X7054673Y11298774D01*
X7064111Y11310276D01*
X7067105Y11312871D01*
X7069945Y11317384D01*
X7073328Y11321505D01*
X7074844Y11325167D01*
X7082770Y11337757D01*
X7178008Y11528233D01*
X7188518Y11555697D01*
X7188899Y11561073D01*
X7190962Y11566051D01*
X7193844Y11595315D01*
X7193844Y12166743D01*
X7190962Y12196007D01*
X7188899Y12200986D01*
X7188518Y12206361D01*
X7178008Y12233824D01*
X7082770Y12424302D01*
X7074843Y12436894D01*
X7073327Y12440555D01*
X7069943Y12444678D01*
X7067105Y12449187D01*
X7064113Y12451782D01*
X7054672Y12463286D01*
X6970262Y12547696D01*
X7750987Y12547696D01*
X7750987Y11500077D01*
X7753869Y11470813D01*
X7755931Y11465835D01*
X7756313Y11460459D01*
X7766823Y11432995D01*
X7862061Y11242518D01*
X7865141Y11237624D01*
X7865911Y11235316D01*
X7868403Y11232442D01*
X7877726Y11217632D01*
X7891935Y11205309D01*
X7904257Y11191101D01*
X7919062Y11181782D01*
X7921941Y11179285D01*
X7924252Y11178515D01*
X7929143Y11175436D01*
X8119619Y11080198D01*
X8147083Y11069688D01*
X8152458Y11069307D01*
X8157437Y11067244D01*
X8186701Y11064362D01*
X8472416Y11064362D01*
X8501680Y11067244D01*
X8506657Y11069306D01*
X8512035Y11069688D01*
X8539498Y11080198D01*
X8635991Y11128445D01*
X8674794Y11089642D01*
X8728866Y11067244D01*
X8787394Y11067244D01*
X8841466Y11089642D01*
X8882850Y11131026D01*
X8905248Y11185098D01*
X8908130Y11214362D01*
X8908130Y12547696D01*
X8905248Y12576960D01*
X9277679Y12576960D01*
X9277679Y12518432D01*
X9300077Y12464360D01*
X9341461Y12422976D01*
X9395533Y12400578D01*
X9424797Y12397696D01*
X9560511Y12397696D01*
X9560511Y11500077D01*
X9563393Y11470813D01*
X9565455Y11465835D01*
X9565837Y11460459D01*
X9576347Y11432995D01*
X9671585Y11242518D01*
X9674665Y11237624D01*
X9675435Y11235316D01*
X9677927Y11232442D01*
X9687250Y11217632D01*
X9701459Y11205309D01*
X9713781Y11191101D01*
X9728586Y11181782D01*
X9731465Y11179285D01*
X9733776Y11178515D01*
X9738667Y11175436D01*
X9929143Y11080198D01*
X9956607Y11069688D01*
X9961982Y11069307D01*
X9966961Y11067244D01*
X9996225Y11064362D01*
X10186701Y11064362D01*
X10215965Y11067244D01*
X10270037Y11089642D01*
X10311421Y11131026D01*
X10333819Y11185098D01*
X10333819Y11243626D01*
X10311421Y11297698D01*
X10270037Y11339082D01*
X10215965Y11361480D01*
X10186701Y11364362D01*
X10031635Y11364362D01*
X9917551Y11421404D01*
X9860511Y11535487D01*
X9860511Y12397696D01*
X10186701Y12397696D01*
X10215965Y12400578D01*
X10270037Y12422976D01*
X10311421Y12464360D01*
X10333819Y12518432D01*
X10333819Y12576960D01*
X10311421Y12631032D01*
X10270037Y12672416D01*
X10215965Y12694814D01*
X10186701Y12697696D01*
X9860511Y12697696D01*
X9860511Y13214362D01*
X9857629Y13243626D01*
X9835231Y13297698D01*
X9793847Y13339082D01*
X9739775Y13361480D01*
X9681247Y13361480D01*
X9627175Y13339082D01*
X9585791Y13297698D01*
X9563393Y13243626D01*
X9560511Y13214362D01*
X9560511Y12697696D01*
X9424797Y12697696D01*
X9395533Y12694814D01*
X9341461Y12672416D01*
X9300077Y12631032D01*
X9277679Y12576960D01*
X8905248Y12576960D01*
X8882850Y12631032D01*
X8841466Y12672416D01*
X8787394Y12694814D01*
X8728866Y12694814D01*
X8674794Y12672416D01*
X8633410Y12631032D01*
X8611012Y12576960D01*
X8608130Y12547696D01*
X8608130Y11466971D01*
X8574037Y11432878D01*
X8437006Y11364362D01*
X8222111Y11364362D01*
X8108027Y11421404D01*
X8050987Y11535487D01*
X8050987Y12547696D01*
X8048105Y12576960D01*
X8025707Y12631032D01*
X7984323Y12672416D01*
X7930251Y12694814D01*
X7871723Y12694814D01*
X7817651Y12672416D01*
X7776267Y12631032D01*
X7753869Y12576960D01*
X7750987Y12547696D01*
X6970262Y12547696D01*
X6959434Y12558524D01*
X6947932Y12567963D01*
X6945336Y12570957D01*
X6940822Y12573798D01*
X6936703Y12577179D01*
X6933043Y12578695D01*
X6920450Y12586622D01*
X6729974Y12681860D01*
X6702511Y12692370D01*
X6697133Y12692753D01*
X6692156Y12694814D01*
X6662892Y12697696D01*
X6281939Y12697696D01*
X6252675Y12694814D01*
X6247696Y12692752D01*
X6242321Y12692370D01*
X6214857Y12681860D01*
X6181855Y12665360D01*
X6174799Y12672416D01*
X6120727Y12694814D01*
X6062199Y12694814D01*
X6008127Y12672416D01*
X5966743Y12631032D01*
X5944345Y12576960D01*
X5941463Y12547696D01*
X5158572Y12547696D01*
X5148138Y12556745D01*
X5135812Y12570957D01*
X5121001Y12580280D01*
X5118128Y12582772D01*
X5115820Y12583542D01*
X5110926Y12586622D01*
X4920450Y12681860D01*
X4892987Y12692370D01*
X4887609Y12692753D01*
X4882632Y12694814D01*
X4853368Y12697696D01*
X4567653Y12697696D01*
X4538389Y12694814D01*
X4533410Y12692752D01*
X4528035Y12692370D01*
X4500571Y12681860D01*
X4404077Y12633614D01*
X4365275Y12672416D01*
X4311203Y12694814D01*
X4252675Y12694814D01*
X4198603Y12672416D01*
X4157219Y12631032D01*
X4134821Y12576960D01*
X4131939Y12547696D01*
X3479558Y12547696D01*
X3479558Y13214362D01*
X3476676Y13243626D01*
X3454278Y13297698D01*
X3412894Y13339082D01*
X3358822Y13361480D01*
X3300294Y13361480D01*
X3246222Y13339082D01*
X3204838Y13297698D01*
X3182440Y13243626D01*
X3179558Y13214362D01*
X2957336Y13214362D01*
X2957336Y13583702D01*
X10556041Y13583702D01*
X10556041Y10178356D01*
G37*
G36*
X30403562Y-6720820D02*
G01*
X30464375Y-6781633D01*
X30532892Y-6918666D01*
X30532892Y-7419275D01*
X30464375Y-7556307D01*
X30403561Y-7617122D01*
X30266530Y-7685638D01*
X29956397Y-7685638D01*
X29880511Y-7647695D01*
X29880511Y-6690247D01*
X29956397Y-6652304D01*
X30266530Y-6652304D01*
X30403562Y-6720820D01*
G37*
G36*
X36285374Y-6709345D02*
G01*
X36342416Y-6823428D01*
X36342416Y-6855524D01*
X35690035Y-6986000D01*
X35690035Y-6823428D01*
X35747075Y-6709345D01*
X35861159Y-6652304D01*
X36171292Y-6652304D01*
X36285374Y-6709345D01*
G37*
G36*
X46213087Y-6054154D02*
G01*
X46273901Y-6114968D01*
X46350890Y-6268946D01*
X46437655Y-6616006D01*
X46437655Y-7055269D01*
X46350890Y-7402329D01*
X46273900Y-7556307D01*
X46213086Y-7617122D01*
X46076055Y-7685638D01*
X45956398Y-7685638D01*
X45819366Y-7617122D01*
X45758552Y-7556307D01*
X45681563Y-7402329D01*
X45594798Y-7055268D01*
X45594798Y-6616006D01*
X45681563Y-6268945D01*
X45758552Y-6114968D01*
X45819366Y-6054154D01*
X45956398Y-5985638D01*
X46076055Y-5985638D01*
X46213087Y-6054154D01*
G37*
G36*
X25998587Y-7114209D02*
G01*
X25462434Y-7114209D01*
X25730510Y-6309979D01*
X25998587Y-7114209D01*
G37*
G36*
X29580511Y-3470359D02*
G01*
X29580511Y-4427807D01*
X29504625Y-4465750D01*
X29194492Y-4465750D01*
X29057460Y-4397234D01*
X28996646Y-4336419D01*
X28928130Y-4199387D01*
X28928130Y-3698778D01*
X28996645Y-3561746D01*
X29057460Y-3500932D01*
X29194492Y-3432416D01*
X29504625Y-3432416D01*
X29580511Y-3470359D01*
G37*
G36*
X32308324Y-3500932D02*
G01*
X32369137Y-3561745D01*
X32437654Y-3698778D01*
X32437654Y-4199387D01*
X32369137Y-4336419D01*
X32308323Y-4397234D01*
X32171292Y-4465750D01*
X31956397Y-4465750D01*
X31819365Y-4397234D01*
X31758551Y-4336419D01*
X31690035Y-4199387D01*
X31690035Y-3698778D01*
X31758550Y-3561746D01*
X31819365Y-3500932D01*
X31956397Y-3432416D01*
X32171292Y-3432416D01*
X32308324Y-3500932D01*
G37*
G36*
X39523470Y-3489457D02*
G01*
X39580512Y-3603540D01*
X39580512Y-3635636D01*
X38928131Y-3766112D01*
X38928131Y-3603540D01*
X38985171Y-3489457D01*
X39099255Y-3432416D01*
X39409388Y-3432416D01*
X39523470Y-3489457D01*
G37*
G36*
X43675750Y-4427807D02*
G01*
X43599864Y-4465750D01*
X43194493Y-4465750D01*
X43080409Y-4408708D01*
X43023369Y-4294625D01*
X43023369Y-4174969D01*
X43080410Y-4060886D01*
X43194493Y-4003845D01*
X43635274Y-4003845D01*
X43664538Y-4000963D01*
X43669515Y-3998901D01*
X43674893Y-3998519D01*
X43675750Y-3998191D01*
X43675750Y-4427807D01*
G37*
G36*
X47142518Y-3489457D02*
G01*
X47199560Y-3603540D01*
X47199560Y-3635636D01*
X46547179Y-3766112D01*
X46547179Y-3603540D01*
X46604219Y-3489457D01*
X46718303Y-3432416D01*
X47028436Y-3432416D01*
X47142518Y-3489457D01*
G37*
G36*
X25998587Y-3894321D02*
G01*
X25462434Y-3894321D01*
X25730510Y-3090091D01*
X25998587Y-3894321D01*
G37*
G36*
X50864535Y-8871644D02*
G01*
X24692800Y-8871644D01*
X24692800Y-7816878D01*
X24915022Y-7816878D01*
X24919171Y-7875258D01*
X24945345Y-7927605D01*
X24989559Y-7965952D01*
X25045084Y-7984460D01*
X25103464Y-7980311D01*
X25155811Y-7954137D01*
X25194158Y-7909923D01*
X25206147Y-7883072D01*
X25362435Y-7414209D01*
X26098586Y-7414209D01*
X26254874Y-7883072D01*
X26266863Y-7909923D01*
X26305210Y-7954137D01*
X26357557Y-7980311D01*
X26415937Y-7984460D01*
X26471462Y-7965952D01*
X26515676Y-7927604D01*
X26541850Y-7875257D01*
X26545999Y-7816877D01*
X26539479Y-7788204D01*
X26110845Y-6502304D01*
X26913844Y-6502304D01*
X26913844Y-7835638D01*
X26916726Y-7864902D01*
X26939124Y-7918974D01*
X26980508Y-7960358D01*
X27034580Y-7982756D01*
X27093108Y-7982756D01*
X27147180Y-7960358D01*
X27188564Y-7918974D01*
X27210962Y-7864902D01*
X27213844Y-7835638D01*
X27213844Y-6754912D01*
X27247936Y-6720820D01*
X27384968Y-6652304D01*
X27599863Y-6652304D01*
X27713945Y-6709345D01*
X27770987Y-6823428D01*
X27770987Y-7835638D01*
X27773869Y-7864902D01*
X27796267Y-7918974D01*
X27837651Y-7960358D01*
X27891723Y-7982756D01*
X27950251Y-7982756D01*
X28004323Y-7960358D01*
X28045707Y-7918974D01*
X28068105Y-7864902D01*
X28070987Y-7835638D01*
X28070987Y-6823428D01*
X28128027Y-6709345D01*
X28242111Y-6652304D01*
X28457005Y-6652304D01*
X28571088Y-6709344D01*
X28628130Y-6823428D01*
X28628130Y-7835638D01*
X28631012Y-7864902D01*
X28653410Y-7918974D01*
X28694794Y-7960358D01*
X28748866Y-7982756D01*
X28807394Y-7982756D01*
X28861466Y-7960358D01*
X28902850Y-7918974D01*
X28925248Y-7864902D01*
X28928130Y-7835638D01*
X28928130Y-6788019D01*
X28925248Y-6758755D01*
X28923185Y-6753776D01*
X28922804Y-6748401D01*
X28912294Y-6720938D01*
X28817056Y-6530460D01*
X28813977Y-6525569D01*
X28813207Y-6523258D01*
X28810709Y-6520378D01*
X28801391Y-6505575D01*
X28797620Y-6502304D01*
X29580511Y-6502304D01*
X29580511Y-8502304D01*
X29583393Y-8531568D01*
X29605791Y-8585640D01*
X29647175Y-8627024D01*
X29701247Y-8649422D01*
X29759775Y-8649422D01*
X29813847Y-8627024D01*
X29855231Y-8585640D01*
X29877629Y-8531568D01*
X29880511Y-8502304D01*
X29880511Y-7979983D01*
X29881369Y-7980312D01*
X29886744Y-7980693D01*
X29891723Y-7982756D01*
X29920987Y-7985638D01*
X30301940Y-7985638D01*
X30331204Y-7982756D01*
X30336181Y-7980694D01*
X30341559Y-7980312D01*
X30369022Y-7969802D01*
X30559498Y-7874564D01*
X30572093Y-7866635D01*
X30575752Y-7865120D01*
X30579869Y-7861740D01*
X30584384Y-7858899D01*
X30586981Y-7855904D01*
X30598483Y-7846465D01*
X30693721Y-7751226D01*
X30703159Y-7739724D01*
X30706153Y-7737129D01*
X30708993Y-7732616D01*
X30712376Y-7728495D01*
X30713892Y-7724833D01*
X30721818Y-7712243D01*
X30817056Y-7521767D01*
X30827566Y-7494303D01*
X30827947Y-7488927D01*
X30830010Y-7483949D01*
X30832892Y-7454685D01*
X30832892Y-6883257D01*
X30830010Y-6853993D01*
X30827947Y-6849014D01*
X30827566Y-6843639D01*
X30817056Y-6816176D01*
X30721818Y-6625698D01*
X30713891Y-6613106D01*
X30712375Y-6609445D01*
X30708991Y-6605322D01*
X30706153Y-6600813D01*
X30703161Y-6598218D01*
X30693720Y-6586714D01*
X30598482Y-6491476D01*
X30586980Y-6482037D01*
X30584384Y-6479043D01*
X30579870Y-6476202D01*
X30575751Y-6472821D01*
X30572091Y-6471305D01*
X30559498Y-6463378D01*
X30369022Y-6368140D01*
X30341559Y-6357630D01*
X30336181Y-6357247D01*
X30331204Y-6355186D01*
X30301940Y-6352304D01*
X29920987Y-6352304D01*
X29891723Y-6355186D01*
X29886744Y-6357248D01*
X29881369Y-6357630D01*
X29853905Y-6368140D01*
X29820903Y-6384640D01*
X29813847Y-6377584D01*
X29759775Y-6355186D01*
X29701247Y-6355186D01*
X29647175Y-6377584D01*
X29605791Y-6418968D01*
X29583393Y-6473040D01*
X29580511Y-6502304D01*
X28797620Y-6502304D01*
X28787186Y-6493255D01*
X28774860Y-6479043D01*
X28760049Y-6469720D01*
X28757176Y-6467228D01*
X28754868Y-6466458D01*
X28749974Y-6463378D01*
X28559497Y-6368140D01*
X28532033Y-6357630D01*
X28526657Y-6357248D01*
X28521679Y-6355186D01*
X28492415Y-6352304D01*
X28206701Y-6352304D01*
X28177437Y-6355186D01*
X28172458Y-6357248D01*
X28167083Y-6357630D01*
X28139619Y-6368140D01*
X27949143Y-6463378D01*
X27944252Y-6466456D01*
X27941941Y-6467227D01*
X27939062Y-6469723D01*
X27924257Y-6479043D01*
X27920987Y-6482813D01*
X27917717Y-6479043D01*
X27902906Y-6469720D01*
X27900033Y-6467228D01*
X27897725Y-6466458D01*
X27892831Y-6463378D01*
X27702355Y-6368140D01*
X27674892Y-6357630D01*
X27669514Y-6357247D01*
X27664537Y-6355186D01*
X27635273Y-6352304D01*
X27349558Y-6352304D01*
X27320294Y-6355186D01*
X27315315Y-6357248D01*
X27309940Y-6357630D01*
X27282476Y-6368140D01*
X27185982Y-6416386D01*
X27147180Y-6377584D01*
X27093108Y-6355186D01*
X27034580Y-6355186D01*
X26980508Y-6377584D01*
X26939124Y-6418968D01*
X26916726Y-6473040D01*
X26913844Y-6502304D01*
X26110845Y-6502304D01*
X25888623Y-5835638D01*
X31390035Y-5835638D01*
X31390035Y-7549923D01*
X31392917Y-7579187D01*
X31394979Y-7584165D01*
X31395361Y-7589541D01*
X31405871Y-7617005D01*
X31501109Y-7807482D01*
X31504189Y-7812376D01*
X31504959Y-7814684D01*
X31507451Y-7817558D01*
X31516774Y-7832368D01*
X31530983Y-7844691D01*
X31543305Y-7858899D01*
X31558110Y-7868218D01*
X31560989Y-7870715D01*
X31563300Y-7871485D01*
X31568191Y-7874564D01*
X31758667Y-7969802D01*
X31786131Y-7980312D01*
X31844511Y-7984460D01*
X31900033Y-7965953D01*
X31944248Y-7927606D01*
X31970423Y-7875257D01*
X31974571Y-7816877D01*
X31956064Y-7761354D01*
X31917717Y-7717139D01*
X31892831Y-7701474D01*
X31747075Y-7628596D01*
X31690035Y-7514513D01*
X31690035Y-6502304D01*
X32437654Y-6502304D01*
X32437654Y-7835638D01*
X32440536Y-7864902D01*
X32462934Y-7918974D01*
X32504318Y-7960358D01*
X32558390Y-7982756D01*
X32616918Y-7982756D01*
X32670990Y-7960358D01*
X32712374Y-7918974D01*
X32734772Y-7864902D01*
X32737654Y-7835638D01*
X32737654Y-6502304D01*
X32734772Y-6473040D01*
X33107203Y-6473040D01*
X33107203Y-6531568D01*
X33129601Y-6585640D01*
X33170985Y-6627024D01*
X33225057Y-6649422D01*
X33254321Y-6652304D01*
X33390035Y-6652304D01*
X33390035Y-7835638D01*
X33392917Y-7864902D01*
X33415315Y-7918974D01*
X33456699Y-7960358D01*
X33510771Y-7982756D01*
X33569299Y-7982756D01*
X33623371Y-7960358D01*
X33664755Y-7918974D01*
X33687153Y-7864902D01*
X33690035Y-7835638D01*
X33690035Y-6652304D01*
X34016225Y-6652304D01*
X34045489Y-6649422D01*
X34099561Y-6627024D01*
X34140945Y-6585640D01*
X34163343Y-6531568D01*
X34163343Y-6502304D01*
X34532892Y-6502304D01*
X34532892Y-7835638D01*
X34535774Y-7864902D01*
X34558172Y-7918974D01*
X34599556Y-7960358D01*
X34653628Y-7982756D01*
X34712156Y-7982756D01*
X34766228Y-7960358D01*
X34807612Y-7918974D01*
X34830010Y-7864902D01*
X34832892Y-7835638D01*
X34832892Y-6788019D01*
X35390035Y-6788019D01*
X35390035Y-7549923D01*
X35392917Y-7579187D01*
X35394979Y-7584165D01*
X35395361Y-7589541D01*
X35405871Y-7617005D01*
X35501109Y-7807482D01*
X35504189Y-7812376D01*
X35504959Y-7814684D01*
X35507451Y-7817558D01*
X35516774Y-7832368D01*
X35530983Y-7844691D01*
X35543305Y-7858899D01*
X35558110Y-7868218D01*
X35560989Y-7870715D01*
X35563300Y-7871485D01*
X35568191Y-7874564D01*
X35758667Y-7969802D01*
X35786131Y-7980312D01*
X35791506Y-7980693D01*
X35796485Y-7982756D01*
X35825749Y-7985638D01*
X36206702Y-7985638D01*
X36235966Y-7982756D01*
X36240943Y-7980694D01*
X36246321Y-7980312D01*
X36273784Y-7969802D01*
X36464260Y-7874564D01*
X36489146Y-7858899D01*
X36527493Y-7814684D01*
X36546000Y-7759161D01*
X36541852Y-7700781D01*
X36515677Y-7648432D01*
X36471462Y-7610085D01*
X36415940Y-7591578D01*
X36357560Y-7595726D01*
X36330096Y-7606236D01*
X36171292Y-7685638D01*
X35861159Y-7685638D01*
X35747075Y-7628596D01*
X35690035Y-7514513D01*
X35690035Y-7291941D01*
X36521679Y-7125613D01*
X36521680Y-7125613D01*
X36521680Y-7125612D01*
X36521834Y-7125582D01*
X36549964Y-7117017D01*
X36562175Y-7108838D01*
X36575752Y-7103215D01*
X36586254Y-7092712D01*
X36598593Y-7084449D01*
X36606743Y-7072223D01*
X36617136Y-7061831D01*
X36622819Y-7048110D01*
X36631058Y-7035753D01*
X36633909Y-7021336D01*
X36639534Y-7007759D01*
X36642416Y-6978495D01*
X36642416Y-6788019D01*
X36639534Y-6758755D01*
X36637471Y-6753776D01*
X36637090Y-6748401D01*
X36626580Y-6720938D01*
X36531342Y-6530460D01*
X36528263Y-6525569D01*
X36527493Y-6523258D01*
X36524995Y-6520378D01*
X36515677Y-6505575D01*
X36511906Y-6502304D01*
X37199559Y-6502304D01*
X37199559Y-7835638D01*
X37202441Y-7864902D01*
X37224839Y-7918974D01*
X37266223Y-7960358D01*
X37320295Y-7982756D01*
X37378823Y-7982756D01*
X37432895Y-7960358D01*
X37474279Y-7918974D01*
X37496677Y-7864902D01*
X37499559Y-7835638D01*
X37499559Y-7806374D01*
X39773870Y-7806374D01*
X39773870Y-7864902D01*
X39781791Y-7884024D01*
X39796267Y-7918973D01*
X39837653Y-7960359D01*
X39860451Y-7969802D01*
X39891724Y-7982756D01*
X39920988Y-7985638D01*
X41159083Y-7985638D01*
X41188347Y-7982756D01*
X41242419Y-7960358D01*
X41283803Y-7918974D01*
X41306201Y-7864902D01*
X41306201Y-7806374D01*
X41283803Y-7752302D01*
X41242419Y-7710918D01*
X41188347Y-7688520D01*
X41159083Y-7685638D01*
X40283120Y-7685638D01*
X41169911Y-6798846D01*
X41188566Y-6776115D01*
X41190628Y-6771135D01*
X41194159Y-6767065D01*
X41206147Y-6740214D01*
X41281608Y-6513830D01*
X41676194Y-6513830D01*
X41691988Y-6570186D01*
X41707802Y-6594977D01*
X42158796Y-7168971D01*
X41707802Y-7742965D01*
X41691988Y-7767756D01*
X41676194Y-7824112D01*
X41683167Y-7882221D01*
X41711847Y-7933240D01*
X41757868Y-7969400D01*
X41814224Y-7985194D01*
X41872333Y-7978221D01*
X41923352Y-7949541D01*
X41943698Y-7928311D01*
X42349559Y-7411760D01*
X42755421Y-7928312D01*
X42775768Y-7949542D01*
X42826786Y-7978222D01*
X42884895Y-7985195D01*
X42941251Y-7969400D01*
X42987273Y-7933240D01*
X43015953Y-7882221D01*
X43022926Y-7824112D01*
X43007131Y-7767757D01*
X42991317Y-7742965D01*
X42540321Y-7168971D01*
X42991317Y-6594977D01*
X43007131Y-6570185D01*
X43022926Y-6513830D01*
X43015953Y-6455721D01*
X42987273Y-6404702D01*
X42966403Y-6388304D01*
X43391214Y-6388304D01*
X43395362Y-6446685D01*
X43421537Y-6499034D01*
X43465752Y-6537380D01*
X43521274Y-6555888D01*
X43579655Y-6551740D01*
X43607118Y-6541230D01*
X43797594Y-6445992D01*
X43810187Y-6438064D01*
X43813847Y-6436549D01*
X43817966Y-6433167D01*
X43822480Y-6430327D01*
X43825076Y-6427332D01*
X43836578Y-6417894D01*
X43961464Y-6293008D01*
X43961464Y-7685638D01*
X43540036Y-7685638D01*
X43510772Y-7688520D01*
X43456700Y-7710918D01*
X43415316Y-7752302D01*
X43392918Y-7806374D01*
X43392918Y-7864902D01*
X43415316Y-7918974D01*
X43456700Y-7960358D01*
X43510772Y-7982756D01*
X43540036Y-7985638D01*
X44682893Y-7985638D01*
X44712157Y-7982756D01*
X44766229Y-7960358D01*
X44807613Y-7918974D01*
X44830011Y-7864902D01*
X44830011Y-7806374D01*
X44807613Y-7752302D01*
X44766229Y-7710918D01*
X44712157Y-7688520D01*
X44682893Y-7685638D01*
X44261464Y-7685638D01*
X44261464Y-6597542D01*
X45294798Y-6597542D01*
X45294798Y-7073733D01*
X45295300Y-7078836D01*
X45294975Y-7081024D01*
X45296594Y-7091974D01*
X45297680Y-7102997D01*
X45298527Y-7105041D01*
X45299277Y-7110113D01*
X45394515Y-7491065D01*
X45395285Y-7493220D01*
X45395362Y-7494304D01*
X45400029Y-7506500D01*
X45404408Y-7518756D01*
X45405052Y-7519626D01*
X45405872Y-7521767D01*
X45501110Y-7712243D01*
X45509037Y-7724836D01*
X45510553Y-7728496D01*
X45513934Y-7732616D01*
X45516775Y-7737129D01*
X45519768Y-7739725D01*
X45529207Y-7751226D01*
X45624446Y-7846466D01*
X45635948Y-7855906D01*
X45638544Y-7858899D01*
X45643053Y-7861737D01*
X45647176Y-7865121D01*
X45650838Y-7866637D01*
X45663430Y-7874564D01*
X45853906Y-7969802D01*
X45881370Y-7980312D01*
X45886745Y-7980693D01*
X45891724Y-7982756D01*
X45920988Y-7985638D01*
X46111465Y-7985638D01*
X46140729Y-7982756D01*
X46145706Y-7980694D01*
X46151084Y-7980312D01*
X46178547Y-7969802D01*
X46369023Y-7874564D01*
X46381618Y-7866635D01*
X46385277Y-7865120D01*
X46389394Y-7861740D01*
X46393909Y-7858899D01*
X46396506Y-7855904D01*
X46408008Y-7846465D01*
X46503246Y-7751226D01*
X46512684Y-7739724D01*
X46515678Y-7737129D01*
X46518518Y-7732616D01*
X46521901Y-7728495D01*
X46523417Y-7724833D01*
X46531343Y-7712243D01*
X46626581Y-7521767D01*
X46627399Y-7519628D01*
X46628045Y-7518757D01*
X46632429Y-7506483D01*
X46637091Y-7494303D01*
X46637167Y-7493220D01*
X46637938Y-7491065D01*
X46733176Y-7110114D01*
X46733926Y-7105041D01*
X46734773Y-7102997D01*
X46735858Y-7091975D01*
X46737478Y-7081024D01*
X46737152Y-7078836D01*
X46737655Y-7073733D01*
X46737655Y-6597542D01*
X46737152Y-6592438D01*
X46737478Y-6590251D01*
X46735858Y-6579299D01*
X46734773Y-6568278D01*
X46733926Y-6566233D01*
X46733176Y-6561161D01*
X46637938Y-6180210D01*
X46637167Y-6178054D01*
X46637091Y-6176972D01*
X46632429Y-6164791D01*
X46628045Y-6152518D01*
X46627399Y-6151646D01*
X46626581Y-6149508D01*
X46531343Y-5959032D01*
X46523415Y-5946438D01*
X46521900Y-5942779D01*
X46518518Y-5938659D01*
X46515678Y-5934146D01*
X46512684Y-5931549D01*
X46503245Y-5920048D01*
X46424442Y-5841245D01*
X48628237Y-5841245D01*
X48632211Y-5870381D01*
X49108401Y-7870381D01*
X49111862Y-7880424D01*
X49112341Y-7884024D01*
X49114224Y-7887277D01*
X49117983Y-7898182D01*
X49130754Y-7915829D01*
X49141664Y-7934674D01*
X49147779Y-7939355D01*
X49152296Y-7945596D01*
X49170846Y-7957011D01*
X49188139Y-7970248D01*
X49195580Y-7972232D01*
X49202140Y-7976269D01*
X49223647Y-7979717D01*
X49244691Y-7985329D01*
X49252323Y-7984314D01*
X49259929Y-7985534D01*
X49281124Y-7980487D01*
X49302708Y-7977619D01*
X49309370Y-7973761D01*
X49316866Y-7971977D01*
X49334513Y-7959205D01*
X49353358Y-7948296D01*
X49358039Y-7942180D01*
X49364280Y-7937664D01*
X49375695Y-7919113D01*
X49388932Y-7901821D01*
X49392979Y-7891026D01*
X49394953Y-7887820D01*
X49395528Y-7884229D01*
X49399257Y-7874287D01*
X49635274Y-6989221D01*
X49871292Y-7874287D01*
X49875020Y-7884229D01*
X49875596Y-7887820D01*
X49877569Y-7891027D01*
X49881617Y-7901820D01*
X49894851Y-7919110D01*
X49906269Y-7937664D01*
X49912510Y-7942180D01*
X49917191Y-7948296D01*
X49936037Y-7959206D01*
X49953683Y-7971977D01*
X49961176Y-7973761D01*
X49967840Y-7977619D01*
X49989431Y-7980488D01*
X50010620Y-7985533D01*
X50018222Y-7984314D01*
X50025858Y-7985329D01*
X50046905Y-7979716D01*
X50068409Y-7976269D01*
X50074968Y-7972232D01*
X50082410Y-7970248D01*
X50099702Y-7957011D01*
X50118253Y-7945596D01*
X50122769Y-7939355D01*
X50128885Y-7934674D01*
X50139794Y-7915829D01*
X50152566Y-7898182D01*
X50156324Y-7887277D01*
X50158208Y-7884024D01*
X50158686Y-7880424D01*
X50162148Y-7870381D01*
X50638339Y-5870381D01*
X50642313Y-5841245D01*
X50633049Y-5783456D01*
X50602376Y-5733612D01*
X50554962Y-5699299D01*
X50498025Y-5685743D01*
X50440236Y-5695007D01*
X50390392Y-5725681D01*
X50356079Y-5773094D01*
X50346497Y-5800895D01*
X50007993Y-7222606D01*
X49780210Y-6368417D01*
X49777640Y-6361564D01*
X49777257Y-6358679D01*
X49775273Y-6355253D01*
X49769885Y-6340883D01*
X49757854Y-6325166D01*
X49747933Y-6308029D01*
X49740215Y-6302121D01*
X49734311Y-6294408D01*
X49717184Y-6284492D01*
X49701458Y-6272455D01*
X49692066Y-6269950D01*
X49683662Y-6265085D01*
X49664041Y-6262477D01*
X49644906Y-6257375D01*
X49635274Y-6258654D01*
X49625644Y-6257375D01*
X49606515Y-6262476D01*
X49586889Y-6265084D01*
X49578479Y-6269952D01*
X49569092Y-6272456D01*
X49553371Y-6284488D01*
X49536239Y-6294408D01*
X49530332Y-6302123D01*
X49522617Y-6308030D01*
X49512698Y-6325162D01*
X49500665Y-6340883D01*
X49495273Y-6355259D01*
X49493294Y-6358679D01*
X49492911Y-6361559D01*
X49490340Y-6368416D01*
X49262555Y-7222607D01*
X48924053Y-5800895D01*
X48914471Y-5773094D01*
X48880158Y-5725681D01*
X48830314Y-5695007D01*
X48772525Y-5685743D01*
X48715588Y-5699299D01*
X48668175Y-5733612D01*
X48637501Y-5783456D01*
X48628237Y-5841245D01*
X46424442Y-5841245D01*
X46408007Y-5824810D01*
X46396505Y-5815371D01*
X46393909Y-5812377D01*
X46389395Y-5809536D01*
X46385276Y-5806155D01*
X46381616Y-5804639D01*
X46369023Y-5796712D01*
X46178547Y-5701474D01*
X46151084Y-5690964D01*
X46145706Y-5690581D01*
X46140729Y-5688520D01*
X46111465Y-5685638D01*
X45920988Y-5685638D01*
X45891724Y-5688520D01*
X45886745Y-5690582D01*
X45881370Y-5690964D01*
X45853906Y-5701474D01*
X45663430Y-5796712D01*
X45650836Y-5804639D01*
X45647177Y-5806155D01*
X45643057Y-5809536D01*
X45638544Y-5812377D01*
X45635947Y-5815370D01*
X45624446Y-5824810D01*
X45529208Y-5920048D01*
X45519769Y-5931549D01*
X45516775Y-5934146D01*
X45513934Y-5938659D01*
X45510553Y-5942779D01*
X45509037Y-5946438D01*
X45501110Y-5959032D01*
X45405872Y-6149508D01*
X45405052Y-6151648D01*
X45404408Y-6152519D01*
X45400029Y-6164774D01*
X45395362Y-6176971D01*
X45395285Y-6178054D01*
X45394515Y-6180210D01*
X45299277Y-6561162D01*
X45298527Y-6566233D01*
X45297680Y-6568278D01*
X45296594Y-6579300D01*
X45294975Y-6590251D01*
X45295300Y-6592438D01*
X45294798Y-6597542D01*
X44261464Y-6597542D01*
X44261464Y-5835638D01*
X44261453Y-5835533D01*
X44261464Y-5835481D01*
X44261433Y-5835328D01*
X44258582Y-5806374D01*
X44252898Y-5792652D01*
X44249986Y-5778092D01*
X44241809Y-5765882D01*
X44236184Y-5752302D01*
X44225680Y-5741798D01*
X44217419Y-5729462D01*
X44205193Y-5721311D01*
X44194800Y-5710918D01*
X44181077Y-5705233D01*
X44168721Y-5696996D01*
X44154307Y-5694144D01*
X44140728Y-5688520D01*
X44125871Y-5688520D01*
X44111306Y-5685639D01*
X44096900Y-5688520D01*
X44082200Y-5688520D01*
X44068477Y-5694204D01*
X44053917Y-5697116D01*
X44041705Y-5705293D01*
X44028128Y-5710918D01*
X44017626Y-5721419D01*
X44005287Y-5729683D01*
X43986850Y-5752195D01*
X43986744Y-5752302D01*
X43986724Y-5752349D01*
X43986656Y-5752433D01*
X43804418Y-6025790D01*
X43641658Y-6188550D01*
X43472954Y-6272902D01*
X43448068Y-6288567D01*
X43409722Y-6332782D01*
X43391214Y-6388304D01*
X42966403Y-6388304D01*
X42941251Y-6368542D01*
X42884895Y-6352747D01*
X42826786Y-6359720D01*
X42775768Y-6388400D01*
X42755421Y-6409630D01*
X42349559Y-6926181D01*
X41943698Y-6409631D01*
X41923352Y-6388401D01*
X41872333Y-6359721D01*
X41814224Y-6352748D01*
X41757868Y-6368542D01*
X41711847Y-6404702D01*
X41683167Y-6455721D01*
X41676194Y-6513830D01*
X41281608Y-6513830D01*
X41301385Y-6454500D01*
X41304683Y-6439992D01*
X41306201Y-6436330D01*
X41306723Y-6431021D01*
X41307905Y-6425827D01*
X41307624Y-6421877D01*
X41309083Y-6407066D01*
X41309083Y-6216590D01*
X41306201Y-6187326D01*
X41304138Y-6182347D01*
X41303757Y-6176972D01*
X41293247Y-6149508D01*
X41198009Y-5959032D01*
X41190081Y-5946438D01*
X41188566Y-5942779D01*
X41185184Y-5938659D01*
X41182344Y-5934146D01*
X41179350Y-5931549D01*
X41169911Y-5920048D01*
X41074673Y-5824810D01*
X41063171Y-5815371D01*
X41060575Y-5812377D01*
X41056061Y-5809536D01*
X41051942Y-5806155D01*
X41048282Y-5804639D01*
X41035689Y-5796712D01*
X40845213Y-5701474D01*
X40817750Y-5690964D01*
X40812372Y-5690581D01*
X40807395Y-5688520D01*
X40778131Y-5685638D01*
X40301940Y-5685638D01*
X40272676Y-5688520D01*
X40267697Y-5690582D01*
X40262322Y-5690964D01*
X40234858Y-5701474D01*
X40044382Y-5796712D01*
X40031788Y-5804639D01*
X40028129Y-5806155D01*
X40024009Y-5809536D01*
X40019496Y-5812377D01*
X40016899Y-5815370D01*
X40005398Y-5824810D01*
X39910160Y-5920048D01*
X39891505Y-5942779D01*
X39869108Y-5996851D01*
X39869108Y-6055377D01*
X39891505Y-6109449D01*
X39932891Y-6150835D01*
X39986963Y-6173232D01*
X40045489Y-6173232D01*
X40099561Y-6150835D01*
X40122292Y-6132180D01*
X40200318Y-6054154D01*
X40337350Y-5985638D01*
X40742721Y-5985638D01*
X40879753Y-6054154D01*
X40940567Y-6114968D01*
X41009083Y-6252000D01*
X41009083Y-6382726D01*
X40932740Y-6611752D01*
X39814922Y-7729572D01*
X39796267Y-7752303D01*
X39789866Y-7767757D01*
X39773870Y-7806374D01*
X37499559Y-7806374D01*
X37499559Y-6918666D01*
X37568074Y-6781634D01*
X37628889Y-6720820D01*
X37765921Y-6652304D01*
X37920988Y-6652304D01*
X37950252Y-6649422D01*
X38004324Y-6627024D01*
X38045708Y-6585640D01*
X38068106Y-6531568D01*
X38068106Y-6473040D01*
X38045708Y-6418968D01*
X38004324Y-6377584D01*
X37950252Y-6355186D01*
X37920988Y-6352304D01*
X37730511Y-6352304D01*
X37701247Y-6355186D01*
X37696268Y-6357248D01*
X37690893Y-6357630D01*
X37663429Y-6368140D01*
X37489290Y-6455209D01*
X37474279Y-6418968D01*
X37432895Y-6377584D01*
X37378823Y-6355186D01*
X37320295Y-6355186D01*
X37266223Y-6377584D01*
X37224839Y-6418968D01*
X37202441Y-6473040D01*
X37199559Y-6502304D01*
X36511906Y-6502304D01*
X36501472Y-6493255D01*
X36489146Y-6479043D01*
X36474335Y-6469720D01*
X36471462Y-6467228D01*
X36469154Y-6466458D01*
X36464260Y-6463378D01*
X36273784Y-6368140D01*
X36246321Y-6357630D01*
X36240943Y-6357247D01*
X36235966Y-6355186D01*
X36206702Y-6352304D01*
X35825749Y-6352304D01*
X35796485Y-6355186D01*
X35791506Y-6357248D01*
X35786131Y-6357630D01*
X35758667Y-6368140D01*
X35568191Y-6463378D01*
X35563300Y-6466456D01*
X35560989Y-6467227D01*
X35558110Y-6469723D01*
X35543305Y-6479043D01*
X35530983Y-6493250D01*
X35516774Y-6505574D01*
X35507451Y-6520383D01*
X35504959Y-6523258D01*
X35504189Y-6525565D01*
X35501109Y-6530460D01*
X35405871Y-6720937D01*
X35395361Y-6748401D01*
X35394979Y-6753776D01*
X35392917Y-6758755D01*
X35390035Y-6788019D01*
X34832892Y-6788019D01*
X34832892Y-6502304D01*
X34830010Y-6473040D01*
X34807612Y-6418968D01*
X34766228Y-6377584D01*
X34712156Y-6355186D01*
X34653628Y-6355186D01*
X34599556Y-6377584D01*
X34558172Y-6418968D01*
X34535774Y-6473040D01*
X34532892Y-6502304D01*
X34163343Y-6502304D01*
X34163343Y-6473040D01*
X34140945Y-6418968D01*
X34099561Y-6377584D01*
X34045489Y-6355186D01*
X34016225Y-6352304D01*
X33690035Y-6352304D01*
X33690035Y-6156762D01*
X33747076Y-6042679D01*
X33861159Y-5985638D01*
X34016225Y-5985638D01*
X34045489Y-5982756D01*
X34099561Y-5960358D01*
X34140945Y-5918974D01*
X34148136Y-5901613D01*
X34440536Y-5901613D01*
X34440536Y-5960139D01*
X34462933Y-6014211D01*
X34481588Y-6036942D01*
X34576826Y-6132180D01*
X34599556Y-6150834D01*
X34599557Y-6150835D01*
X34628941Y-6163006D01*
X34653628Y-6173232D01*
X34653629Y-6173232D01*
X34712155Y-6173232D01*
X34712156Y-6173232D01*
X34736843Y-6163006D01*
X34766227Y-6150835D01*
X34788958Y-6132180D01*
X34884196Y-6036942D01*
X34902851Y-6014211D01*
X34925248Y-5960139D01*
X34925248Y-5901613D01*
X34902851Y-5847541D01*
X34884196Y-5824810D01*
X34788958Y-5729572D01*
X34766227Y-5710917D01*
X34732618Y-5696996D01*
X34712156Y-5688520D01*
X34653628Y-5688520D01*
X34633166Y-5696996D01*
X34599557Y-5710917D01*
X34576826Y-5729572D01*
X34481588Y-5824810D01*
X34462933Y-5847541D01*
X34440536Y-5901613D01*
X34148136Y-5901613D01*
X34163343Y-5864902D01*
X34163343Y-5806374D01*
X34140945Y-5752302D01*
X34099561Y-5710918D01*
X34045489Y-5688520D01*
X34016225Y-5685638D01*
X33825749Y-5685638D01*
X33796485Y-5688520D01*
X33791506Y-5690582D01*
X33786131Y-5690964D01*
X33758667Y-5701474D01*
X33568191Y-5796712D01*
X33563300Y-5799790D01*
X33560989Y-5800561D01*
X33558110Y-5803057D01*
X33543305Y-5812377D01*
X33530983Y-5826584D01*
X33516774Y-5838908D01*
X33507451Y-5853717D01*
X33504959Y-5856592D01*
X33504189Y-5858899D01*
X33501109Y-5863794D01*
X33405871Y-6054270D01*
X33395361Y-6081733D01*
X33394978Y-6087110D01*
X33392917Y-6092088D01*
X33390035Y-6121352D01*
X33390035Y-6352304D01*
X33254321Y-6352304D01*
X33225057Y-6355186D01*
X33170985Y-6377584D01*
X33129601Y-6418968D01*
X33107203Y-6473040D01*
X32734772Y-6473040D01*
X32712374Y-6418968D01*
X32670990Y-6377584D01*
X32616918Y-6355186D01*
X32558390Y-6355186D01*
X32504318Y-6377584D01*
X32462934Y-6418968D01*
X32440536Y-6473040D01*
X32437654Y-6502304D01*
X31690035Y-6502304D01*
X31690035Y-5901613D01*
X32345298Y-5901613D01*
X32345298Y-5960139D01*
X32367695Y-6014211D01*
X32386350Y-6036942D01*
X32481588Y-6132180D01*
X32504318Y-6150834D01*
X32504319Y-6150835D01*
X32533703Y-6163006D01*
X32558390Y-6173232D01*
X32558391Y-6173232D01*
X32616917Y-6173232D01*
X32616918Y-6173232D01*
X32641605Y-6163006D01*
X32670989Y-6150835D01*
X32693720Y-6132180D01*
X32788958Y-6036942D01*
X32807613Y-6014211D01*
X32830010Y-5960139D01*
X32830010Y-5901613D01*
X32807613Y-5847541D01*
X32788958Y-5824810D01*
X32693720Y-5729572D01*
X32670989Y-5710917D01*
X32637380Y-5696996D01*
X32616918Y-5688520D01*
X32558390Y-5688520D01*
X32537928Y-5696996D01*
X32504319Y-5710917D01*
X32481588Y-5729572D01*
X32386350Y-5824810D01*
X32367695Y-5847541D01*
X32345298Y-5901613D01*
X31690035Y-5901613D01*
X31690035Y-5835638D01*
X31687153Y-5806374D01*
X31664755Y-5752302D01*
X31623371Y-5710918D01*
X31569299Y-5688520D01*
X31510771Y-5688520D01*
X31456699Y-5710918D01*
X31415315Y-5752302D01*
X31392917Y-5806374D01*
X31390035Y-5835638D01*
X25888623Y-5835638D01*
X25872812Y-5788204D01*
X25860824Y-5761353D01*
X25853801Y-5753256D01*
X25849009Y-5743671D01*
X25834800Y-5731347D01*
X25822477Y-5717139D01*
X25812891Y-5712346D01*
X25804795Y-5705324D01*
X25786951Y-5699375D01*
X25770130Y-5690965D01*
X25759441Y-5690205D01*
X25749271Y-5686815D01*
X25730505Y-5688148D01*
X25711749Y-5686816D01*
X25701582Y-5690204D01*
X25690890Y-5690965D01*
X25674066Y-5699376D01*
X25656225Y-5705324D01*
X25648128Y-5712346D01*
X25638543Y-5717139D01*
X25626219Y-5731347D01*
X25612011Y-5743671D01*
X25607218Y-5753256D01*
X25600196Y-5761353D01*
X25588208Y-5788204D01*
X24921541Y-7788204D01*
X24915022Y-7816878D01*
X24692800Y-7816878D01*
X24692800Y-4596990D01*
X24915022Y-4596990D01*
X24919171Y-4655370D01*
X24945345Y-4707717D01*
X24989559Y-4746064D01*
X25045084Y-4764572D01*
X25103464Y-4760423D01*
X25155811Y-4734249D01*
X25194158Y-4690035D01*
X25206147Y-4663184D01*
X25362435Y-4194321D01*
X26098586Y-4194321D01*
X26254874Y-4663184D01*
X26266863Y-4690035D01*
X26305210Y-4734249D01*
X26357557Y-4760423D01*
X26415937Y-4764572D01*
X26471462Y-4746064D01*
X26515676Y-4707716D01*
X26541850Y-4655369D01*
X26545999Y-4596989D01*
X26539479Y-4568316D01*
X26110845Y-3282416D01*
X26913844Y-3282416D01*
X26913844Y-4330035D01*
X26916726Y-4359299D01*
X26918788Y-4364277D01*
X26919170Y-4369653D01*
X26929680Y-4397117D01*
X27024918Y-4587594D01*
X27027998Y-4592488D01*
X27028768Y-4594796D01*
X27031260Y-4597670D01*
X27040583Y-4612480D01*
X27054792Y-4624803D01*
X27067114Y-4639011D01*
X27081919Y-4648330D01*
X27084798Y-4650827D01*
X27087109Y-4651597D01*
X27092000Y-4654676D01*
X27282476Y-4749914D01*
X27309940Y-4760424D01*
X27315315Y-4760805D01*
X27320294Y-4762868D01*
X27349558Y-4765750D01*
X27635273Y-4765750D01*
X27664537Y-4762868D01*
X27669514Y-4760806D01*
X27674892Y-4760424D01*
X27702355Y-4749914D01*
X27798848Y-4701667D01*
X27837651Y-4740470D01*
X27891723Y-4762868D01*
X27950251Y-4762868D01*
X28004323Y-4740470D01*
X28045707Y-4699086D01*
X28068105Y-4645014D01*
X28070987Y-4615750D01*
X28070987Y-3663369D01*
X28628130Y-3663369D01*
X28628130Y-4234797D01*
X28631012Y-4264061D01*
X28633073Y-4269038D01*
X28633456Y-4274416D01*
X28643966Y-4301879D01*
X28739204Y-4492355D01*
X28747131Y-4504948D01*
X28748647Y-4508608D01*
X28752028Y-4512728D01*
X28754869Y-4517241D01*
X28757862Y-4519837D01*
X28767301Y-4531338D01*
X28862540Y-4626578D01*
X28874042Y-4636018D01*
X28876638Y-4639011D01*
X28881147Y-4641849D01*
X28885270Y-4645233D01*
X28888932Y-4646749D01*
X28901524Y-4654676D01*
X29092000Y-4749914D01*
X29119464Y-4760424D01*
X29124839Y-4760805D01*
X29129818Y-4762868D01*
X29159082Y-4765750D01*
X29540035Y-4765750D01*
X29569299Y-4762868D01*
X29574276Y-4760806D01*
X29579654Y-4760424D01*
X29607117Y-4749914D01*
X29640118Y-4733413D01*
X29647175Y-4740470D01*
X29701247Y-4762868D01*
X29759775Y-4762868D01*
X29813847Y-4740470D01*
X29855231Y-4699086D01*
X29877629Y-4645014D01*
X29880511Y-4615750D01*
X29880511Y-3282416D01*
X30532892Y-3282416D01*
X30532892Y-4615750D01*
X30535774Y-4645014D01*
X30558172Y-4699086D01*
X30599556Y-4740470D01*
X30653628Y-4762868D01*
X30712156Y-4762868D01*
X30766228Y-4740470D01*
X30807612Y-4699086D01*
X30830010Y-4645014D01*
X30832892Y-4615750D01*
X30832892Y-3663369D01*
X31390035Y-3663369D01*
X31390035Y-4234797D01*
X31392917Y-4264061D01*
X31394978Y-4269038D01*
X31395361Y-4274416D01*
X31405871Y-4301879D01*
X31501109Y-4492355D01*
X31509036Y-4504948D01*
X31510552Y-4508608D01*
X31513933Y-4512728D01*
X31516774Y-4517241D01*
X31519767Y-4519837D01*
X31529206Y-4531338D01*
X31624445Y-4626578D01*
X31635947Y-4636018D01*
X31638543Y-4639011D01*
X31643052Y-4641849D01*
X31647175Y-4645233D01*
X31650837Y-4646749D01*
X31663429Y-4654676D01*
X31853905Y-4749914D01*
X31881369Y-4760424D01*
X31886744Y-4760805D01*
X31891723Y-4762868D01*
X31920987Y-4765750D01*
X32206702Y-4765750D01*
X32235966Y-4762868D01*
X32240943Y-4760806D01*
X32246321Y-4760424D01*
X32273784Y-4749914D01*
X32464260Y-4654676D01*
X32476855Y-4646747D01*
X32480514Y-4645232D01*
X32484631Y-4641852D01*
X32489146Y-4639011D01*
X32491743Y-4636016D01*
X32503245Y-4626577D01*
X32598483Y-4531338D01*
X32607921Y-4519836D01*
X32610915Y-4517241D01*
X32613755Y-4512728D01*
X32617138Y-4508607D01*
X32618654Y-4504945D01*
X32626580Y-4492355D01*
X32721818Y-4301879D01*
X32732328Y-4274415D01*
X32732709Y-4269039D01*
X32734772Y-4264061D01*
X32737654Y-4234797D01*
X32737654Y-3663369D01*
X32734772Y-3634105D01*
X32732709Y-3629126D01*
X32732328Y-3623751D01*
X32721818Y-3596288D01*
X32626580Y-3405810D01*
X32618653Y-3393218D01*
X32617137Y-3389557D01*
X32613753Y-3385434D01*
X32610915Y-3380925D01*
X32607923Y-3378330D01*
X32598482Y-3366826D01*
X32503244Y-3271588D01*
X32491742Y-3262149D01*
X32489146Y-3259155D01*
X32484632Y-3256314D01*
X32480513Y-3252933D01*
X32476853Y-3251417D01*
X32464260Y-3243490D01*
X32273784Y-3148252D01*
X32246321Y-3137742D01*
X32240943Y-3137359D01*
X32235966Y-3135298D01*
X32206702Y-3132416D01*
X31920987Y-3132416D01*
X31891723Y-3135298D01*
X31886744Y-3137360D01*
X31881369Y-3137742D01*
X31853905Y-3148252D01*
X31663429Y-3243490D01*
X31650835Y-3251417D01*
X31647176Y-3252933D01*
X31643056Y-3256314D01*
X31638543Y-3259155D01*
X31635946Y-3262148D01*
X31624445Y-3271588D01*
X31529207Y-3366826D01*
X31519768Y-3378327D01*
X31516774Y-3380924D01*
X31513933Y-3385437D01*
X31510552Y-3389557D01*
X31509036Y-3393216D01*
X31501109Y-3405810D01*
X31405871Y-3596287D01*
X31395361Y-3623751D01*
X31394979Y-3629126D01*
X31392917Y-3634105D01*
X31390035Y-3663369D01*
X30832892Y-3663369D01*
X30832892Y-3282416D01*
X30830010Y-3253152D01*
X30807612Y-3199080D01*
X30766228Y-3157696D01*
X30712156Y-3135298D01*
X30653628Y-3135298D01*
X30599556Y-3157696D01*
X30558172Y-3199080D01*
X30535774Y-3253152D01*
X30532892Y-3282416D01*
X29880511Y-3282416D01*
X29880511Y-2681725D01*
X30440536Y-2681725D01*
X30440536Y-2740251D01*
X30462933Y-2794323D01*
X30481588Y-2817054D01*
X30576826Y-2912292D01*
X30599556Y-2930946D01*
X30599557Y-2930947D01*
X30631231Y-2944066D01*
X30653628Y-2953344D01*
X30653629Y-2953344D01*
X30712155Y-2953344D01*
X30712156Y-2953344D01*
X30734553Y-2944066D01*
X30766227Y-2930947D01*
X30788958Y-2912292D01*
X30884196Y-2817054D01*
X30902851Y-2794323D01*
X30925248Y-2740251D01*
X30925248Y-2681725D01*
X30902851Y-2627653D01*
X30893082Y-2615750D01*
X34818607Y-2615750D01*
X34818607Y-4615750D01*
X34821489Y-4645014D01*
X34843887Y-4699086D01*
X34885271Y-4740470D01*
X34939343Y-4762868D01*
X34997871Y-4762868D01*
X35051943Y-4740470D01*
X35093327Y-4699086D01*
X35115725Y-4645014D01*
X35118607Y-4615750D01*
X35118607Y-3282416D01*
X35770988Y-3282416D01*
X35770988Y-4615750D01*
X35773870Y-4645014D01*
X35796268Y-4699086D01*
X35837652Y-4740470D01*
X35891724Y-4762868D01*
X35950252Y-4762868D01*
X36004324Y-4740470D01*
X36045708Y-4699086D01*
X36068106Y-4645014D01*
X36070988Y-4615750D01*
X36070988Y-3535024D01*
X36105080Y-3500932D01*
X36242112Y-3432416D01*
X36457007Y-3432416D01*
X36571089Y-3489457D01*
X36628131Y-3603540D01*
X36628131Y-4615750D01*
X36631013Y-4645014D01*
X36653411Y-4699086D01*
X36694795Y-4740470D01*
X36748867Y-4762868D01*
X36807395Y-4762868D01*
X36861467Y-4740470D01*
X36902851Y-4699086D01*
X36925249Y-4645014D01*
X36928131Y-4615750D01*
X36928131Y-3568131D01*
X36925249Y-3538867D01*
X36923186Y-3533888D01*
X36922805Y-3528513D01*
X36912295Y-3501050D01*
X36817057Y-3310572D01*
X36813978Y-3305681D01*
X36813208Y-3303370D01*
X36810710Y-3300490D01*
X36801392Y-3285687D01*
X36787187Y-3273367D01*
X36774861Y-3259155D01*
X36765324Y-3253152D01*
X37297680Y-3253152D01*
X37297680Y-3311680D01*
X37320078Y-3365752D01*
X37361462Y-3407136D01*
X37415534Y-3429534D01*
X37444798Y-3432416D01*
X37580512Y-3432416D01*
X37580512Y-4330035D01*
X37583394Y-4359299D01*
X37585456Y-4364277D01*
X37585838Y-4369653D01*
X37596348Y-4397117D01*
X37691586Y-4587594D01*
X37694666Y-4592488D01*
X37695436Y-4594796D01*
X37697928Y-4597670D01*
X37707251Y-4612480D01*
X37721460Y-4624803D01*
X37733782Y-4639011D01*
X37748587Y-4648330D01*
X37751466Y-4650827D01*
X37753777Y-4651597D01*
X37758668Y-4654676D01*
X37949144Y-4749914D01*
X37976608Y-4760424D01*
X37981983Y-4760805D01*
X37986962Y-4762868D01*
X38016226Y-4765750D01*
X38206702Y-4765750D01*
X38235966Y-4762868D01*
X38290038Y-4740470D01*
X38331422Y-4699086D01*
X38353820Y-4645014D01*
X38353820Y-4586486D01*
X38331422Y-4532414D01*
X38290038Y-4491030D01*
X38235966Y-4468632D01*
X38206702Y-4465750D01*
X38051636Y-4465750D01*
X37937552Y-4408708D01*
X37880512Y-4294625D01*
X37880512Y-3568131D01*
X38628131Y-3568131D01*
X38628131Y-4330035D01*
X38631013Y-4359299D01*
X38633075Y-4364277D01*
X38633457Y-4369653D01*
X38643967Y-4397117D01*
X38739205Y-4587594D01*
X38742285Y-4592488D01*
X38743055Y-4594796D01*
X38745547Y-4597670D01*
X38754870Y-4612480D01*
X38769079Y-4624803D01*
X38781401Y-4639011D01*
X38796206Y-4648330D01*
X38799085Y-4650827D01*
X38801396Y-4651597D01*
X38806287Y-4654676D01*
X38996763Y-4749914D01*
X39024227Y-4760424D01*
X39029602Y-4760805D01*
X39034581Y-4762868D01*
X39063845Y-4765750D01*
X39444798Y-4765750D01*
X39474062Y-4762868D01*
X39479039Y-4760806D01*
X39484417Y-4760424D01*
X39511880Y-4749914D01*
X39702356Y-4654676D01*
X39727242Y-4639011D01*
X39765589Y-4594796D01*
X39784096Y-4539273D01*
X39779948Y-4480893D01*
X39753773Y-4428544D01*
X39709558Y-4390197D01*
X39654036Y-4371690D01*
X39595656Y-4375838D01*
X39568192Y-4386348D01*
X39409388Y-4465750D01*
X39099255Y-4465750D01*
X38985171Y-4408708D01*
X38928131Y-4294625D01*
X38928131Y-4072053D01*
X39759775Y-3905725D01*
X39759776Y-3905725D01*
X39759776Y-3905724D01*
X39759930Y-3905694D01*
X39788060Y-3897129D01*
X39800271Y-3888950D01*
X39813848Y-3883327D01*
X39824350Y-3872824D01*
X39836689Y-3864561D01*
X39844839Y-3852335D01*
X39855232Y-3841943D01*
X39860915Y-3828222D01*
X39869154Y-3815865D01*
X39872005Y-3801448D01*
X39877630Y-3787871D01*
X39880512Y-3758607D01*
X39880512Y-3568131D01*
X39877630Y-3538867D01*
X39875567Y-3533888D01*
X39875186Y-3528513D01*
X39864676Y-3501050D01*
X39769438Y-3310572D01*
X39766359Y-3305681D01*
X39765589Y-3303370D01*
X39763091Y-3300490D01*
X39753773Y-3285687D01*
X39750002Y-3282416D01*
X40437655Y-3282416D01*
X40437655Y-4615750D01*
X40440537Y-4645014D01*
X40462935Y-4699086D01*
X40504319Y-4740470D01*
X40558391Y-4762868D01*
X40616919Y-4762868D01*
X40670991Y-4740470D01*
X40712375Y-4699086D01*
X40734773Y-4645014D01*
X40737655Y-4615750D01*
X40737655Y-3698778D01*
X40806170Y-3561746D01*
X40866985Y-3500932D01*
X41004017Y-3432416D01*
X41159084Y-3432416D01*
X41188348Y-3429534D01*
X41242420Y-3407136D01*
X41283804Y-3365752D01*
X41306202Y-3311680D01*
X41306202Y-3253152D01*
X41392918Y-3253152D01*
X41392918Y-3311680D01*
X41415316Y-3365752D01*
X41456700Y-3407136D01*
X41510772Y-3429534D01*
X41540036Y-3432416D01*
X41675750Y-3432416D01*
X41675750Y-4615750D01*
X41678632Y-4645014D01*
X41701030Y-4699086D01*
X41742414Y-4740470D01*
X41796486Y-4762868D01*
X41855014Y-4762868D01*
X41909086Y-4740470D01*
X41950470Y-4699086D01*
X41972868Y-4645014D01*
X41975750Y-4615750D01*
X41975750Y-4139559D01*
X42723369Y-4139559D01*
X42723369Y-4330035D01*
X42726251Y-4359299D01*
X42728313Y-4364277D01*
X42728695Y-4369653D01*
X42739205Y-4397117D01*
X42834443Y-4587594D01*
X42837523Y-4592488D01*
X42838293Y-4594796D01*
X42840785Y-4597670D01*
X42850108Y-4612480D01*
X42864317Y-4624803D01*
X42876639Y-4639011D01*
X42891444Y-4648330D01*
X42894323Y-4650827D01*
X42896634Y-4651597D01*
X42901525Y-4654676D01*
X43092001Y-4749914D01*
X43119465Y-4760424D01*
X43124840Y-4760805D01*
X43129819Y-4762868D01*
X43159083Y-4765750D01*
X43635274Y-4765750D01*
X43664538Y-4762868D01*
X43669515Y-4760806D01*
X43674893Y-4760424D01*
X43702356Y-4749914D01*
X43735357Y-4733413D01*
X43742414Y-4740470D01*
X43796486Y-4762868D01*
X43855014Y-4762868D01*
X43909086Y-4740470D01*
X43950470Y-4699086D01*
X43972868Y-4645014D01*
X43975750Y-4615750D01*
X43975750Y-3663369D01*
X44532893Y-3663369D01*
X44532893Y-4234797D01*
X44535775Y-4264061D01*
X44537836Y-4269038D01*
X44538219Y-4274416D01*
X44548729Y-4301879D01*
X44643967Y-4492355D01*
X44651894Y-4504948D01*
X44653410Y-4508608D01*
X44656791Y-4512728D01*
X44659632Y-4517241D01*
X44662625Y-4519837D01*
X44672064Y-4531338D01*
X44767303Y-4626578D01*
X44778805Y-4636018D01*
X44781401Y-4639011D01*
X44785910Y-4641849D01*
X44790033Y-4645233D01*
X44793695Y-4646749D01*
X44806287Y-4654676D01*
X44996763Y-4749914D01*
X45024227Y-4760424D01*
X45029602Y-4760805D01*
X45034581Y-4762868D01*
X45063845Y-4765750D01*
X45444798Y-4765750D01*
X45474062Y-4762868D01*
X45479039Y-4760806D01*
X45484417Y-4760424D01*
X45511880Y-4749914D01*
X45702356Y-4654676D01*
X45727242Y-4639011D01*
X45765589Y-4594796D01*
X45784096Y-4539273D01*
X45779948Y-4480893D01*
X45753773Y-4428544D01*
X45709558Y-4390197D01*
X45654036Y-4371690D01*
X45595656Y-4375838D01*
X45568192Y-4386348D01*
X45409388Y-4465750D01*
X45099255Y-4465750D01*
X44962223Y-4397234D01*
X44901409Y-4336419D01*
X44832893Y-4199387D01*
X44832893Y-3698778D01*
X44898216Y-3568131D01*
X46247179Y-3568131D01*
X46247179Y-4330035D01*
X46250061Y-4359299D01*
X46252123Y-4364277D01*
X46252505Y-4369653D01*
X46263015Y-4397117D01*
X46358253Y-4587594D01*
X46361333Y-4592488D01*
X46362103Y-4594796D01*
X46364595Y-4597670D01*
X46373918Y-4612480D01*
X46388127Y-4624803D01*
X46400449Y-4639011D01*
X46415254Y-4648330D01*
X46418133Y-4650827D01*
X46420444Y-4651597D01*
X46425335Y-4654676D01*
X46615811Y-4749914D01*
X46643275Y-4760424D01*
X46648650Y-4760805D01*
X46653629Y-4762868D01*
X46682893Y-4765750D01*
X47063846Y-4765750D01*
X47093110Y-4762868D01*
X47098087Y-4760806D01*
X47103465Y-4760424D01*
X47130928Y-4749914D01*
X47321404Y-4654676D01*
X47346290Y-4639011D01*
X47384637Y-4594796D01*
X47403144Y-4539273D01*
X47398996Y-4480893D01*
X47372821Y-4428544D01*
X47328606Y-4390197D01*
X47273084Y-4371690D01*
X47214704Y-4375838D01*
X47187240Y-4386348D01*
X47028436Y-4465750D01*
X46718303Y-4465750D01*
X46604219Y-4408708D01*
X46547179Y-4294625D01*
X46547179Y-4072053D01*
X47378823Y-3905725D01*
X47378824Y-3905725D01*
X47378824Y-3905724D01*
X47378978Y-3905694D01*
X47407108Y-3897129D01*
X47419319Y-3888950D01*
X47432896Y-3883327D01*
X47443398Y-3872824D01*
X47455737Y-3864561D01*
X47463887Y-3852335D01*
X47474280Y-3841943D01*
X47479963Y-3828222D01*
X47488202Y-3815865D01*
X47491053Y-3801448D01*
X47496678Y-3787871D01*
X47499560Y-3758607D01*
X47499560Y-3568131D01*
X47496678Y-3538867D01*
X47494615Y-3533888D01*
X47494234Y-3528513D01*
X47483724Y-3501050D01*
X47388486Y-3310572D01*
X47385407Y-3305681D01*
X47384637Y-3303370D01*
X47382139Y-3300490D01*
X47372821Y-3285687D01*
X47358616Y-3273367D01*
X47346290Y-3259155D01*
X47331479Y-3249832D01*
X47328606Y-3247340D01*
X47326298Y-3246570D01*
X47321404Y-3243490D01*
X47130928Y-3148252D01*
X47103465Y-3137742D01*
X47098087Y-3137359D01*
X47093110Y-3135298D01*
X47063846Y-3132416D01*
X46682893Y-3132416D01*
X46653629Y-3135298D01*
X46648650Y-3137360D01*
X46643275Y-3137742D01*
X46615811Y-3148252D01*
X46425335Y-3243490D01*
X46420444Y-3246568D01*
X46418133Y-3247339D01*
X46415254Y-3249835D01*
X46400449Y-3259155D01*
X46388127Y-3273362D01*
X46373918Y-3285686D01*
X46364595Y-3300495D01*
X46362103Y-3303370D01*
X46361333Y-3305677D01*
X46358253Y-3310572D01*
X46263015Y-3501049D01*
X46252505Y-3528513D01*
X46252123Y-3533888D01*
X46250061Y-3538867D01*
X46247179Y-3568131D01*
X44898216Y-3568131D01*
X44901408Y-3561746D01*
X44962223Y-3500932D01*
X45099255Y-3432416D01*
X45409388Y-3432416D01*
X45568192Y-3511818D01*
X45595656Y-3522328D01*
X45654036Y-3526476D01*
X45709558Y-3507969D01*
X45753773Y-3469622D01*
X45779948Y-3417273D01*
X45784096Y-3358893D01*
X45765589Y-3303370D01*
X45727242Y-3259155D01*
X45702356Y-3243490D01*
X45511880Y-3148252D01*
X45484417Y-3137742D01*
X45479039Y-3137359D01*
X45474062Y-3135298D01*
X45444798Y-3132416D01*
X45063845Y-3132416D01*
X45034581Y-3135298D01*
X45029602Y-3137360D01*
X45024227Y-3137742D01*
X44996763Y-3148252D01*
X44806287Y-3243490D01*
X44793693Y-3251417D01*
X44790034Y-3252933D01*
X44785914Y-3256314D01*
X44781401Y-3259155D01*
X44778804Y-3262148D01*
X44767303Y-3271588D01*
X44672065Y-3366826D01*
X44662626Y-3378327D01*
X44659632Y-3380924D01*
X44656791Y-3385437D01*
X44653410Y-3389557D01*
X44651894Y-3393216D01*
X44643967Y-3405810D01*
X44548729Y-3596287D01*
X44538219Y-3623751D01*
X44537837Y-3629126D01*
X44535775Y-3634105D01*
X44532893Y-3663369D01*
X43975750Y-3663369D01*
X43975750Y-3568131D01*
X43972868Y-3538867D01*
X43970805Y-3533888D01*
X43970424Y-3528513D01*
X43959914Y-3501050D01*
X43864676Y-3310572D01*
X43861597Y-3305681D01*
X43860827Y-3303370D01*
X43858329Y-3300490D01*
X43849011Y-3285687D01*
X43834806Y-3273367D01*
X43822480Y-3259155D01*
X43807669Y-3249832D01*
X43804796Y-3247340D01*
X43802488Y-3246570D01*
X43797594Y-3243490D01*
X43607118Y-3148252D01*
X43579655Y-3137742D01*
X43574277Y-3137359D01*
X43569300Y-3135298D01*
X43540036Y-3132416D01*
X43159083Y-3132416D01*
X43129819Y-3135298D01*
X43124840Y-3137360D01*
X43119465Y-3137742D01*
X43092001Y-3148252D01*
X42901525Y-3243490D01*
X42876639Y-3259155D01*
X42838293Y-3303370D01*
X42819785Y-3358892D01*
X42823933Y-3417273D01*
X42850108Y-3469622D01*
X42894323Y-3507968D01*
X42949845Y-3526476D01*
X43008226Y-3522328D01*
X43035689Y-3511818D01*
X43194493Y-3432416D01*
X43504626Y-3432416D01*
X43618708Y-3489457D01*
X43675750Y-3603540D01*
X43675750Y-3665902D01*
X43599864Y-3703845D01*
X43159083Y-3703845D01*
X43129819Y-3706727D01*
X43124840Y-3708789D01*
X43119465Y-3709171D01*
X43092001Y-3719681D01*
X42901525Y-3814919D01*
X42896634Y-3817997D01*
X42894323Y-3818768D01*
X42891444Y-3821264D01*
X42876639Y-3830584D01*
X42864317Y-3844791D01*
X42850108Y-3857115D01*
X42840785Y-3871924D01*
X42838293Y-3874799D01*
X42837523Y-3877106D01*
X42834443Y-3882001D01*
X42739205Y-4072477D01*
X42728695Y-4099940D01*
X42728312Y-4105317D01*
X42726251Y-4110295D01*
X42723369Y-4139559D01*
X41975750Y-4139559D01*
X41975750Y-3432416D01*
X42301940Y-3432416D01*
X42331204Y-3429534D01*
X42385276Y-3407136D01*
X42426660Y-3365752D01*
X42449058Y-3311680D01*
X42449058Y-3253152D01*
X42426660Y-3199080D01*
X42385276Y-3157696D01*
X42331204Y-3135298D01*
X42301940Y-3132416D01*
X41975750Y-3132416D01*
X41975750Y-2936874D01*
X42032791Y-2822791D01*
X42146874Y-2765750D01*
X42301940Y-2765750D01*
X42331204Y-2762868D01*
X42385276Y-2740470D01*
X42426660Y-2699086D01*
X42449058Y-2645014D01*
X42449058Y-2586486D01*
X42426660Y-2532414D01*
X42385276Y-2491030D01*
X42331204Y-2468632D01*
X42301940Y-2465750D01*
X42111464Y-2465750D01*
X42082200Y-2468632D01*
X42077221Y-2470694D01*
X42071846Y-2471076D01*
X42044382Y-2481586D01*
X41853906Y-2576824D01*
X41849015Y-2579902D01*
X41846704Y-2580673D01*
X41843825Y-2583169D01*
X41829020Y-2592489D01*
X41816698Y-2606696D01*
X41802489Y-2619020D01*
X41793166Y-2633829D01*
X41790674Y-2636704D01*
X41789904Y-2639011D01*
X41786824Y-2643906D01*
X41691586Y-2834382D01*
X41681076Y-2861845D01*
X41680693Y-2867222D01*
X41678632Y-2872200D01*
X41675750Y-2901464D01*
X41675750Y-3132416D01*
X41540036Y-3132416D01*
X41510772Y-3135298D01*
X41456700Y-3157696D01*
X41415316Y-3199080D01*
X41392918Y-3253152D01*
X41306202Y-3253152D01*
X41283804Y-3199080D01*
X41242420Y-3157696D01*
X41188348Y-3135298D01*
X41159084Y-3132416D01*
X40968607Y-3132416D01*
X40939343Y-3135298D01*
X40934364Y-3137360D01*
X40928989Y-3137742D01*
X40901525Y-3148252D01*
X40727386Y-3235321D01*
X40712375Y-3199080D01*
X40670991Y-3157696D01*
X40616919Y-3135298D01*
X40558391Y-3135298D01*
X40504319Y-3157696D01*
X40462935Y-3199080D01*
X40440537Y-3253152D01*
X40437655Y-3282416D01*
X39750002Y-3282416D01*
X39739568Y-3273367D01*
X39727242Y-3259155D01*
X39712431Y-3249832D01*
X39709558Y-3247340D01*
X39707250Y-3246570D01*
X39702356Y-3243490D01*
X39511880Y-3148252D01*
X39484417Y-3137742D01*
X39479039Y-3137359D01*
X39474062Y-3135298D01*
X39444798Y-3132416D01*
X39063845Y-3132416D01*
X39034581Y-3135298D01*
X39029602Y-3137360D01*
X39024227Y-3137742D01*
X38996763Y-3148252D01*
X38806287Y-3243490D01*
X38801396Y-3246568D01*
X38799085Y-3247339D01*
X38796206Y-3249835D01*
X38781401Y-3259155D01*
X38769079Y-3273362D01*
X38754870Y-3285686D01*
X38745547Y-3300495D01*
X38743055Y-3303370D01*
X38742285Y-3305677D01*
X38739205Y-3310572D01*
X38643967Y-3501049D01*
X38633457Y-3528513D01*
X38633075Y-3533888D01*
X38631013Y-3538867D01*
X38628131Y-3568131D01*
X37880512Y-3568131D01*
X37880512Y-3432416D01*
X38206702Y-3432416D01*
X38235966Y-3429534D01*
X38290038Y-3407136D01*
X38331422Y-3365752D01*
X38353820Y-3311680D01*
X38353820Y-3253152D01*
X38331422Y-3199080D01*
X38290038Y-3157696D01*
X38235966Y-3135298D01*
X38206702Y-3132416D01*
X37880512Y-3132416D01*
X37880512Y-2615750D01*
X37877630Y-2586486D01*
X37855232Y-2532414D01*
X37813848Y-2491030D01*
X37759776Y-2468632D01*
X37701248Y-2468632D01*
X37647176Y-2491030D01*
X37605792Y-2532414D01*
X37583394Y-2586486D01*
X37580512Y-2615750D01*
X37580512Y-3132416D01*
X37444798Y-3132416D01*
X37415534Y-3135298D01*
X37361462Y-3157696D01*
X37320078Y-3199080D01*
X37297680Y-3253152D01*
X36765324Y-3253152D01*
X36760050Y-3249832D01*
X36757177Y-3247340D01*
X36754869Y-3246570D01*
X36749975Y-3243490D01*
X36559499Y-3148252D01*
X36532036Y-3137742D01*
X36526658Y-3137359D01*
X36521681Y-3135298D01*
X36492417Y-3132416D01*
X36206702Y-3132416D01*
X36177438Y-3135298D01*
X36172459Y-3137360D01*
X36167084Y-3137742D01*
X36139620Y-3148252D01*
X36043126Y-3196498D01*
X36004324Y-3157696D01*
X35950252Y-3135298D01*
X35891724Y-3135298D01*
X35837652Y-3157696D01*
X35796268Y-3199080D01*
X35773870Y-3253152D01*
X35770988Y-3282416D01*
X35118607Y-3282416D01*
X35118607Y-2615750D01*
X35115725Y-2586486D01*
X35093327Y-2532414D01*
X35051943Y-2491030D01*
X34997871Y-2468632D01*
X34939343Y-2468632D01*
X34885271Y-2491030D01*
X34843887Y-2532414D01*
X34821489Y-2586486D01*
X34818607Y-2615750D01*
X30893082Y-2615750D01*
X30884196Y-2604922D01*
X30788958Y-2509684D01*
X30766227Y-2491029D01*
X30734553Y-2477909D01*
X30712156Y-2468632D01*
X30653628Y-2468632D01*
X30631231Y-2477909D01*
X30599557Y-2491029D01*
X30576826Y-2509684D01*
X30481588Y-2604922D01*
X30462933Y-2627653D01*
X30440536Y-2681725D01*
X29880511Y-2681725D01*
X29880511Y-2615750D01*
X29877629Y-2586486D01*
X29855231Y-2532414D01*
X29813847Y-2491030D01*
X29759775Y-2468632D01*
X29701247Y-2468632D01*
X29647175Y-2491030D01*
X29605791Y-2532414D01*
X29583393Y-2586486D01*
X29580511Y-2615750D01*
X29580511Y-3138069D01*
X29579654Y-3137742D01*
X29574276Y-3137359D01*
X29569299Y-3135298D01*
X29540035Y-3132416D01*
X29159082Y-3132416D01*
X29129818Y-3135298D01*
X29124839Y-3137360D01*
X29119464Y-3137742D01*
X29092000Y-3148252D01*
X28901524Y-3243490D01*
X28888930Y-3251417D01*
X28885271Y-3252933D01*
X28881151Y-3256314D01*
X28876638Y-3259155D01*
X28874041Y-3262148D01*
X28862540Y-3271588D01*
X28767302Y-3366826D01*
X28757863Y-3378327D01*
X28754869Y-3380924D01*
X28752028Y-3385437D01*
X28748647Y-3389557D01*
X28747131Y-3393216D01*
X28739204Y-3405810D01*
X28643966Y-3596287D01*
X28633456Y-3623751D01*
X28633074Y-3629126D01*
X28631012Y-3634105D01*
X28628130Y-3663369D01*
X28070987Y-3663369D01*
X28070987Y-3282416D01*
X28068105Y-3253152D01*
X28045707Y-3199080D01*
X28004323Y-3157696D01*
X27950251Y-3135298D01*
X27891723Y-3135298D01*
X27837651Y-3157696D01*
X27796267Y-3199080D01*
X27773869Y-3253152D01*
X27770987Y-3282416D01*
X27770987Y-4363141D01*
X27736894Y-4397234D01*
X27599863Y-4465750D01*
X27384968Y-4465750D01*
X27270884Y-4408708D01*
X27213844Y-4294625D01*
X27213844Y-3282416D01*
X27210962Y-3253152D01*
X27188564Y-3199080D01*
X27147180Y-3157696D01*
X27093108Y-3135298D01*
X27034580Y-3135298D01*
X26980508Y-3157696D01*
X26939124Y-3199080D01*
X26916726Y-3253152D01*
X26913844Y-3282416D01*
X26110845Y-3282416D01*
X25872812Y-2568316D01*
X25860824Y-2541465D01*
X25853801Y-2533368D01*
X25849009Y-2523783D01*
X25834800Y-2511459D01*
X25822477Y-2497251D01*
X25812891Y-2492458D01*
X25804795Y-2485436D01*
X25786951Y-2479487D01*
X25770130Y-2471077D01*
X25759441Y-2470317D01*
X25749271Y-2466927D01*
X25730505Y-2468260D01*
X25711749Y-2466928D01*
X25701582Y-2470316D01*
X25690890Y-2471077D01*
X25674066Y-2479488D01*
X25656225Y-2485436D01*
X25648128Y-2492458D01*
X25638543Y-2497251D01*
X25626219Y-2511459D01*
X25612011Y-2523783D01*
X25607218Y-2533368D01*
X25600196Y-2541465D01*
X25588208Y-2568316D01*
X24921541Y-4568316D01*
X24915022Y-4596990D01*
X24692800Y-4596990D01*
X24692800Y-2243528D01*
X50864535Y-2243528D01*
X50864535Y-8871644D01*
G37*
D12*
X8694380Y18592182D02*
X8694380Y17564087D01*
X8694380Y17564087D02*
X8754857Y17443135D01*
X8754857Y17443135D02*
X8815333Y17382658D01*
X8815333Y17382658D02*
X8936285Y17322182D01*
X8936285Y17322182D02*
X9178190Y17322182D01*
X9178190Y17322182D02*
X9299142Y17382658D01*
X9299142Y17382658D02*
X9359619Y17443135D01*
X9359619Y17443135D02*
X9420095Y17564087D01*
X9420095Y17564087D02*
X9420095Y18592182D01*
X9903904Y18592182D02*
X10690095Y18592182D01*
X10690095Y18592182D02*
X10266761Y18108373D01*
X10266761Y18108373D02*
X10448190Y18108373D01*
X10448190Y18108373D02*
X10569142Y18047897D01*
X10569142Y18047897D02*
X10629618Y17987420D01*
X10629618Y17987420D02*
X10690095Y17866468D01*
X10690095Y17866468D02*
X10690095Y17564087D01*
X10690095Y17564087D02*
X10629618Y17443135D01*
X10629618Y17443135D02*
X10569142Y17382658D01*
X10569142Y17382658D02*
X10448190Y17322182D01*
X10448190Y17322182D02*
X10085333Y17322182D01*
X10085333Y17322182D02*
X9964380Y17382658D01*
X9964380Y17382658D02*
X9903904Y17443135D01*
D13*
%TO.C,U5*%
X22695000Y25026202D02*
X21220000Y25026202D01*
%TO.C,U4*%
X22653000Y-196000D02*
X21178000Y-196000D01*
D14*
%TO.C,G\u002A\u002A\u002A*%
G36*
X7803671Y47006848D02*
G01*
X8471121Y46865450D01*
X8847796Y46738528D01*
X9056406Y46661605D01*
X9211411Y46619504D01*
X9356026Y46606965D01*
X9533464Y46618727D01*
X9684752Y46636648D01*
X9968074Y46625343D01*
X10210931Y46525354D01*
X10398620Y46349746D01*
X10516435Y46111581D01*
X10550661Y45867296D01*
X10578803Y45632947D01*
X10672815Y45395678D01*
X10704335Y45337143D01*
X10796788Y45145802D01*
X10867748Y44952108D01*
X10891983Y44852504D01*
X10947761Y44593004D01*
X11014479Y44433712D01*
X11091232Y44376473D01*
X11122314Y44381656D01*
X11274685Y44427375D01*
X11458558Y44463085D01*
X11641091Y44484928D01*
X11789440Y44489043D01*
X11870760Y44471573D01*
X11872724Y44469822D01*
X11907725Y44405725D01*
X11864841Y44352013D01*
X11735222Y44303568D01*
X11510016Y44255276D01*
X11497647Y44253052D01*
X11292242Y44210184D01*
X11175530Y44163739D01*
X11131714Y44100232D01*
X11144997Y44006177D01*
X11159788Y43964648D01*
X11223072Y43907034D01*
X11365669Y43883048D01*
X11431006Y43881637D01*
X11695363Y43869552D01*
X11946367Y43836669D01*
X12167211Y43788046D01*
X12341090Y43728742D01*
X12451197Y43663813D01*
X12480729Y43598318D01*
X12463984Y43570744D01*
X12389114Y43546504D01*
X12237775Y43556895D01*
X12044149Y43592540D01*
X11816793Y43633166D01*
X11590341Y43661521D01*
X11435811Y43670808D01*
X11282059Y43663806D01*
X11201940Y43632688D01*
X11164728Y43564545D01*
X11162376Y43555933D01*
X11142913Y43463285D01*
X11143135Y43433858D01*
X11194206Y43414510D01*
X11317891Y43369652D01*
X11487871Y43308825D01*
X11495289Y43306184D01*
X11743688Y43208245D01*
X11976232Y43099541D01*
X12173470Y42991024D01*
X12315955Y42893642D01*
X12384238Y42818345D01*
X12387438Y42803898D01*
X12355169Y42716405D01*
X12258390Y42711673D01*
X12097145Y42789704D01*
X12087634Y42795625D01*
X11951623Y42870689D01*
X11768143Y42958783D01*
X11565787Y43047799D01*
X11373146Y43125634D01*
X11218812Y43180181D01*
X11133949Y43199405D01*
X11071750Y43162894D01*
X11016068Y43081283D01*
X10988264Y42996456D01*
X11007266Y42950992D01*
X11116533Y42896025D01*
X11283668Y42790606D01*
X11485732Y42651266D01*
X11699788Y42494540D01*
X11902899Y42336958D01*
X12072128Y42195053D01*
X12130140Y42141655D01*
X12340061Y41928588D01*
X12467287Y41770862D01*
X12514947Y41663397D01*
X12486169Y41601112D01*
X12468379Y41592376D01*
X12379804Y41613788D01*
X12243557Y41726259D01*
X12156766Y41817757D01*
X11924482Y42045060D01*
X11633950Y42283781D01*
X11323544Y42504345D01*
X11063150Y42660616D01*
X10844197Y42777818D01*
X10724605Y42665468D01*
X10605013Y42553117D01*
X11001056Y42138583D01*
X11159778Y41965159D01*
X11284176Y41815204D01*
X11360088Y41706727D01*
X11376246Y41661418D01*
X11316724Y41590871D01*
X11220474Y41613960D01*
X11092914Y41728198D01*
X11011308Y41829064D01*
X10871754Y41997966D01*
X10721173Y42153368D01*
X10635912Y42227114D01*
X10454231Y42365688D01*
X10180262Y42168861D01*
X9906293Y41972035D01*
X9940161Y41470534D01*
X9955573Y41268883D01*
X9974968Y41085250D01*
X10001961Y40901954D01*
X10040169Y40701315D01*
X10093206Y40465653D01*
X10164688Y40177288D01*
X10258230Y39818539D01*
X10343175Y39499612D01*
X10426501Y39184892D01*
X10486213Y38941504D01*
X10526286Y38739514D01*
X10550693Y38548983D01*
X10563407Y38339978D01*
X10568402Y38082561D01*
X10569564Y37794033D01*
X10562469Y37334438D01*
X10535759Y36952468D01*
X10484182Y36621781D01*
X10402483Y36316032D01*
X10285410Y36008874D01*
X10159549Y35737925D01*
X10074862Y35562125D01*
X10013917Y35428060D01*
X9986955Y35358524D01*
X9986912Y35353707D01*
X10035412Y35324356D01*
X10142078Y35260137D01*
X10191354Y35230513D01*
X10385409Y35087582D01*
X10565224Y34909606D01*
X10705694Y34725212D01*
X10781711Y34563026D01*
X10783520Y34555329D01*
X10786439Y34352372D01*
X10714783Y34174506D01*
X10594636Y34063449D01*
X10492131Y34037109D01*
X10293559Y34013712D01*
X10007788Y33993978D01*
X9643685Y33978629D01*
X9501522Y33974483D01*
X9132195Y33966535D01*
X8848872Y33965236D01*
X8632755Y33971478D01*
X8465046Y33986151D01*
X8326949Y34010149D01*
X8231837Y34034704D01*
X7879176Y34102988D01*
X7518874Y34112859D01*
X7191072Y34064408D01*
X7087025Y34032075D01*
X7010247Y34008573D01*
X6912877Y33989363D01*
X6783794Y33973927D01*
X6611878Y33961746D01*
X6386010Y33952302D01*
X6095070Y33945077D01*
X5727939Y33939552D01*
X5273496Y33935209D01*
X4961612Y33933002D01*
X4485758Y33931320D01*
X4007997Y33932180D01*
X3547234Y33935366D01*
X3122373Y33940661D01*
X2752321Y33947850D01*
X2455982Y33956716D01*
X2311405Y33963301D01*
X1798024Y33999186D01*
X1374083Y34046887D01*
X1024327Y34110826D01*
X733498Y34195422D01*
X486340Y34305097D01*
X267595Y34444273D01*
X65497Y34614099D01*
X-227555Y34958472D01*
X-442695Y35364397D01*
X-577272Y35820269D01*
X-616264Y36195438D01*
X-204520Y36195438D01*
X-126829Y35764828D01*
X34187Y35373394D01*
X271189Y35041771D01*
X432534Y34870435D01*
X532343Y34776393D01*
X569092Y34760656D01*
X541254Y34824235D01*
X500066Y34890019D01*
X351418Y35128794D01*
X249598Y35328242D01*
X175201Y35530460D01*
X129782Y35693338D01*
X67648Y36091517D01*
X65603Y36533261D01*
X121359Y36977722D01*
X138254Y37040858D01*
X1923746Y37040858D01*
X1963741Y36857958D01*
X2056058Y36638825D01*
X2190616Y36403296D01*
X2357332Y36171209D01*
X2546126Y35962402D01*
X2570434Y35939246D01*
X2805255Y35744664D01*
X3065992Y35581453D01*
X3366436Y35444937D01*
X3720375Y35330440D01*
X4141597Y35233287D01*
X4643891Y35148801D01*
X5066570Y35092816D01*
X5341004Y35056845D01*
X5593763Y35018837D01*
X5797955Y34983153D01*
X5926689Y34954153D01*
X5932479Y34952392D01*
X6141994Y34858873D01*
X6336354Y34724972D01*
X6480574Y34577033D01*
X6521765Y34508666D01*
X6590894Y34414500D01*
X6698061Y34386601D01*
X6863988Y34415953D01*
X6963410Y34472038D01*
X6963595Y34558798D01*
X6864943Y34673922D01*
X6811508Y34717181D01*
X6602928Y34848065D01*
X6339606Y34961535D01*
X6010825Y35060462D01*
X5605867Y35147716D01*
X5114014Y35226168D01*
X4725455Y35275833D01*
X4172613Y35358342D01*
X3717831Y35464303D01*
X3356617Y35594816D01*
X3288424Y35627353D01*
X3080206Y35754587D01*
X2859876Y35925478D01*
X2656146Y36114262D01*
X2497727Y36295176D01*
X2433686Y36394335D01*
X2394241Y36480750D01*
X2399078Y36511796D01*
X2457781Y36483929D01*
X2579932Y36393606D01*
X2705000Y36293997D01*
X2851333Y36186615D01*
X3021419Y36077258D01*
X3190984Y35979487D01*
X3335752Y35906865D01*
X3431449Y35872952D01*
X3454142Y35875476D01*
X3450541Y35938586D01*
X3399600Y36061696D01*
X3315151Y36219519D01*
X3211025Y36386765D01*
X3101055Y36538145D01*
X3073422Y36571539D01*
X2909742Y36735434D01*
X2714910Y36889181D01*
X2507957Y37022716D01*
X2307916Y37125974D01*
X2133817Y37188889D01*
X2004695Y37201398D01*
X1946153Y37167686D01*
X1923746Y37040858D01*
X138254Y37040858D01*
X222905Y37357203D01*
X347771Y37646325D01*
X521230Y37965187D01*
X719304Y38274215D01*
X918015Y38533832D01*
X972446Y38594343D01*
X1047690Y38685505D01*
X1067950Y38735439D01*
X1060988Y38738662D01*
X986482Y38698941D01*
X866477Y38591812D01*
X716415Y38435321D01*
X551737Y38247513D01*
X387884Y38046437D01*
X240297Y37850138D01*
X124418Y37676664D01*
X73133Y37584116D01*
X-105615Y37118901D01*
X-197807Y36651402D01*
X-204520Y36195438D01*
X-616264Y36195438D01*
X-628637Y36314484D01*
X-594141Y36835438D01*
X-522629Y37189935D01*
X-354227Y37674150D01*
X-102333Y38126904D01*
X238391Y38554900D01*
X673280Y38964838D01*
X1207674Y39363419D01*
X1209339Y39364542D01*
X1473825Y39553799D01*
X3314681Y39553799D01*
X3319604Y39174451D01*
X3336382Y38865483D01*
X3363650Y38620783D01*
X3408418Y38399715D01*
X3477698Y38161645D01*
X3512532Y38056430D01*
X3673462Y37647731D01*
X3870750Y37252107D01*
X4086039Y36903900D01*
X4227829Y36718207D01*
X4283206Y36658688D01*
X4297778Y36662546D01*
X4269051Y36738414D01*
X4194533Y36894926D01*
X4152064Y36980604D01*
X3991776Y37341930D01*
X3862287Y37713070D01*
X3772247Y38064376D01*
X3730306Y38366204D01*
X3728347Y38432753D01*
X3737423Y38612632D01*
X3763595Y38690191D01*
X3805276Y38666392D01*
X3860880Y38542197D01*
X3928822Y38318568D01*
X3931217Y38309650D01*
X4120963Y37749461D01*
X4392428Y37165990D01*
X4733207Y36582394D01*
X5130892Y36021833D01*
X5210563Y35921449D01*
X5356749Y35749695D01*
X5470241Y35645081D01*
X5577166Y35587816D01*
X5686565Y35560877D01*
X5862825Y35521838D01*
X6074941Y35462388D01*
X6187053Y35426127D01*
X6381186Y35361770D01*
X6490441Y35337928D01*
X6528670Y35359496D01*
X6509726Y35431373D01*
X6464782Y35524302D01*
X6269892Y35974799D01*
X6098595Y36500291D01*
X5958553Y37072030D01*
X5857424Y37661270D01*
X5827466Y37916289D01*
X5801086Y38228122D01*
X5795078Y38448885D01*
X5810689Y38590712D01*
X5849169Y38665733D01*
X5906679Y38686182D01*
X5963164Y38676108D01*
X6003675Y38632952D01*
X6035646Y38537311D01*
X6066515Y38369783D01*
X6090397Y38206854D01*
X6189326Y37629405D01*
X6310559Y37152079D01*
X6455636Y36772115D01*
X6626099Y36486750D01*
X6823488Y36293224D01*
X7049345Y36188774D01*
X7228590Y36167174D01*
X7517600Y36218144D01*
X7784713Y36368186D01*
X8026205Y36612998D01*
X8238350Y36948279D01*
X8417423Y37369727D01*
X8500157Y37635577D01*
X8553150Y37844805D01*
X8591860Y38031945D01*
X8608728Y38159921D01*
X8608926Y38169162D01*
X8631357Y38358992D01*
X8700293Y38458190D01*
X8771978Y38476265D01*
X8824752Y38464626D01*
X8854790Y38414796D01*
X8868258Y38304403D01*
X8871322Y38115784D01*
X8836475Y37587462D01*
X8730686Y37011651D01*
X8552078Y36380542D01*
X8298779Y35686328D01*
X8272414Y35620879D01*
X8153724Y35314612D01*
X8080157Y35084342D01*
X8049275Y34912502D01*
X8058640Y34781523D01*
X8105815Y34673838D01*
X8135280Y34632646D01*
X8299751Y34496902D01*
X8524235Y34409436D01*
X8674525Y34387609D01*
X8751751Y34424310D01*
X8766364Y34487835D01*
X8730753Y34601712D01*
X8660215Y34698943D01*
X8592412Y34777889D01*
X8600513Y34819163D01*
X8635930Y34836506D01*
X8742231Y34827366D01*
X8847051Y34740832D01*
X8924942Y34601695D01*
X8942706Y34537632D01*
X8973686Y34437722D01*
X9035690Y34393551D01*
X9163415Y34382946D01*
X9184886Y34382876D01*
X9324165Y34392385D01*
X9385553Y34428852D01*
X9396116Y34479701D01*
X9351299Y34598144D01*
X9239485Y34708584D01*
X9133719Y34763514D01*
X9088114Y34791301D01*
X9138359Y34824770D01*
X9150185Y34829740D01*
X9292181Y34837318D01*
X9436604Y34767070D01*
X9548050Y34639073D01*
X9570052Y34591644D01*
X9632268Y34479787D01*
X9730038Y34438787D01*
X9801216Y34435356D01*
X9924716Y34463460D01*
X9966770Y34535958D01*
X9930535Y34635124D01*
X9819167Y34743233D01*
X9737231Y34794591D01*
X9677346Y34833551D01*
X9701543Y34849840D01*
X9800786Y34853595D01*
X9964458Y34815036D01*
X10100852Y34714782D01*
X10176993Y34580693D01*
X10183306Y34530419D01*
X10219018Y34450902D01*
X10262025Y34435356D01*
X10332470Y34462039D01*
X10328393Y34532646D01*
X10262693Y34633012D01*
X10148266Y34748973D01*
X9998011Y34866366D01*
X9824826Y34971026D01*
X9735809Y35013238D01*
X9530985Y35121298D01*
X9391006Y35250319D01*
X9313030Y35413864D01*
X9294213Y35625500D01*
X9331714Y35898791D01*
X9422690Y36247301D01*
X9455075Y36352938D01*
X9534828Y36627341D01*
X9609067Y36917781D01*
X9666061Y37177029D01*
X9682683Y37269240D01*
X9746373Y37662835D01*
X9807109Y37452918D01*
X9848240Y37274070D01*
X9862739Y37093954D01*
X9848738Y36889120D01*
X9804371Y36636118D01*
X9727770Y36311500D01*
X9710992Y36245893D01*
X9649848Y36003060D01*
X9600215Y35795065D01*
X9567234Y35644227D01*
X9556030Y35573235D01*
X9575970Y35566120D01*
X9625685Y35638094D01*
X9696335Y35770645D01*
X9779082Y35945264D01*
X9865090Y36143441D01*
X9945519Y36346664D01*
X10002486Y36508290D01*
X10079520Y36782504D01*
X10130167Y37066902D01*
X10160953Y37401849D01*
X10167926Y37531637D01*
X10175425Y37827026D01*
X10166946Y38106595D01*
X10139403Y38390325D01*
X10089713Y38698197D01*
X10014789Y39050193D01*
X9911548Y39466294D01*
X9811469Y39840553D01*
X9721103Y40200635D01*
X9639940Y40578065D01*
X9576228Y40931759D01*
X9541959Y41183006D01*
X9480192Y41764684D01*
X9093510Y41641890D01*
X8802481Y41572664D01*
X8471682Y41531650D01*
X8124178Y41517852D01*
X7783031Y41530274D01*
X7471307Y41567923D01*
X7212070Y41629802D01*
X7028382Y41714917D01*
X7005923Y41731961D01*
X6953847Y41793774D01*
X6974793Y41838009D01*
X7076635Y41866882D01*
X7267249Y41882614D01*
X7554510Y41887421D01*
X7557819Y41887422D01*
X8195436Y41919442D01*
X8767479Y42018519D01*
X9292669Y42189176D01*
X9762389Y42420069D01*
X10049944Y42585527D01*
X9788629Y42661618D01*
X9588671Y42740452D01*
X9376313Y42854635D01*
X9284126Y42916078D01*
X9144005Y43013152D01*
X9035610Y43077935D01*
X8993020Y43094447D01*
X8932491Y43059632D01*
X8827601Y42970035D01*
X8743291Y42887772D01*
X8450979Y42661060D01*
X8092714Y42504857D01*
X7686714Y42426974D01*
X7664316Y42425189D01*
X7465928Y42404063D01*
X7330590Y42365773D01*
X7216394Y42293648D01*
X7121448Y42209246D01*
X6986428Y42067009D01*
X6827805Y41878744D01*
X6682720Y41688990D01*
X6555556Y41520350D01*
X6468889Y41429277D01*
X6408806Y41403583D01*
X6374163Y41418752D01*
X6339345Y41486400D01*
X6363180Y41591749D01*
X6450584Y41744023D01*
X6606476Y41952449D01*
X6753165Y42129845D01*
X6882218Y42285872D01*
X6977441Y42408534D01*
X7024263Y42478723D01*
X7026165Y42487833D01*
X6971239Y42520801D01*
X6885944Y42566684D01*
X6799000Y42597546D01*
X6710497Y42582211D01*
X6584366Y42512207D01*
X6544828Y42486552D01*
X6382695Y42365169D01*
X6183961Y42194848D01*
X5971122Y41997366D01*
X5766673Y41794499D01*
X5593113Y41608024D01*
X5472937Y41459716D01*
X5452888Y41429572D01*
X5356431Y41309787D01*
X5269664Y41261441D01*
X5211442Y41289833D01*
X5197769Y41357916D01*
X5236471Y41472784D01*
X5342367Y41635957D01*
X5500143Y41830865D01*
X5694485Y42040938D01*
X5910077Y42249607D01*
X6131606Y42440303D01*
X6340514Y42594313D01*
X6469709Y42688048D01*
X6522276Y42756198D01*
X6514299Y42822384D01*
X6506513Y42838102D01*
X6442078Y42918062D01*
X6401202Y42937009D01*
X6310798Y42910722D01*
X6158483Y42841142D01*
X5970345Y42742186D01*
X5772467Y42627773D01*
X5590935Y42511820D01*
X5546831Y42481145D01*
X5369825Y42374285D01*
X5236257Y42332113D01*
X5159106Y42357055D01*
X5145289Y42406099D01*
X5188362Y42469887D01*
X5304406Y42569103D01*
X5473659Y42690011D01*
X5676358Y42818877D01*
X5892740Y42941966D01*
X5984959Y42989643D01*
X6158656Y43082901D01*
X6294594Y43167923D01*
X6365058Y43227263D01*
X6366822Y43230003D01*
X6439230Y43278076D01*
X6475149Y43274072D01*
X6559248Y43272749D01*
X6708354Y43295792D01*
X6852143Y43328731D01*
X7038577Y43369199D01*
X7223318Y43396136D01*
X7383722Y43408285D01*
X7497147Y43404389D01*
X7540950Y43383189D01*
X7530475Y43366394D01*
X7459415Y43331767D01*
X7315323Y43278184D01*
X7126009Y43215794D01*
X7073905Y43199716D01*
X6885574Y43137872D01*
X6743514Y43082571D01*
X6671549Y43043390D01*
X6667190Y43036264D01*
X6710427Y42979057D01*
X6827480Y42969677D01*
X6999359Y43006923D01*
X7158783Y43067355D01*
X7408460Y43163856D01*
X7579336Y43196875D01*
X7675665Y43167103D01*
X7686862Y43152872D01*
X7684757Y43094063D01*
X7601952Y43027566D01*
X7429435Y42947223D01*
X7328410Y42908000D01*
X7183311Y42850722D01*
X7124715Y42813944D01*
X7139872Y42784030D01*
X7189221Y42759118D01*
X7289609Y42737660D01*
X7411897Y42768242D01*
X7536393Y42828060D01*
X7694242Y42895063D01*
X7820070Y42919197D01*
X7894850Y42901751D01*
X7899554Y42844018D01*
X7873699Y42805189D01*
X7843289Y42741490D01*
X7896143Y42729671D01*
X8024665Y42769074D01*
X8162851Y42830259D01*
X8437779Y43001152D01*
X8651457Y43212781D01*
X8788200Y43446474D01*
X8830875Y43625497D01*
X8826614Y43753342D01*
X8769010Y43832749D01*
X8675149Y43887495D01*
X8491804Y43991654D01*
X8389733Y44087159D01*
X8349585Y44195196D01*
X8346529Y44247284D01*
X8392518Y44414137D01*
X8530259Y44530393D01*
X8759409Y44595804D01*
X8843472Y44605275D01*
X9108608Y44612668D01*
X9295421Y44579446D01*
X9424563Y44499927D01*
X9481615Y44429687D01*
X9532822Y44271684D01*
X9484908Y44120316D01*
X9343446Y43989669D01*
X9297151Y43963456D01*
X9155458Y43857613D01*
X9105701Y43725619D01*
X9145054Y43553177D01*
X9195637Y43450258D01*
X9380708Y43212203D01*
X9627496Y43033468D01*
X9909530Y42927140D01*
X10200341Y42906302D01*
X10275055Y42916676D01*
X10470208Y42953287D01*
X10262425Y43025223D01*
X10077837Y43100930D01*
X9990403Y43169278D01*
X9993226Y43236664D01*
X10011223Y43258232D01*
X10081994Y43285873D01*
X10208641Y43266510D01*
X10316908Y43232944D01*
X10501383Y43181396D01*
X10608556Y43183184D01*
X10652537Y43240066D01*
X10655620Y43275175D01*
X10604450Y43326527D01*
X10455588Y43367488D01*
X10363993Y43381186D01*
X10178988Y43416220D01*
X10094308Y43457024D01*
X10106202Y43495766D01*
X10210923Y43524614D01*
X10404720Y43535734D01*
X10437835Y43535445D01*
X10628516Y43539301D01*
X10730869Y43560543D01*
X10760578Y43601044D01*
X10712017Y43654866D01*
X10576901Y43678279D01*
X10415266Y43685737D01*
X10326680Y43697062D01*
X10279252Y43718052D01*
X10258887Y43736083D01*
X10252224Y43771177D01*
X10317811Y43803154D01*
X10468931Y43837137D01*
X10563781Y43853686D01*
X10710372Y43898790D01*
X10760578Y43967347D01*
X10740765Y44016298D01*
X10664942Y44028954D01*
X10537541Y44015012D01*
X10314504Y43981724D01*
X10433285Y44084979D01*
X10540421Y44167669D01*
X10616962Y44211707D01*
X10642925Y44258890D01*
X10592297Y44341555D01*
X10481811Y44447155D01*
X10328202Y44563141D01*
X10148203Y44676965D01*
X9958546Y44776078D01*
X9775965Y44847933D01*
X9763471Y44851740D01*
X9624799Y44917729D01*
X9515498Y44997657D01*
X9441907Y45049303D01*
X9339856Y45084667D01*
X9186253Y45108470D01*
X8958004Y45125432D01*
X8867718Y45130076D01*
X8521517Y45135300D01*
X8219646Y45117643D01*
X8039865Y45089807D01*
X7845551Y45036781D01*
X7633996Y44963453D01*
X7428784Y44880120D01*
X7253498Y44797081D01*
X7131722Y44724635D01*
X7087025Y44673731D01*
X7045947Y44619764D01*
X6938549Y44531539D01*
X6796791Y44433913D01*
X6601475Y44302864D01*
X6375305Y44142227D01*
X6180159Y43996583D01*
X5869773Y43767573D01*
X5610260Y43603676D01*
X5378845Y43495224D01*
X5152754Y43432550D01*
X4909212Y43405985D01*
X4782385Y43403224D01*
X4538466Y43417375D01*
X4329939Y43470630D01*
X4139513Y43554533D01*
X3833306Y43706303D01*
X3832281Y43439735D01*
X3815898Y43125418D01*
X3772341Y42741937D01*
X3706894Y42319940D01*
X3624836Y41890077D01*
X3531452Y41482998D01*
X3436632Y41143941D01*
X3437002Y41081518D01*
X3511456Y41083224D01*
X3516274Y41084462D01*
X3593917Y41085276D01*
X3620673Y41026415D01*
X3596831Y40896873D01*
X3526477Y40695460D01*
X3411444Y40338097D01*
X3342249Y39967859D01*
X3314681Y39553799D01*
X1473825Y39553799D01*
X1689430Y39708079D01*
X2082547Y40036844D01*
X2402325Y40365966D01*
X2662399Y40710571D01*
X2876407Y41085786D01*
X2993242Y41343557D01*
X3109066Y41639335D01*
X3200172Y41918893D01*
X3269386Y42201089D01*
X3319536Y42504782D01*
X3353450Y42848831D01*
X3373954Y43252095D01*
X3383876Y43733433D01*
X3385554Y43960356D01*
X3387877Y44358984D01*
X3391536Y44667323D01*
X3397726Y44900043D01*
X3398884Y44920104D01*
X3799526Y44920104D01*
X3868095Y44696070D01*
X4037771Y44495968D01*
X4279380Y44336047D01*
X4419363Y44269174D01*
X4491179Y44257787D01*
X4514814Y44300408D01*
X4515537Y44318563D01*
X4480019Y44399411D01*
X4393583Y44502532D01*
X4384339Y44511389D01*
X4300765Y44632355D01*
X4281531Y44695066D01*
X5882949Y44695066D01*
X5885505Y44537628D01*
X5973552Y44668827D01*
X6067377Y44790980D01*
X6192291Y44933168D01*
X6227948Y44970583D01*
X6404346Y45105672D01*
X6575437Y45137380D01*
X6750638Y45065775D01*
X6859810Y44975035D01*
X6966386Y44877762D01*
X7024667Y44849174D01*
X7058073Y44881318D01*
X7067818Y44904388D01*
X7054517Y45000066D01*
X6973317Y45117163D01*
X6850660Y45231087D01*
X6740322Y45300140D01*
X9436433Y45300140D01*
X9448350Y45189059D01*
X9501177Y45164098D01*
X9567712Y45233026D01*
X9580384Y45259022D01*
X9674387Y45369028D01*
X9815448Y45390070D01*
X9995675Y45322605D01*
X10136268Y45226652D01*
X10264894Y45126393D01*
X10355479Y45058444D01*
X10383070Y45040230D01*
X10370407Y45076952D01*
X10318613Y45172745D01*
X10304351Y45197245D01*
X10152378Y45376670D01*
X9953221Y45505605D01*
X9744476Y45560470D01*
X9724343Y45560976D01*
X9558477Y45524399D01*
X9462953Y45410979D01*
X9436433Y45300140D01*
X6740322Y45300140D01*
X6712986Y45317248D01*
X6587556Y45351058D01*
X6349187Y45306419D01*
X6139231Y45186160D01*
X5979697Y45010773D01*
X5892594Y44800746D01*
X5882949Y44695066D01*
X4281531Y44695066D01*
X4255223Y44780839D01*
X4253736Y44918700D01*
X4302326Y45007794D01*
X4305620Y45009942D01*
X4355520Y45078772D01*
X4301731Y45158412D01*
X4213781Y45214137D01*
X4122106Y45269832D01*
X4117458Y45304127D01*
X4162177Y45326722D01*
X4260055Y45344972D01*
X4396085Y45328306D01*
X4598737Y45273125D01*
X4607376Y45270455D01*
X4702376Y45263167D01*
X4720427Y45315027D01*
X4660594Y45412808D01*
X4620496Y45456017D01*
X4462243Y45549045D01*
X4279916Y45558199D01*
X4098193Y45492556D01*
X3941750Y45361191D01*
X3835266Y45173180D01*
X3832975Y45166378D01*
X3799526Y44920104D01*
X3398884Y44920104D01*
X3407641Y45071814D01*
X3422477Y45197306D01*
X3443428Y45291189D01*
X3471688Y45368132D01*
X3505889Y45437936D01*
X3689201Y45695778D01*
X3894914Y45845052D01*
X4858797Y45845052D01*
X4899931Y45781238D01*
X4913066Y45766547D01*
X4978464Y45704415D01*
X5037153Y45702347D01*
X5132050Y45761493D01*
X5148041Y45772853D01*
X5266605Y45845740D01*
X5445271Y45942487D01*
X5648405Y46043925D01*
X5679042Y46058482D01*
X6070581Y46223503D01*
X6446420Y46335520D01*
X6847737Y46404490D01*
X7244463Y46436956D01*
X7787176Y46432653D01*
X8328024Y46368274D01*
X8826079Y46249227D01*
X8932579Y46213870D01*
X9053799Y46176793D01*
X9111018Y46171115D01*
X9106980Y46183071D01*
X9050050Y46216001D01*
X9880402Y46216001D01*
X9914215Y46173080D01*
X9992578Y46104577D01*
X10058549Y46084269D01*
X10078347Y46110162D01*
X10037819Y46150114D01*
X9960269Y46197473D01*
X9880517Y46235956D01*
X9880402Y46216001D01*
X9050050Y46216001D01*
X9016867Y46235195D01*
X8851368Y46303431D01*
X8637047Y46378951D01*
X8400473Y46452932D01*
X8168211Y46516546D01*
X7972638Y46559913D01*
X7457675Y46615002D01*
X6916297Y46602527D01*
X6372967Y46527253D01*
X5852147Y46393942D01*
X5378299Y46207357D01*
X4983780Y45977911D01*
X4883012Y45899445D01*
X4858797Y45845052D01*
X3894914Y45845052D01*
X3929961Y45870484D01*
X4079008Y45931481D01*
X4215314Y45992656D01*
X4397435Y46095332D01*
X4587288Y46217945D01*
X4597810Y46225267D01*
X5188618Y46576093D01*
X5814461Y46830854D01*
X6465487Y46988360D01*
X7131841Y47047422D01*
X7803671Y47006848D01*
G37*
G36*
X7024793Y43605981D02*
G01*
X7162644Y43599106D01*
X7220460Y43591162D01*
X7191983Y43583744D01*
X6808515Y43536170D01*
X6415141Y43472417D01*
X6044041Y43398615D01*
X5727395Y43320894D01*
X5584815Y43277595D01*
X5374876Y43207419D01*
X5245299Y43167434D01*
X5176731Y43155074D01*
X5149820Y43167771D01*
X5145213Y43202956D01*
X5145289Y43219278D01*
X5194786Y43294304D01*
X5331545Y43369819D01*
X5537973Y43441710D01*
X5796474Y43505863D01*
X6089454Y43558164D01*
X6399319Y43594498D01*
X6708473Y43610752D01*
X6819903Y43610841D01*
X7024793Y43605981D01*
G37*
G36*
X8922652Y44956217D02*
G01*
X8950041Y44931223D01*
X8928266Y44895169D01*
X8822471Y44879011D01*
X8802298Y44878744D01*
X8634944Y44860388D01*
X8444133Y44814813D01*
X8399008Y44800025D01*
X8246701Y44747143D01*
X8168797Y44727754D01*
X8140397Y44741371D01*
X8136597Y44787507D01*
X8136612Y44794891D01*
X8183957Y44860789D01*
X8305585Y44917923D01*
X8470882Y44961164D01*
X8649235Y44985381D01*
X8810029Y44985442D01*
X8922652Y44956217D01*
G37*
D13*
%TO.C,U3*%
X11912000Y16404500D02*
X11912000Y18848500D01*
D15*
X11694000Y19912500D02*
X11694000Y19912500D01*
X11594000Y19912500D02*
X11594000Y19912500D01*
D13*
X11162000Y16404500D02*
X11912000Y16404500D01*
X8162000Y16404500D02*
X7412000Y16404500D01*
X7412000Y16404500D02*
X7412000Y18848500D01*
D15*
X11694000Y19912500D02*
G75*
G02*
X11594000Y19912500I-50000J0D01*
G01*
X11594000Y19912500D02*
G75*
G02*
X11694000Y19912500I50000J0D01*
G01*
D16*
%TO.C,Pt1*%
X36434000Y26770000D02*
X62164000Y26770000D01*
X36434000Y-300000D02*
X36434000Y26770000D01*
X62034000Y8990000D02*
X62034000Y-300000D01*
X62034000Y-300000D02*
X36434000Y-300000D01*
X62134000Y26760000D02*
X62134000Y17400000D01*
X62134000Y17400000D02*
X87314000Y17400000D01*
X87314000Y17400000D02*
X87314000Y8990000D01*
X87314000Y8990000D02*
X62034000Y8990000D01*
D17*
%TO.C,J2*%
X34134000Y47844000D02*
X26394000Y47844000D01*
X34134000Y47844000D02*
X34134000Y45244000D01*
X26394000Y47844000D02*
X26394000Y42644000D01*
X34134000Y45244000D02*
X31534000Y45244000D01*
X31534000Y45244000D02*
X31534000Y42644000D01*
X34134000Y43974000D02*
X34134000Y42644000D01*
X34134000Y42644000D02*
X32804000Y42644000D01*
X31534000Y42644000D02*
X26394000Y42644000D01*
D10*
%TO.C,S1*%
X44131000Y54014000D02*
X44131000Y53014000D01*
X44131000Y67014000D02*
X44131000Y66014000D01*
X44131000Y67014000D02*
X43131000Y67014000D01*
X43131000Y53014000D02*
X44131000Y53014000D01*
X31131000Y67014000D02*
X30131000Y67014000D01*
X30131000Y53014000D02*
X31131000Y53014000D01*
X30131000Y53014000D02*
X30131000Y54014000D01*
X30131000Y66014000D02*
X30131000Y67014000D01*
D17*
%TO.C,R8*%
X45632000Y64140359D02*
X45632000Y64447641D01*
X46392000Y64140359D02*
X46392000Y64447641D01*
%TO.C,R6*%
X46392000Y55559641D02*
X46392000Y55252359D01*
X45632000Y55559641D02*
X45632000Y55252359D01*
%TO.C,JP3*%
X30647500Y33828500D02*
X30647500Y31028500D01*
X28647500Y33828500D02*
X30647500Y33828500D01*
X30647500Y31028500D02*
X28647500Y31028500D01*
X28647500Y31028500D02*
X28647500Y33828500D01*
%TO.C,J8*%
X50644000Y54836000D02*
X49314000Y54836000D01*
X50644000Y56166000D02*
X50644000Y54836000D01*
X50644000Y57436000D02*
X50644000Y65116000D01*
X50644000Y57436000D02*
X47984000Y57436000D01*
X50644000Y65116000D02*
X47984000Y65116000D01*
X47984000Y57436000D02*
X47984000Y65116000D01*
%TO.C,J7*%
X29004000Y37371500D02*
X36684000Y37371500D01*
X36684000Y34711500D02*
X36684000Y37371500D01*
X29004000Y34711500D02*
X29004000Y37371500D01*
X29004000Y34711500D02*
X36684000Y34711500D01*
X27734000Y34711500D02*
X26404000Y34711500D01*
X26404000Y34711500D02*
X26404000Y36041500D01*
D15*
%TO.C,D3*%
X36082000Y64802000D02*
G75*
G02*
X35982000Y64802000I-50000J0D01*
G01*
X35982000Y64802000D02*
G75*
G02*
X36082000Y64802000I50000J0D01*
G01*
D17*
%TO.C,C2*%
X46372000Y57515836D02*
X46372000Y57300164D01*
X45652000Y57515836D02*
X45652000Y57300164D01*
%TO.C,C22*%
X24334836Y30237000D02*
X24119164Y30237000D01*
X24334836Y29517000D02*
X24119164Y29517000D01*
D18*
%TO.C,K1*%
X22816000Y20028000D02*
G75*
G02*
X22416000Y20028000I-200000J0D01*
G01*
X22416000Y20028000D02*
G75*
G02*
X22816000Y20028000I200000J0D01*
G01*
D19*
X24216000Y11288000D02*
X24216000Y11778000D01*
X30216000Y11288000D02*
X24216000Y11288000D01*
X30216000Y11288000D02*
X30216000Y11778000D01*
X24216000Y19532000D02*
X24216000Y17397000D01*
X30216000Y19532000D02*
X30216000Y17397000D01*
X24216000Y21288000D02*
X24216000Y20778000D01*
X30216000Y21288000D02*
X30216000Y20778000D01*
X30216000Y21288000D02*
X24216000Y21288000D01*
D17*
%TO.C,C29*%
X20779000Y35357000D02*
X20779000Y37707000D01*
X20779000Y42177000D02*
X20779000Y39827000D01*
X15023437Y35357000D02*
X20779000Y35357000D01*
X15023437Y42177000D02*
X20779000Y42177000D01*
X13959000Y36421437D02*
X15023437Y35357000D01*
X13959000Y36421437D02*
X13959000Y37707000D01*
X13959000Y41112563D02*
X15023437Y42177000D01*
X13959000Y41112563D02*
X13959000Y39827000D01*
X13325250Y41008250D02*
X13325250Y40220750D01*
X12931500Y40614500D02*
X13719000Y40614500D01*
%TO.C,C26*%
X20762000Y17440202D02*
X20762000Y19790202D01*
X20762000Y24260202D02*
X20762000Y21910202D01*
X15006437Y17440202D02*
X20762000Y17440202D01*
X15006437Y24260202D02*
X20762000Y24260202D01*
X13942000Y18504639D02*
X15006437Y17440202D01*
X13942000Y18504639D02*
X13942000Y19790202D01*
X13942000Y23195765D02*
X15006437Y24260202D01*
X13942000Y23195765D02*
X13942000Y21910202D01*
X13308250Y23091452D02*
X13308250Y22303952D01*
X12914500Y22697702D02*
X13702000Y22697702D01*
%TO.C,R20*%
X24380641Y26828000D02*
X24073359Y26828000D01*
X24380641Y26068000D02*
X24073359Y26068000D01*
%TO.C,C19*%
X7298000Y5699836D02*
X7298000Y5484164D01*
X8018000Y5699836D02*
X8018000Y5484164D01*
%TO.C,C6*%
X24247836Y5260000D02*
X24032164Y5260000D01*
X24247836Y5980000D02*
X24032164Y5980000D01*
%TO.C,R9*%
X33173359Y41328000D02*
X33480641Y41328000D01*
X33173359Y42088000D02*
X33480641Y42088000D01*
%TO.C,R15*%
X24323641Y1555000D02*
X24016359Y1555000D01*
X24323641Y795000D02*
X24016359Y795000D01*
%TO.C,Q2*%
X33011500Y24752000D02*
X32681500Y24992000D01*
X33011500Y25232000D01*
X33011500Y24752000D01*
G36*
X33011500Y24752000D02*
G01*
X32681500Y24992000D01*
X33011500Y25232000D01*
X33011500Y24752000D01*
G37*
X29611500Y23829500D02*
X29611500Y23179500D01*
X29611500Y23829500D02*
X29611500Y24479500D01*
X32731500Y23829500D02*
X32731500Y23179500D01*
X32731500Y23829500D02*
X32731500Y24479500D01*
%TO.C,C33*%
X7357000Y30924636D02*
X7357000Y30708964D01*
X8077000Y30924636D02*
X8077000Y30708964D01*
%TO.C,R13*%
X23986359Y9048000D02*
X24293641Y9048000D01*
X23986359Y8288000D02*
X24293641Y8288000D01*
D16*
%TO.C,J4*%
X71248000Y29934000D02*
X66748000Y29934000D01*
X71248000Y40234000D02*
X71248000Y29934000D01*
X71248000Y40234000D02*
X66748000Y40234000D01*
X66748000Y29084000D02*
X66748000Y41084000D01*
X66748000Y29084000D02*
X65658000Y41084000D01*
X66748000Y29084000D02*
X62248000Y29084000D01*
X66748000Y41084000D02*
X62248000Y41084000D01*
X65748000Y29084000D02*
X64658000Y41084000D01*
X64748000Y29084000D02*
X63658000Y41084000D01*
X63748000Y29084000D02*
X62658000Y41084000D01*
X62748000Y29084000D02*
X62248000Y34584000D01*
X62248000Y28084000D02*
X59748000Y28084000D01*
X62248000Y42084000D02*
X62248000Y28084000D01*
X59748000Y30084000D02*
X37248000Y30084000D01*
X59748000Y40084000D02*
X37248000Y40084000D01*
X59748000Y42084000D02*
X62248000Y42084000D01*
X59748000Y42084000D02*
X59748000Y28084000D01*
X37248000Y30084000D02*
X37248000Y40084000D01*
D15*
%TO.C,D1*%
X7577000Y25644500D02*
G75*
G02*
X7477000Y25644500I-50000J0D01*
G01*
X7477000Y25644500D02*
G75*
G02*
X7577000Y25644500I50000J0D01*
G01*
D17*
%TO.C,R2*%
X5099500Y24178742D02*
X5099500Y24653258D01*
X6144500Y24178742D02*
X6144500Y24653258D01*
%TO.C,D4*%
X35219500Y22310000D02*
X35219500Y26320000D01*
X33219500Y22310000D02*
X33219500Y26320000D01*
X33219500Y22310000D02*
X35219500Y22310000D01*
%TO.C,C12*%
X14027164Y9070000D02*
X14242836Y9070000D01*
X14027164Y9790000D02*
X14242836Y9790000D01*
D10*
%TO.C,Q1*%
X196000Y16836000D02*
X196000Y16926000D01*
X6196000Y16836000D02*
X196000Y16836000D01*
X6196000Y16926000D02*
X6196000Y16836000D01*
X196000Y17936000D02*
X196000Y18196000D01*
X6196000Y18196000D02*
X6196000Y17936000D01*
X196000Y19206000D02*
X196000Y19466000D01*
X6196000Y19466000D02*
X6196000Y19206000D01*
X196000Y20476000D02*
X196000Y20736000D01*
X6196000Y20736000D02*
X6196000Y20476000D01*
X196000Y21746000D02*
X196000Y21836000D01*
X196000Y21836000D02*
X6196000Y21836000D01*
X6196000Y21836000D02*
X6196000Y21746000D01*
D13*
X6676000Y16776000D02*
G75*
G02*
X6476000Y16776000I-100000J0D01*
G01*
X6476000Y16776000D02*
G75*
G02*
X6676000Y16776000I100000J0D01*
G01*
D17*
%TO.C,R16*%
X24014359Y-221000D02*
X24321641Y-221000D01*
X24014359Y539000D02*
X24321641Y539000D01*
%TO.C,C28*%
X14046164Y25605404D02*
X14261836Y25605404D01*
X14046164Y26325404D02*
X14261836Y26325404D01*
%TO.C,R19*%
X24073359Y33561000D02*
X24380641Y33561000D01*
X24073359Y34321000D02*
X24380641Y34321000D01*
%TO.C,C9*%
X24032164Y6996000D02*
X24247836Y6996000D01*
X24032164Y6276000D02*
X24247836Y6276000D01*
%TO.C,R18*%
X24073359Y28471202D02*
X24380641Y28471202D01*
X24073359Y29231202D02*
X24380641Y29231202D01*
%TO.C,C11*%
X14027164Y8054000D02*
X14242836Y8054000D01*
X14027164Y8774000D02*
X14242836Y8774000D01*
%TO.C,JP6*%
X27869000Y38930000D02*
X25069000Y38930000D01*
X27869000Y40930000D02*
X27869000Y38930000D01*
X25069000Y38930000D02*
X25069000Y40930000D01*
X25069000Y40930000D02*
X27869000Y40930000D01*
%TO.C,C7*%
X24275836Y4244000D02*
X24060164Y4244000D01*
X24275836Y4964000D02*
X24060164Y4964000D01*
%TO.C,C1*%
X1791000Y26844336D02*
X1791000Y26628664D01*
X1071000Y26844336D02*
X1071000Y26628664D01*
D13*
%TO.C,U2*%
X34145500Y30633500D02*
X34145500Y30233500D01*
X31245500Y30633500D02*
X34145500Y30633500D01*
X34145500Y30233500D02*
X31245500Y30233500D01*
X31245500Y30233500D02*
X31245500Y30633500D01*
X31095500Y28483500D02*
X31095500Y29883500D01*
D17*
%TO.C,C24*%
X14261836Y27316000D02*
X14046164Y27316000D01*
X14261836Y26596000D02*
X14046164Y26596000D01*
%TO.C,R14*%
X24012359Y3968000D02*
X24319641Y3968000D01*
X24012359Y3208000D02*
X24319641Y3208000D01*
%TO.C,D2*%
X24747500Y21892000D02*
X28757500Y21892000D01*
X24747500Y23892000D02*
X28757500Y23892000D01*
X24747500Y23892000D02*
X24747500Y21892000D01*
%TO.C,C20*%
X24334836Y33285000D02*
X24119164Y33285000D01*
X24334836Y32565000D02*
X24119164Y32565000D01*
%TO.C,FB1*%
X11541242Y3736000D02*
X9870758Y3736000D01*
X11541242Y1916000D02*
X9870758Y1916000D01*
%TO.C,C10*%
X20720000Y-7696000D02*
X20720000Y-5346000D01*
X20720000Y-876000D02*
X20720000Y-3226000D01*
X14964437Y-7696000D02*
X20720000Y-7696000D01*
X14964437Y-876000D02*
X20720000Y-876000D01*
X13900000Y-6631563D02*
X14964437Y-7696000D01*
X13900000Y-6631563D02*
X13900000Y-5346000D01*
X13900000Y-1940437D02*
X14964437Y-876000D01*
X13900000Y-1940437D02*
X13900000Y-3226000D01*
X13266250Y-2044750D02*
X13266250Y-2832250D01*
X12872500Y-2438500D02*
X13660000Y-2438500D01*
%TO.C,C5*%
X10574164Y21254500D02*
X10789836Y21254500D01*
X10574164Y20534500D02*
X10789836Y20534500D01*
%TO.C,C18*%
X7298000Y3667836D02*
X7298000Y3452164D01*
X8018000Y3667836D02*
X8018000Y3452164D01*
%TO.C,FB4*%
X9929758Y30618000D02*
X11600242Y30618000D01*
X9929758Y32438000D02*
X11600242Y32438000D01*
%TO.C,FB2*%
X9870758Y5366000D02*
X11541242Y5366000D01*
X9870758Y7186000D02*
X11541242Y7186000D01*
%TO.C,J6*%
X3974000Y29745000D02*
X3974000Y32345000D01*
X6634000Y32345000D02*
X3974000Y32345000D01*
X6634000Y29745000D02*
X3974000Y29745000D01*
X6634000Y29745000D02*
X6634000Y32345000D01*
X6634000Y28475000D02*
X6634000Y27145000D01*
X6634000Y27145000D02*
X5304000Y27145000D01*
%TO.C,J5*%
X3915000Y4599000D02*
X3915000Y7199000D01*
X6575000Y7199000D02*
X3915000Y7199000D01*
X6575000Y4599000D02*
X3915000Y4599000D01*
X6575000Y4599000D02*
X6575000Y7199000D01*
X6575000Y3329000D02*
X6575000Y1999000D01*
X6575000Y1999000D02*
X5245000Y1999000D01*
%TO.C,JP1*%
X34743500Y31028500D02*
X34743500Y33828500D01*
X36743500Y31028500D02*
X34743500Y31028500D01*
X34743500Y33828500D02*
X36743500Y33828500D01*
X36743500Y33828500D02*
X36743500Y31028500D01*
%TO.C,R1*%
X795000Y26890141D02*
X795000Y26582859D01*
X35000Y26890141D02*
X35000Y26582859D01*
%TO.C,JP4*%
X32181000Y40930000D02*
X34981000Y40930000D01*
X32181000Y38930000D02*
X32181000Y40930000D01*
X34981000Y40930000D02*
X34981000Y38930000D01*
X34981000Y38930000D02*
X32181000Y38930000D01*
%TO.C,C14*%
X14027164Y-582000D02*
X14242836Y-582000D01*
X14027164Y138000D02*
X14242836Y138000D01*
%TO.C,FB3*%
X11600242Y29009000D02*
X9929758Y29009000D01*
X11600242Y27189000D02*
X9929758Y27189000D01*
%TO.C,C13*%
X20720000Y10084000D02*
X20720000Y12434000D01*
X20720000Y16904000D02*
X20720000Y14554000D01*
X14964437Y10084000D02*
X20720000Y10084000D01*
X14964437Y16904000D02*
X20720000Y16904000D01*
X13900000Y11148437D02*
X14964437Y10084000D01*
X13900000Y11148437D02*
X13900000Y12434000D01*
X13900000Y15839563D02*
X14964437Y16904000D01*
X13900000Y15839563D02*
X13900000Y14554000D01*
X13266250Y15735250D02*
X13266250Y14947750D01*
X12872500Y15341500D02*
X13660000Y15341500D01*
%TO.C,C8*%
X24247836Y7292000D02*
X24032164Y7292000D01*
X24247836Y8012000D02*
X24032164Y8012000D01*
%TO.C,C31*%
X14086164Y34343000D02*
X14301836Y34343000D01*
X14086164Y35063000D02*
X14301836Y35063000D01*
%TO.C,JP2*%
X28393500Y27218500D02*
X28393500Y30018500D01*
X30393500Y27218500D02*
X28393500Y27218500D01*
X28393500Y30018500D02*
X30393500Y30018500D01*
X30393500Y30018500D02*
X30393500Y27218500D01*
%TO.C,R10*%
X34762000Y42367641D02*
X34762000Y42060359D01*
X35522000Y42367641D02*
X35522000Y42060359D01*
%TO.C,R5*%
X7147000Y22368859D02*
X7147000Y22676141D01*
X7907000Y22368859D02*
X7907000Y22676141D01*
%TO.C,R7*%
X30951859Y25989500D02*
X31259141Y25989500D01*
X30951859Y26749500D02*
X31259141Y26749500D01*
%TO.C,C16*%
X14242836Y7758000D02*
X14027164Y7758000D01*
X14242836Y7038000D02*
X14027164Y7038000D01*
%TO.C,R3*%
X4579359Y22798500D02*
X4886641Y22798500D01*
X4579359Y22038500D02*
X4886641Y22038500D01*
%TO.C,C32*%
X7357000Y28943436D02*
X7357000Y28727764D01*
X8077000Y28943436D02*
X8077000Y28727764D01*
%TO.C,C27*%
X14046164Y24589404D02*
X14261836Y24589404D01*
X14046164Y25309404D02*
X14261836Y25309404D01*
%TO.C,C4*%
X8114836Y20534500D02*
X7899164Y20534500D01*
X8114836Y21254500D02*
X7899164Y21254500D01*
D16*
%TO.C,J3*%
X-914000Y13954000D02*
X2656000Y13954000D01*
X-3164000Y13954000D02*
X-2774000Y13954000D01*
X-6014000Y13954000D02*
X-5024000Y13954000D01*
X-10544000Y13954000D02*
X-9674000Y13954000D01*
X-10544000Y13954000D02*
X-10544000Y7954000D01*
X-11844000Y13704000D02*
X-10544000Y13704000D01*
X-11844000Y8204000D02*
X-11844000Y13704000D01*
X-11844000Y8204000D02*
X-10544000Y8204000D01*
X2656000Y7954000D02*
X2656000Y13954000D01*
X1186000Y7954000D02*
X2656000Y7954000D01*
X-1064000Y7954000D02*
X-674000Y7954000D01*
X-3814000Y7954000D02*
X-2924000Y7954000D01*
X-6914000Y7954000D02*
X-5674000Y7954000D01*
X-10544000Y7954000D02*
X-8774000Y7954000D01*
D17*
%TO.C,C17*%
X14242836Y2170000D02*
X14027164Y2170000D01*
X14242836Y1450000D02*
X14027164Y1450000D01*
%TO.C,JP5*%
X31462000Y38930000D02*
X28662000Y38930000D01*
X31462000Y40930000D02*
X31462000Y38930000D01*
X28662000Y38930000D02*
X28662000Y40930000D01*
X28662000Y40930000D02*
X31462000Y40930000D01*
%TO.C,C25*%
X14301836Y33031000D02*
X14086164Y33031000D01*
X14301836Y32311000D02*
X14086164Y32311000D01*
%TO.C,R17*%
X24073359Y25052000D02*
X24380641Y25052000D01*
X24073359Y25812000D02*
X24380641Y25812000D01*
%TO.C,C15*%
X14027164Y434000D02*
X14242836Y434000D01*
X14027164Y1154000D02*
X14242836Y1154000D01*
%TO.C,R11*%
X29924641Y42088000D02*
X29617359Y42088000D01*
X29924641Y41328000D02*
X29617359Y41328000D01*
%TO.C,C21*%
X24119164Y31549000D02*
X24334836Y31549000D01*
X24119164Y32269000D02*
X24334836Y32269000D01*
D10*
%TO.C,U1*%
X3392000Y25639500D02*
X3392000Y25399500D01*
X242000Y25639500D02*
X3392000Y25639500D01*
X242000Y25399500D02*
X242000Y25639500D01*
X242000Y22739500D02*
X242000Y22489500D01*
X3392000Y22489500D02*
X3392000Y22739500D01*
X242000Y22489500D02*
X3392000Y22489500D01*
X-158000Y25069500D02*
G75*
G02*
X-298000Y25069500I-70000J0D01*
G01*
X-298000Y25069500D02*
G75*
G02*
X-158000Y25069500I70000J0D01*
G01*
D17*
%TO.C,C23*%
X24334836Y31253000D02*
X24119164Y31253000D01*
X24334836Y30533000D02*
X24119164Y30533000D01*
%TO.C,R4*%
X4732000Y24213141D02*
X4732000Y23905859D01*
X3972000Y24213141D02*
X3972000Y23905859D01*
D16*
%TO.C,J1*%
X-6012500Y28823500D02*
X-4192500Y28823500D01*
X-8242500Y28793500D02*
X-10482500Y28793500D01*
X-10482500Y28793500D02*
X-10492500Y19853500D01*
X-10492500Y19853500D02*
X-8242500Y19853500D01*
X-6012500Y19823500D02*
X-4192500Y19823500D01*
D17*
%TO.C,R12*%
X27384641Y42088000D02*
X27077359Y42088000D01*
X27384641Y41328000D02*
X27077359Y41328000D01*
%TO.C,C30*%
X14086164Y33327000D02*
X14301836Y33327000D01*
X14086164Y34047000D02*
X14301836Y34047000D01*
%TD*%
%LPC*%
D20*
%TO.C,U5*%
X21958000Y33401202D03*
X21958000Y25601202D03*
X21958000Y26251202D03*
X21958000Y26901202D03*
X21958000Y27551202D03*
X21958000Y28201202D03*
X21958000Y28851202D03*
X21958000Y29501202D03*
X21958000Y30151202D03*
X21958000Y30801202D03*
X21958000Y31451202D03*
X21958000Y32101202D03*
X21958000Y32751202D03*
X21958000Y34051202D03*
X16082000Y34051202D03*
X16082000Y33401202D03*
X16082000Y32751202D03*
X16082000Y32101202D03*
X16082000Y31451202D03*
X16082000Y30801202D03*
X16082000Y30151202D03*
X16082000Y29501202D03*
X16082000Y28851202D03*
X16082000Y28201202D03*
X16082000Y27551202D03*
X16082000Y26901202D03*
X16082000Y26251202D03*
X16082000Y25601202D03*
D21*
X19850000Y26981404D03*
X19850000Y27929670D03*
X19850000Y28877936D03*
X19850000Y29826202D03*
X19850000Y30774468D03*
X19850000Y31722734D03*
X19850000Y32671000D03*
X19020000Y26981404D03*
X19020000Y27929670D03*
X19020000Y28877936D03*
X19020000Y29826202D03*
D22*
X19020000Y29826202D03*
D21*
X19020000Y30774468D03*
X19020000Y31722734D03*
X19020000Y32671000D03*
X18190000Y26981404D03*
X18190000Y27929670D03*
X18190000Y28877936D03*
X18190000Y29826202D03*
X18190000Y30774468D03*
X18190000Y31722734D03*
X18190000Y32671000D03*
%TD*%
D20*
%TO.C,U4*%
X21916000Y8179000D03*
X21916000Y379000D03*
X21916000Y1029000D03*
X21916000Y1679000D03*
X21916000Y2329000D03*
X21916000Y2979000D03*
X21916000Y3629000D03*
X21916000Y4279000D03*
X21916000Y4929000D03*
X21916000Y5579000D03*
X21916000Y6229000D03*
X21916000Y6879000D03*
X21916000Y7529000D03*
X21916000Y8829000D03*
X16040000Y8829000D03*
X16040000Y8179000D03*
X16040000Y7529000D03*
X16040000Y6879000D03*
X16040000Y6229000D03*
X16040000Y5579000D03*
X16040000Y4929000D03*
X16040000Y4279000D03*
X16040000Y3629000D03*
X16040000Y2979000D03*
X16040000Y2329000D03*
X16040000Y1679000D03*
X16040000Y1029000D03*
X16040000Y379000D03*
D21*
X19808000Y1759202D03*
X19808000Y2707468D03*
X19808000Y3655734D03*
X19808000Y4604000D03*
X19808000Y5552266D03*
X19808000Y6500532D03*
X19808000Y7448798D03*
X18978000Y1759202D03*
X18978000Y2707468D03*
X18978000Y3655734D03*
X18978000Y4604000D03*
D22*
X18978000Y4604000D03*
D21*
X18978000Y5552266D03*
X18978000Y6500532D03*
X18978000Y7448798D03*
X18148000Y1759202D03*
X18148000Y2707468D03*
X18148000Y3655734D03*
X18148000Y4604000D03*
X18148000Y5552266D03*
X18148000Y6500532D03*
X18148000Y7448798D03*
%TD*%
D23*
%TO.C,U3*%
X11162000Y19370500D03*
D24*
X9662000Y19120500D03*
D23*
X8162000Y19370500D03*
D25*
X9662000Y16945500D03*
%TD*%
D26*
%TO.C,H6*%
X55236944Y57830000D03*
X53539888Y58532944D03*
X56934000Y58532944D03*
X52836944Y60230000D03*
D27*
X55236944Y60230000D03*
D26*
X57636944Y60230000D03*
X53539888Y61927056D03*
X56934000Y61927056D03*
X55236944Y62630000D03*
%TD*%
%TO.C,H5*%
X26200000Y57830000D03*
X24502944Y58532944D03*
X27897056Y58532944D03*
X23800000Y60230000D03*
D27*
X26200000Y60230000D03*
D26*
X28600000Y60230000D03*
X24502944Y61927056D03*
X27897056Y61927056D03*
X26200000Y62630000D03*
%TD*%
%TO.C,H4*%
X54788000Y45243998D03*
X55490944Y46941054D03*
X55490944Y43546942D03*
X57188000Y47643998D03*
D27*
X57188000Y45243998D03*
D26*
X57188000Y42843998D03*
X58885056Y46941054D03*
X58885056Y43546942D03*
X59588000Y45243998D03*
%TD*%
%TO.C,H3*%
X54751896Y-4503896D03*
X55454840Y-2806840D03*
X55454840Y-6200952D03*
X57151896Y-2103896D03*
D27*
X57151896Y-4503896D03*
D26*
X57151896Y-6903896D03*
X58848952Y-2806840D03*
X58848952Y-6200952D03*
X59551896Y-4503896D03*
%TD*%
%TO.C,H2*%
X-7442000Y-4540000D03*
X-6739056Y-2842944D03*
X-6739056Y-6237056D03*
X-5042000Y-2140000D03*
D27*
X-5042000Y-4540000D03*
D26*
X-5042000Y-6940000D03*
X-3344944Y-2842944D03*
X-3344944Y-6237056D03*
X-2642000Y-4540000D03*
%TD*%
%TO.C,H1*%
X-7405896Y45207894D03*
X-6702952Y46904950D03*
X-6702952Y43510838D03*
X-5005896Y47607894D03*
D27*
X-5005896Y45207894D03*
D26*
X-5005896Y42807894D03*
X-3308840Y46904950D03*
X-3308840Y43510838D03*
X-2605896Y45207894D03*
%TD*%
D28*
%TO.C,Pt1*%
X46934000Y18160000D03*
X46934000Y13160000D03*
X46934000Y8160000D03*
X56934000Y18160000D03*
X56934000Y13160000D03*
X56934000Y8160000D03*
%TD*%
D29*
%TO.C,J2*%
X32804000Y43974000D03*
D30*
X32804000Y46514000D03*
X30264000Y43974000D03*
X30264000Y46514000D03*
X27724000Y43974000D03*
X27724000Y46514000D03*
%TD*%
D31*
%TO.C,S1*%
X42211000Y60014000D03*
D32*
X40941000Y57474000D03*
D33*
X37131000Y60014000D03*
D32*
X34591000Y54934000D03*
D31*
X32051000Y60014000D03*
%TD*%
D34*
%TO.C,R8*%
X46012000Y63784000D03*
X46012000Y64804000D03*
%TD*%
D35*
%TO.C,R6*%
X46012000Y55916000D03*
X46012000Y54896000D03*
%TD*%
D36*
%TO.C,JP3*%
X29647500Y33153500D03*
D37*
X29647500Y31703500D03*
%TD*%
D38*
%TO.C,J8*%
X49314000Y56166000D03*
D30*
X49314000Y58706000D03*
X49314000Y61246000D03*
X49314000Y63786000D03*
%TD*%
%TO.C,J7*%
X35354000Y36041500D03*
X32814000Y36041500D03*
X30274000Y36041500D03*
D39*
X27734000Y36041500D03*
%TD*%
D40*
%TO.C,D3*%
X36637000Y64802000D03*
X37607000Y64802000D03*
%TD*%
D41*
%TO.C,C2*%
X46012000Y57888000D03*
X46012000Y56928000D03*
%TD*%
D42*
%TO.C,C22*%
X23747000Y29877000D03*
X24707000Y29877000D03*
%TD*%
D43*
%TO.C,K1*%
X30216000Y20088000D03*
X30216000Y16888000D03*
X30216000Y14688000D03*
X30216000Y12488000D03*
X24216000Y12488000D03*
X24216000Y14688000D03*
X24216000Y16888000D03*
X24216000Y20088000D03*
%TD*%
D44*
%TO.C,C29*%
X20069000Y38767000D03*
X14669000Y38767000D03*
%TD*%
%TO.C,C26*%
X20052000Y20850202D03*
X14652000Y20850202D03*
%TD*%
D45*
%TO.C,R20*%
X23717000Y26448000D03*
X24737000Y26448000D03*
%TD*%
D41*
%TO.C,C19*%
X7658000Y5112000D03*
X7658000Y6072000D03*
%TD*%
D42*
%TO.C,C6*%
X24620000Y5620000D03*
X23660000Y5620000D03*
%TD*%
D46*
%TO.C,R9*%
X33837000Y41708000D03*
X32817000Y41708000D03*
%TD*%
D45*
%TO.C,R15*%
X23660000Y1175000D03*
X24680000Y1175000D03*
%TD*%
D47*
%TO.C,Q2*%
X31171500Y22892000D03*
X30221500Y24767000D03*
X32121500Y24767000D03*
%TD*%
D41*
%TO.C,C33*%
X7717000Y30336800D03*
X7717000Y31296800D03*
%TD*%
D46*
%TO.C,R13*%
X23630000Y8668000D03*
X24650000Y8668000D03*
%TD*%
D48*
%TO.C,J4*%
X54648000Y35084000D03*
X47148000Y37584000D03*
X39748000Y37584000D03*
X39748000Y32584000D03*
%TD*%
D49*
%TO.C,D1*%
X7527000Y25039500D03*
X7527000Y24069500D03*
%TD*%
D50*
%TO.C,R2*%
X5622000Y23591000D03*
X5622000Y25241000D03*
%TD*%
D51*
%TO.C,D4*%
X34219500Y26320000D03*
X34219500Y23020000D03*
%TD*%
D52*
%TO.C,C12*%
X14615000Y9430000D03*
X13655000Y9430000D03*
%TD*%
D53*
%TO.C,Q1*%
X5876000Y17426000D03*
X5876000Y18706000D03*
X5876000Y19966000D03*
X5876000Y21236000D03*
D54*
X296000Y17426000D03*
X296000Y18706000D03*
D55*
X2396000Y19336000D03*
D54*
X296000Y19966000D03*
X296000Y21236000D03*
%TD*%
D46*
%TO.C,R16*%
X24678000Y159000D03*
X23658000Y159000D03*
%TD*%
D52*
%TO.C,C28*%
X14634000Y25965404D03*
X13674000Y25965404D03*
%TD*%
D46*
%TO.C,R19*%
X24737000Y33941000D03*
X23717000Y33941000D03*
%TD*%
D52*
%TO.C,C9*%
X23660000Y6636000D03*
X24620000Y6636000D03*
%TD*%
D46*
%TO.C,R18*%
X24737000Y28851202D03*
X23717000Y28851202D03*
%TD*%
D52*
%TO.C,C11*%
X14615000Y8414000D03*
X13655000Y8414000D03*
%TD*%
D56*
%TO.C,JP6*%
X27194000Y39930000D03*
D57*
X25744000Y39930000D03*
%TD*%
D42*
%TO.C,C7*%
X24648000Y4604000D03*
X23688000Y4604000D03*
%TD*%
D41*
%TO.C,C1*%
X1431000Y27216500D03*
X1431000Y26256500D03*
%TD*%
D58*
%TO.C,U2*%
X31745500Y31683500D03*
X32695500Y31683500D03*
X33645500Y31683500D03*
X33645500Y29183500D03*
X32695500Y29183500D03*
X31745500Y29183500D03*
%TD*%
D42*
%TO.C,C24*%
X13674000Y26956000D03*
X14634000Y26956000D03*
%TD*%
D46*
%TO.C,R14*%
X23656000Y3588000D03*
X24676000Y3588000D03*
%TD*%
D59*
%TO.C,D2*%
X28757500Y22892000D03*
X25457500Y22892000D03*
%TD*%
D42*
%TO.C,C20*%
X23747000Y32925000D03*
X24707000Y32925000D03*
%TD*%
D60*
%TO.C,FB1*%
X9131000Y2826000D03*
X12281000Y2826000D03*
%TD*%
D44*
%TO.C,C10*%
X20010000Y-4286000D03*
X14610000Y-4286000D03*
%TD*%
D52*
%TO.C,C5*%
X10202000Y20894500D03*
X11162000Y20894500D03*
%TD*%
D41*
%TO.C,C18*%
X7658000Y3080000D03*
X7658000Y4040000D03*
%TD*%
D61*
%TO.C,FB4*%
X12340000Y31528000D03*
X9190000Y31528000D03*
%TD*%
%TO.C,FB2*%
X12281000Y6276000D03*
X9131000Y6276000D03*
%TD*%
D30*
%TO.C,J6*%
X5304000Y31015000D03*
D38*
X5304000Y28475000D03*
%TD*%
D30*
%TO.C,J5*%
X5245000Y5869000D03*
D38*
X5245000Y3329000D03*
%TD*%
D62*
%TO.C,JP1*%
X35743500Y31703500D03*
D63*
X35743500Y33153500D03*
%TD*%
D35*
%TO.C,R1*%
X415000Y27246500D03*
X415000Y26226500D03*
%TD*%
D64*
%TO.C,JP4*%
X32856000Y39930000D03*
D65*
X34306000Y39930000D03*
%TD*%
D52*
%TO.C,C14*%
X14615000Y-222000D03*
X13655000Y-222000D03*
%TD*%
D60*
%TO.C,FB3*%
X9190000Y28099000D03*
X12340000Y28099000D03*
%TD*%
D44*
%TO.C,C13*%
X20010000Y13494000D03*
X14610000Y13494000D03*
%TD*%
D42*
%TO.C,C8*%
X24620000Y7652000D03*
X23660000Y7652000D03*
%TD*%
D52*
%TO.C,C31*%
X14674000Y34703000D03*
X13714000Y34703000D03*
%TD*%
D62*
%TO.C,JP2*%
X29393500Y27893500D03*
D63*
X29393500Y29343500D03*
%TD*%
D35*
%TO.C,R10*%
X35142000Y41704000D03*
X35142000Y42724000D03*
%TD*%
D34*
%TO.C,R5*%
X7527000Y22012500D03*
X7527000Y23032500D03*
%TD*%
D46*
%TO.C,R7*%
X31615500Y26369500D03*
X30595500Y26369500D03*
%TD*%
D42*
%TO.C,C16*%
X13655000Y7398000D03*
X14615000Y7398000D03*
%TD*%
D46*
%TO.C,R3*%
X4223000Y22418500D03*
X5243000Y22418500D03*
%TD*%
D41*
%TO.C,C32*%
X7717000Y28355600D03*
X7717000Y29315600D03*
%TD*%
D52*
%TO.C,C27*%
X14634000Y24949404D03*
X13674000Y24949404D03*
%TD*%
D42*
%TO.C,C4*%
X8487000Y20894500D03*
X7527000Y20894500D03*
%TD*%
D66*
%TO.C,J3*%
X-8744000Y14354000D03*
X-4094000Y14354000D03*
X256000Y7554000D03*
X-1994000Y7554000D03*
X-1844000Y14354000D03*
X-7844000Y7554000D03*
X-6944000Y14354000D03*
D67*
X-1344000Y10954000D03*
X-8344000Y10954000D03*
D66*
X-4744000Y7554000D03*
%TD*%
D42*
%TO.C,C17*%
X13655000Y1810000D03*
X14615000Y1810000D03*
%TD*%
D56*
%TO.C,JP5*%
X30787000Y39930000D03*
D57*
X29337000Y39930000D03*
%TD*%
D42*
%TO.C,C25*%
X13714000Y32671000D03*
X14674000Y32671000D03*
%TD*%
D46*
%TO.C,R17*%
X24737000Y25432000D03*
X23717000Y25432000D03*
%TD*%
D52*
%TO.C,C15*%
X14615000Y794000D03*
X13655000Y794000D03*
%TD*%
D45*
%TO.C,R11*%
X29261000Y41708000D03*
X30281000Y41708000D03*
%TD*%
D52*
%TO.C,C21*%
X24707000Y31909000D03*
X23747000Y31909000D03*
%TD*%
D68*
%TO.C,U1*%
X402000Y25069500D03*
X402000Y24569500D03*
X402000Y24069500D03*
X402000Y23569500D03*
X402000Y23069500D03*
X3222000Y23069500D03*
X3222000Y23569500D03*
X3222000Y24069500D03*
X3222000Y24569500D03*
X3222000Y25069500D03*
D69*
X1812000Y24069500D03*
%TD*%
D42*
%TO.C,C23*%
X23747000Y30893000D03*
X24707000Y30893000D03*
%TD*%
D35*
%TO.C,R4*%
X4352000Y24569500D03*
X4352000Y23549500D03*
%TD*%
D70*
%TO.C,J1*%
X-3492500Y27213500D03*
X-3492500Y21433500D03*
D71*
X-2962500Y28643500D03*
D72*
X-7142500Y28643500D03*
D71*
X-2962500Y20003500D03*
D72*
X-7142500Y20003500D03*
D73*
X-2002500Y27723500D03*
X-2002500Y27423500D03*
X-2002500Y21223500D03*
X-2002500Y20923500D03*
X-2002500Y26923500D03*
X-2002500Y26623500D03*
X-2002500Y22023500D03*
X-2002500Y21723500D03*
X-2002500Y25573500D03*
X-2002500Y24573500D03*
X-2002500Y24073500D03*
X-2002500Y23073500D03*
X-2002500Y22573500D03*
X-2002500Y23573500D03*
X-2002500Y25073500D03*
X-2002500Y26073500D03*
%TD*%
D45*
%TO.C,R12*%
X26721000Y41708000D03*
X27741000Y41708000D03*
%TD*%
D52*
%TO.C,C30*%
X14674000Y33687000D03*
X13714000Y33687000D03*
%TD*%
%LPD*%
M02*
