M48
; DRILL file {KiCad 8.0.7} date 2024-12-24T17:50:32+0100
; FORMAT={-:-/ absolute / inch / decimal}
; #@! TF.CreationDate,2024-12-24T17:50:32+01:00
; #@! TF.GenerationSoftware,Kicad,Pcbnew,8.0.7
; #@! TF.FileFunction,Plated,1,2,PTH
FMAT,2
INCH
; #@! TA.AperFunction,Plated,PTH,ViaDrill
T1C0.0098
; #@! TA.AperFunction,Plated,PTH,ComponentDrill
T2C0.0118
; #@! TA.AperFunction,Plated,PTH,ComponentDrill
T3C0.0197
; #@! TA.AperFunction,Plated,PTH,ComponentDrill
T4C0.0276
; #@! TA.AperFunction,Plated,PTH,ComponentDrill
T5C0.0295
; #@! TA.AperFunction,Plated,PTH,ComponentDrill
T6C0.0394
; #@! TA.AperFunction,Plated,PTH,ComponentDrill
T7C0.0472
; #@! TA.AperFunction,Plated,PTH,ComponentDrill
T8C0.0512
; #@! TA.AperFunction,Plated,PTH,ComponentDrill
T9C0.1260
%
G90
G05
T1
X-0.1385Y0.9913
X-0.0285Y0.9913
X-0.0285Y0.9448
X-0.0285Y0.9114
X-0.0185Y0.8613
X-0.0149Y1.0727
X0.1817Y0.9118
X0.3115Y0.7313
X0.4215Y1.2413
X0.4215Y1.1113
X0.4215Y0.2513
X0.4215Y0.1113
X0.5315Y0.1113
X0.5333Y0.2494
X0.5679Y1.071
X0.5715Y-0.2087
X0.5752Y0.5313
X0.5769Y0.8209
X0.5815Y1.5713
X0.5915Y1.2894
X0.9415Y1.1213
X0.9415Y0.1213
X0.9415Y0.0813
X0.9515Y1.0913
X0.9715Y1.3613
X0.9715Y0.3613
X1.0115Y1.2913
X1.0315Y0.9113
X1.0515Y1.5113
X1.0565Y0.0063
X1.0715Y1.1213
X1.1215Y1.4913
X1.1315Y0.9913
X1.1615Y1.2213
X1.2115Y1.1513
X1.2215Y1.5113
X1.224Y1.3313
X1.2515Y2.2513
X1.3015Y1.2013
X1.3415Y1.4813
X1.3415Y0.8813
X1.5415Y1.9913
X1.5815Y2.0013
X1.6515Y1.9913
X1.7115Y2.0013
X1.7515Y2.4013
X1.7715Y1.9913
X1.8115Y2.2413
T2
X0.7145Y0.2933
X0.7145Y0.2559
X0.7145Y0.2186
X0.7145Y0.1813
X0.7145Y0.1439
X0.7145Y0.1066
X0.7145Y0.0693
X0.7161Y1.2863
X0.7161Y1.2489
X0.7161Y1.2116
X0.7161Y1.1743
X0.7161Y1.1369
X0.7161Y1.0996
X0.7161Y1.0623
X0.7472Y0.2933
X0.7472Y0.2559
X0.7472Y0.2186
X0.7472Y0.1813
X0.7472Y0.1439
X0.7472Y0.1066
X0.7472Y0.0693
X0.7488Y1.2863
X0.7488Y1.2489
X0.7488Y1.2116
X0.7488Y1.1743
X0.7488Y1.1369
X0.7488Y1.0996
X0.7488Y1.0623
X0.7798Y0.2933
X0.7798Y0.2559
X0.7798Y0.2186
X0.7798Y0.1813
X0.7798Y0.1439
X0.7798Y0.1066
X0.7798Y0.0693
X0.7815Y1.2863
X0.7815Y1.2489
X0.7815Y1.2116
X0.7815Y1.1743
X0.7815Y1.1369
X0.7815Y1.0996
X0.7815Y1.0623
T3
X-0.293Y-0.1787
X-0.2916Y1.7798
X-0.2653Y-0.1119
X-0.2653Y-0.2456
X-0.2639Y1.8467
X-0.2639Y1.713
X-0.1985Y-0.0843
X-0.1985Y-0.2732
X-0.1971Y1.8743
X-0.1971Y1.6854
X-0.1317Y-0.1119
X-0.1317Y-0.2456
X-0.1303Y1.8467
X-0.1303Y1.713
X-0.104Y-0.1787
X-0.1026Y1.7798
X0.937Y2.3713
X0.9647Y2.4381
X0.9647Y2.3044
X1.0315Y2.4657
X1.0315Y2.2768
X1.0983Y2.4381
X1.0983Y2.3044
X1.126Y2.3713
X2.0802Y2.3713
X2.1079Y2.4381
X2.1079Y2.3044
X2.1556Y-0.1773
X2.157Y1.7813
X2.1747Y2.4657
X2.1747Y2.2768
X2.1833Y-0.1105
X2.1833Y-0.2441
X2.1847Y1.8481
X2.1847Y1.7144
X2.2415Y2.4381
X2.2415Y2.3044
X2.2501Y-0.0828
X2.2501Y-0.2718
X2.2515Y1.8757
X2.2515Y1.6868
X2.2692Y2.3713
X2.3169Y-0.1105
X2.3169Y-0.2441
X2.3183Y1.8481
X2.3183Y1.7144
X2.3446Y-0.1773
X2.346Y1.7813
T5
X-0.1375Y1.0714
X-0.1375Y0.8438
T6
X0.2065Y0.2311
X0.2065Y0.1311
X0.2088Y1.2211
X0.2088Y1.1211
X1.0915Y1.8313
X1.0915Y1.7313
X1.0919Y1.419
X1.1915Y1.8313
X1.1915Y1.7313
X1.1919Y1.419
X1.2915Y1.8313
X1.2915Y1.7313
X1.2919Y1.419
X1.3919Y1.419
X1.9415Y2.5113
X1.9415Y2.4113
X1.9415Y2.3113
X1.9415Y2.2113
T7
X1.8478Y0.715
X1.8478Y0.5181
X1.8478Y0.3213
X2.2415Y0.715
X2.2415Y0.5181
X2.2415Y0.3213
T8
X-0.3285Y0.4313
X-0.0529Y0.4313
T9
X-0.1985Y-0.1787
X-0.1971Y1.7798
X1.0315Y2.3713
X2.1747Y2.3713
X2.2501Y-0.1773
X2.2515Y1.7813
T4
G00X-0.2674Y1.1277
M15
G01X-0.295Y1.1277
M16
G05
G00X-0.2674Y0.7875
M15
G01X-0.295Y0.7875
M16
G05
G00X-0.0989Y1.1277
M15
G01X-0.1344Y1.1277
M16
G05
G00X-0.0989Y0.7875
M15
G01X-0.1343Y0.7875
M16
G05
T7
G00X1.5393Y1.4797
M15
G01X1.5905Y1.4797
M16
G05
G00X1.5393Y1.2828
M15
G01X1.5905Y1.2828
M16
G05
G00X1.8306Y1.4797
M15
G01X1.8818Y1.4797
M16
G05
G00X2.1259Y1.3813
M15
G01X2.1771Y1.3813
M16
G05
M30
