%TF.GenerationSoftware,KiCad,Pcbnew,8.0.7*%
%TF.CreationDate,2024-12-24T17:50:32+01:00*%
%TF.ProjectId,AudioInterface,41756469-6f49-46e7-9465-72666163652e,1.1*%
%TF.SameCoordinates,Original*%
%TF.FileFunction,Other,Comment*%
%FSLAX46Y46*%
G04 Gerber Fmt 4.6, Leading zero omitted, Abs format (unit mm)*
G04 Created by KiCad (PCBNEW 8.0.7) date 2024-12-24 17:50:32*
%MOMM*%
%LPD*%
G01*
G04 APERTURE LIST*
%ADD10C,0.150000*%
%ADD11C,0.300000*%
%ADD12C,0.500000*%
G04 APERTURE END LIST*
D10*
X0Y78500000D02*
X70000000Y78500000D01*
X70000000Y-1500000D01*
X0Y-1500000D01*
X0Y78500000D01*
X-16765352Y78630181D02*
X-16765352Y79630181D01*
X-16765352Y79630181D02*
X-16384400Y79630181D01*
X-16384400Y79630181D02*
X-16289162Y79582562D01*
X-16289162Y79582562D02*
X-16241543Y79534943D01*
X-16241543Y79534943D02*
X-16193924Y79439705D01*
X-16193924Y79439705D02*
X-16193924Y79296848D01*
X-16193924Y79296848D02*
X-16241543Y79201610D01*
X-16241543Y79201610D02*
X-16289162Y79153991D01*
X-16289162Y79153991D02*
X-16384400Y79106372D01*
X-16384400Y79106372D02*
X-16765352Y79106372D01*
X-15193924Y78725420D02*
X-15241543Y78677800D01*
X-15241543Y78677800D02*
X-15384400Y78630181D01*
X-15384400Y78630181D02*
X-15479638Y78630181D01*
X-15479638Y78630181D02*
X-15622495Y78677800D01*
X-15622495Y78677800D02*
X-15717733Y78773039D01*
X-15717733Y78773039D02*
X-15765352Y78868277D01*
X-15765352Y78868277D02*
X-15812971Y79058753D01*
X-15812971Y79058753D02*
X-15812971Y79201610D01*
X-15812971Y79201610D02*
X-15765352Y79392086D01*
X-15765352Y79392086D02*
X-15717733Y79487324D01*
X-15717733Y79487324D02*
X-15622495Y79582562D01*
X-15622495Y79582562D02*
X-15479638Y79630181D01*
X-15479638Y79630181D02*
X-15384400Y79630181D01*
X-15384400Y79630181D02*
X-15241543Y79582562D01*
X-15241543Y79582562D02*
X-15193924Y79534943D01*
X-14432019Y79153991D02*
X-14289162Y79106372D01*
X-14289162Y79106372D02*
X-14241543Y79058753D01*
X-14241543Y79058753D02*
X-14193924Y78963515D01*
X-14193924Y78963515D02*
X-14193924Y78820658D01*
X-14193924Y78820658D02*
X-14241543Y78725420D01*
X-14241543Y78725420D02*
X-14289162Y78677800D01*
X-14289162Y78677800D02*
X-14384400Y78630181D01*
X-14384400Y78630181D02*
X-14765352Y78630181D01*
X-14765352Y78630181D02*
X-14765352Y79630181D01*
X-14765352Y79630181D02*
X-14432019Y79630181D01*
X-14432019Y79630181D02*
X-14336781Y79582562D01*
X-14336781Y79582562D02*
X-14289162Y79534943D01*
X-14289162Y79534943D02*
X-14241543Y79439705D01*
X-14241543Y79439705D02*
X-14241543Y79344467D01*
X-14241543Y79344467D02*
X-14289162Y79249229D01*
X-14289162Y79249229D02*
X-14336781Y79201610D01*
X-14336781Y79201610D02*
X-14432019Y79153991D01*
X-14432019Y79153991D02*
X-14765352Y79153991D01*
X-13860590Y79630181D02*
X-13241543Y79630181D01*
X-13241543Y79630181D02*
X-13574876Y79249229D01*
X-13574876Y79249229D02*
X-13432019Y79249229D01*
X-13432019Y79249229D02*
X-13336781Y79201610D01*
X-13336781Y79201610D02*
X-13289162Y79153991D01*
X-13289162Y79153991D02*
X-13241543Y79058753D01*
X-13241543Y79058753D02*
X-13241543Y78820658D01*
X-13241543Y78820658D02*
X-13289162Y78725420D01*
X-13289162Y78725420D02*
X-13336781Y78677800D01*
X-13336781Y78677800D02*
X-13432019Y78630181D01*
X-13432019Y78630181D02*
X-13717733Y78630181D01*
X-13717733Y78630181D02*
X-13812971Y78677800D01*
X-13812971Y78677800D02*
X-13860590Y78725420D01*
X-12812971Y78630181D02*
X-12812971Y79630181D01*
X-12812971Y79630181D02*
X-12574876Y79630181D01*
X-12574876Y79630181D02*
X-12432019Y79582562D01*
X-12432019Y79582562D02*
X-12336781Y79487324D01*
X-12336781Y79487324D02*
X-12289162Y79392086D01*
X-12289162Y79392086D02*
X-12241543Y79201610D01*
X-12241543Y79201610D02*
X-12241543Y79058753D01*
X-12241543Y79058753D02*
X-12289162Y78868277D01*
X-12289162Y78868277D02*
X-12336781Y78773039D01*
X-12336781Y78773039D02*
X-12432019Y78677800D01*
X-12432019Y78677800D02*
X-12574876Y78630181D01*
X-12574876Y78630181D02*
X-12812971Y78630181D01*
X-12051066Y78534943D02*
X-11289162Y78534943D01*
X-11193923Y79630181D02*
X-10622495Y79630181D01*
X-10908209Y78630181D02*
X-10908209Y79630181D01*
X-9812971Y78630181D02*
X-10289161Y78630181D01*
X-10289161Y78630181D02*
X-10289161Y79630181D01*
X-9717732Y78534943D02*
X-8955828Y78534943D01*
X-8384399Y79153991D02*
X-8241542Y79106372D01*
X-8241542Y79106372D02*
X-8193923Y79058753D01*
X-8193923Y79058753D02*
X-8146304Y78963515D01*
X-8146304Y78963515D02*
X-8146304Y78820658D01*
X-8146304Y78820658D02*
X-8193923Y78725420D01*
X-8193923Y78725420D02*
X-8241542Y78677800D01*
X-8241542Y78677800D02*
X-8336780Y78630181D01*
X-8336780Y78630181D02*
X-8717732Y78630181D01*
X-8717732Y78630181D02*
X-8717732Y79630181D01*
X-8717732Y79630181D02*
X-8384399Y79630181D01*
X-8384399Y79630181D02*
X-8289161Y79582562D01*
X-8289161Y79582562D02*
X-8241542Y79534943D01*
X-8241542Y79534943D02*
X-8193923Y79439705D01*
X-8193923Y79439705D02*
X-8193923Y79344467D01*
X-8193923Y79344467D02*
X-8241542Y79249229D01*
X-8241542Y79249229D02*
X-8289161Y79201610D01*
X-8289161Y79201610D02*
X-8384399Y79153991D01*
X-8384399Y79153991D02*
X-8717732Y79153991D01*
X-7527256Y79630181D02*
X-7336780Y79630181D01*
X-7336780Y79630181D02*
X-7241542Y79582562D01*
X-7241542Y79582562D02*
X-7146304Y79487324D01*
X-7146304Y79487324D02*
X-7098685Y79296848D01*
X-7098685Y79296848D02*
X-7098685Y78963515D01*
X-7098685Y78963515D02*
X-7146304Y78773039D01*
X-7146304Y78773039D02*
X-7241542Y78677800D01*
X-7241542Y78677800D02*
X-7336780Y78630181D01*
X-7336780Y78630181D02*
X-7527256Y78630181D01*
X-7527256Y78630181D02*
X-7622494Y78677800D01*
X-7622494Y78677800D02*
X-7717732Y78773039D01*
X-7717732Y78773039D02*
X-7765351Y78963515D01*
X-7765351Y78963515D02*
X-7765351Y79296848D01*
X-7765351Y79296848D02*
X-7717732Y79487324D01*
X-7717732Y79487324D02*
X-7622494Y79582562D01*
X-7622494Y79582562D02*
X-7527256Y79630181D01*
X-6717732Y78915896D02*
X-6241542Y78915896D01*
X-6812970Y78630181D02*
X-6479637Y79630181D01*
X-6479637Y79630181D02*
X-6146304Y78630181D01*
X-5241542Y78630181D02*
X-5574875Y79106372D01*
X-5812970Y78630181D02*
X-5812970Y79630181D01*
X-5812970Y79630181D02*
X-5432018Y79630181D01*
X-5432018Y79630181D02*
X-5336780Y79582562D01*
X-5336780Y79582562D02*
X-5289161Y79534943D01*
X-5289161Y79534943D02*
X-5241542Y79439705D01*
X-5241542Y79439705D02*
X-5241542Y79296848D01*
X-5241542Y79296848D02*
X-5289161Y79201610D01*
X-5289161Y79201610D02*
X-5336780Y79153991D01*
X-5336780Y79153991D02*
X-5432018Y79106372D01*
X-5432018Y79106372D02*
X-5812970Y79106372D01*
X-4812970Y78630181D02*
X-4812970Y79630181D01*
X-4812970Y79630181D02*
X-4574875Y79630181D01*
X-4574875Y79630181D02*
X-4432018Y79582562D01*
X-4432018Y79582562D02*
X-4336780Y79487324D01*
X-4336780Y79487324D02*
X-4289161Y79392086D01*
X-4289161Y79392086D02*
X-4241542Y79201610D01*
X-4241542Y79201610D02*
X-4241542Y79058753D01*
X-4241542Y79058753D02*
X-4289161Y78868277D01*
X-4289161Y78868277D02*
X-4336780Y78773039D01*
X-4336780Y78773039D02*
X-4432018Y78677800D01*
X-4432018Y78677800D02*
X-4574875Y78630181D01*
X-4574875Y78630181D02*
X-4812970Y78630181D01*
X-3812970Y78630181D02*
X-3812970Y79630181D01*
X-3812970Y79630181D02*
X-3241542Y78630181D01*
X-3241542Y78630181D02*
X-3241542Y79630181D01*
X-2812970Y78915896D02*
X-2336780Y78915896D01*
X-2908208Y78630181D02*
X-2574875Y79630181D01*
X-2574875Y79630181D02*
X-2241542Y78630181D01*
X-1908208Y78630181D02*
X-1908208Y79630181D01*
X-1908208Y79630181D02*
X-1574875Y78915896D01*
X-1574875Y78915896D02*
X-1241542Y79630181D01*
X-1241542Y79630181D02*
X-1241542Y78630181D01*
X-765351Y79153991D02*
X-432018Y79153991D01*
X-289161Y78630181D02*
X-765351Y78630181D01*
X-765351Y78630181D02*
X-765351Y79630181D01*
X-765351Y79630181D02*
X-289161Y79630181D01*
X70336779Y-1369819D02*
X70336779Y-369819D01*
X70336779Y-369819D02*
X70717731Y-369819D01*
X70717731Y-369819D02*
X70812969Y-417438D01*
X70812969Y-417438D02*
X70860588Y-465057D01*
X70860588Y-465057D02*
X70908207Y-560295D01*
X70908207Y-560295D02*
X70908207Y-703152D01*
X70908207Y-703152D02*
X70860588Y-798390D01*
X70860588Y-798390D02*
X70812969Y-846009D01*
X70812969Y-846009D02*
X70717731Y-893628D01*
X70717731Y-893628D02*
X70336779Y-893628D01*
X71908207Y-1274580D02*
X71860588Y-1322200D01*
X71860588Y-1322200D02*
X71717731Y-1369819D01*
X71717731Y-1369819D02*
X71622493Y-1369819D01*
X71622493Y-1369819D02*
X71479636Y-1322200D01*
X71479636Y-1322200D02*
X71384398Y-1226961D01*
X71384398Y-1226961D02*
X71336779Y-1131723D01*
X71336779Y-1131723D02*
X71289160Y-941247D01*
X71289160Y-941247D02*
X71289160Y-798390D01*
X71289160Y-798390D02*
X71336779Y-607914D01*
X71336779Y-607914D02*
X71384398Y-512676D01*
X71384398Y-512676D02*
X71479636Y-417438D01*
X71479636Y-417438D02*
X71622493Y-369819D01*
X71622493Y-369819D02*
X71717731Y-369819D01*
X71717731Y-369819D02*
X71860588Y-417438D01*
X71860588Y-417438D02*
X71908207Y-465057D01*
X72670112Y-846009D02*
X72812969Y-893628D01*
X72812969Y-893628D02*
X72860588Y-941247D01*
X72860588Y-941247D02*
X72908207Y-1036485D01*
X72908207Y-1036485D02*
X72908207Y-1179342D01*
X72908207Y-1179342D02*
X72860588Y-1274580D01*
X72860588Y-1274580D02*
X72812969Y-1322200D01*
X72812969Y-1322200D02*
X72717731Y-1369819D01*
X72717731Y-1369819D02*
X72336779Y-1369819D01*
X72336779Y-1369819D02*
X72336779Y-369819D01*
X72336779Y-369819D02*
X72670112Y-369819D01*
X72670112Y-369819D02*
X72765350Y-417438D01*
X72765350Y-417438D02*
X72812969Y-465057D01*
X72812969Y-465057D02*
X72860588Y-560295D01*
X72860588Y-560295D02*
X72860588Y-655533D01*
X72860588Y-655533D02*
X72812969Y-750771D01*
X72812969Y-750771D02*
X72765350Y-798390D01*
X72765350Y-798390D02*
X72670112Y-846009D01*
X72670112Y-846009D02*
X72336779Y-846009D01*
X73241541Y-369819D02*
X73860588Y-369819D01*
X73860588Y-369819D02*
X73527255Y-750771D01*
X73527255Y-750771D02*
X73670112Y-750771D01*
X73670112Y-750771D02*
X73765350Y-798390D01*
X73765350Y-798390D02*
X73812969Y-846009D01*
X73812969Y-846009D02*
X73860588Y-941247D01*
X73860588Y-941247D02*
X73860588Y-1179342D01*
X73860588Y-1179342D02*
X73812969Y-1274580D01*
X73812969Y-1274580D02*
X73765350Y-1322200D01*
X73765350Y-1322200D02*
X73670112Y-1369819D01*
X73670112Y-1369819D02*
X73384398Y-1369819D01*
X73384398Y-1369819D02*
X73289160Y-1322200D01*
X73289160Y-1322200D02*
X73241541Y-1274580D01*
X74289160Y-1369819D02*
X74289160Y-369819D01*
X74289160Y-369819D02*
X74527255Y-369819D01*
X74527255Y-369819D02*
X74670112Y-417438D01*
X74670112Y-417438D02*
X74765350Y-512676D01*
X74765350Y-512676D02*
X74812969Y-607914D01*
X74812969Y-607914D02*
X74860588Y-798390D01*
X74860588Y-798390D02*
X74860588Y-941247D01*
X74860588Y-941247D02*
X74812969Y-1131723D01*
X74812969Y-1131723D02*
X74765350Y-1226961D01*
X74765350Y-1226961D02*
X74670112Y-1322200D01*
X74670112Y-1322200D02*
X74527255Y-1369819D01*
X74527255Y-1369819D02*
X74289160Y-1369819D01*
X75051065Y-1465057D02*
X75812969Y-1465057D01*
X76384398Y-846009D02*
X76527255Y-893628D01*
X76527255Y-893628D02*
X76574874Y-941247D01*
X76574874Y-941247D02*
X76622493Y-1036485D01*
X76622493Y-1036485D02*
X76622493Y-1179342D01*
X76622493Y-1179342D02*
X76574874Y-1274580D01*
X76574874Y-1274580D02*
X76527255Y-1322200D01*
X76527255Y-1322200D02*
X76432017Y-1369819D01*
X76432017Y-1369819D02*
X76051065Y-1369819D01*
X76051065Y-1369819D02*
X76051065Y-369819D01*
X76051065Y-369819D02*
X76384398Y-369819D01*
X76384398Y-369819D02*
X76479636Y-417438D01*
X76479636Y-417438D02*
X76527255Y-465057D01*
X76527255Y-465057D02*
X76574874Y-560295D01*
X76574874Y-560295D02*
X76574874Y-655533D01*
X76574874Y-655533D02*
X76527255Y-750771D01*
X76527255Y-750771D02*
X76479636Y-798390D01*
X76479636Y-798390D02*
X76384398Y-846009D01*
X76384398Y-846009D02*
X76051065Y-846009D01*
X77622493Y-1369819D02*
X77289160Y-893628D01*
X77051065Y-1369819D02*
X77051065Y-369819D01*
X77051065Y-369819D02*
X77432017Y-369819D01*
X77432017Y-369819D02*
X77527255Y-417438D01*
X77527255Y-417438D02*
X77574874Y-465057D01*
X77574874Y-465057D02*
X77622493Y-560295D01*
X77622493Y-560295D02*
X77622493Y-703152D01*
X77622493Y-703152D02*
X77574874Y-798390D01*
X77574874Y-798390D02*
X77527255Y-846009D01*
X77527255Y-846009D02*
X77432017Y-893628D01*
X77432017Y-893628D02*
X77051065Y-893628D01*
X77812970Y-1465057D02*
X78574874Y-1465057D01*
X79146303Y-846009D02*
X79289160Y-893628D01*
X79289160Y-893628D02*
X79336779Y-941247D01*
X79336779Y-941247D02*
X79384398Y-1036485D01*
X79384398Y-1036485D02*
X79384398Y-1179342D01*
X79384398Y-1179342D02*
X79336779Y-1274580D01*
X79336779Y-1274580D02*
X79289160Y-1322200D01*
X79289160Y-1322200D02*
X79193922Y-1369819D01*
X79193922Y-1369819D02*
X78812970Y-1369819D01*
X78812970Y-1369819D02*
X78812970Y-369819D01*
X78812970Y-369819D02*
X79146303Y-369819D01*
X79146303Y-369819D02*
X79241541Y-417438D01*
X79241541Y-417438D02*
X79289160Y-465057D01*
X79289160Y-465057D02*
X79336779Y-560295D01*
X79336779Y-560295D02*
X79336779Y-655533D01*
X79336779Y-655533D02*
X79289160Y-750771D01*
X79289160Y-750771D02*
X79241541Y-798390D01*
X79241541Y-798390D02*
X79146303Y-846009D01*
X79146303Y-846009D02*
X78812970Y-846009D01*
X80003446Y-369819D02*
X80193922Y-369819D01*
X80193922Y-369819D02*
X80289160Y-417438D01*
X80289160Y-417438D02*
X80384398Y-512676D01*
X80384398Y-512676D02*
X80432017Y-703152D01*
X80432017Y-703152D02*
X80432017Y-1036485D01*
X80432017Y-1036485D02*
X80384398Y-1226961D01*
X80384398Y-1226961D02*
X80289160Y-1322200D01*
X80289160Y-1322200D02*
X80193922Y-1369819D01*
X80193922Y-1369819D02*
X80003446Y-1369819D01*
X80003446Y-1369819D02*
X79908208Y-1322200D01*
X79908208Y-1322200D02*
X79812970Y-1226961D01*
X79812970Y-1226961D02*
X79765351Y-1036485D01*
X79765351Y-1036485D02*
X79765351Y-703152D01*
X79765351Y-703152D02*
X79812970Y-512676D01*
X79812970Y-512676D02*
X79908208Y-417438D01*
X79908208Y-417438D02*
X80003446Y-369819D01*
X80812970Y-1084104D02*
X81289160Y-1084104D01*
X80717732Y-1369819D02*
X81051065Y-369819D01*
X81051065Y-369819D02*
X81384398Y-1369819D01*
X82289160Y-1369819D02*
X81955827Y-893628D01*
X81717732Y-1369819D02*
X81717732Y-369819D01*
X81717732Y-369819D02*
X82098684Y-369819D01*
X82098684Y-369819D02*
X82193922Y-417438D01*
X82193922Y-417438D02*
X82241541Y-465057D01*
X82241541Y-465057D02*
X82289160Y-560295D01*
X82289160Y-560295D02*
X82289160Y-703152D01*
X82289160Y-703152D02*
X82241541Y-798390D01*
X82241541Y-798390D02*
X82193922Y-846009D01*
X82193922Y-846009D02*
X82098684Y-893628D01*
X82098684Y-893628D02*
X81717732Y-893628D01*
X82717732Y-1369819D02*
X82717732Y-369819D01*
X82717732Y-369819D02*
X82955827Y-369819D01*
X82955827Y-369819D02*
X83098684Y-417438D01*
X83098684Y-417438D02*
X83193922Y-512676D01*
X83193922Y-512676D02*
X83241541Y-607914D01*
X83241541Y-607914D02*
X83289160Y-798390D01*
X83289160Y-798390D02*
X83289160Y-941247D01*
X83289160Y-941247D02*
X83241541Y-1131723D01*
X83241541Y-1131723D02*
X83193922Y-1226961D01*
X83193922Y-1226961D02*
X83098684Y-1322200D01*
X83098684Y-1322200D02*
X82955827Y-1369819D01*
X82955827Y-1369819D02*
X82717732Y-1369819D01*
X83717732Y-1369819D02*
X83717732Y-369819D01*
X83717732Y-369819D02*
X84289160Y-1369819D01*
X84289160Y-1369819D02*
X84289160Y-369819D01*
X84717732Y-1084104D02*
X85193922Y-1084104D01*
X84622494Y-1369819D02*
X84955827Y-369819D01*
X84955827Y-369819D02*
X85289160Y-1369819D01*
X85622494Y-1369819D02*
X85622494Y-369819D01*
X85622494Y-369819D02*
X85955827Y-1084104D01*
X85955827Y-1084104D02*
X86289160Y-369819D01*
X86289160Y-369819D02*
X86289160Y-1369819D01*
X86765351Y-846009D02*
X87098684Y-846009D01*
X87241541Y-1369819D02*
X86765351Y-1369819D01*
X86765351Y-1369819D02*
X86765351Y-369819D01*
X86765351Y-369819D02*
X87241541Y-369819D01*
%TO.C,H6*%
X58436944Y60230000D02*
G75*
G02*
X52036944Y60230000I-3200000J0D01*
G01*
X52036944Y60230000D02*
G75*
G02*
X58436944Y60230000I3200000J0D01*
G01*
%TO.C,H5*%
X29400000Y60230000D02*
G75*
G02*
X23000000Y60230000I-3200000J0D01*
G01*
X23000000Y60230000D02*
G75*
G02*
X29400000Y60230000I3200000J0D01*
G01*
%TO.C,H4*%
X60388000Y45243998D02*
G75*
G02*
X53988000Y45243998I-3200000J0D01*
G01*
X53988000Y45243998D02*
G75*
G02*
X60388000Y45243998I3200000J0D01*
G01*
%TO.C,H3*%
X60351896Y-4503896D02*
G75*
G02*
X53951896Y-4503896I-3200000J0D01*
G01*
X53951896Y-4503896D02*
G75*
G02*
X60351896Y-4503896I3200000J0D01*
G01*
%TO.C,H2*%
X-1842000Y-4540000D02*
G75*
G02*
X-8242000Y-4540000I-3200000J0D01*
G01*
X-8242000Y-4540000D02*
G75*
G02*
X-1842000Y-4540000I3200000J0D01*
G01*
%TO.C,H1*%
X-1805896Y45207894D02*
G75*
G02*
X-8205896Y45207894I-3200000J0D01*
G01*
X-8205896Y45207894D02*
G75*
G02*
X-1805896Y45207894I3200000J0D01*
G01*
D11*
%TO.C,Q1*%
X6346000Y17426000D02*
G75*
G02*
X6046000Y17426000I-150000J0D01*
G01*
X6046000Y17426000D02*
G75*
G02*
X6346000Y17426000I150000J0D01*
G01*
D12*
%TO.C,J3*%
X-1094000Y10954000D02*
G75*
G02*
X-1594000Y10954000I-250000J0D01*
G01*
X-1594000Y10954000D02*
G75*
G02*
X-1094000Y10954000I250000J0D01*
G01*
X-8094000Y10954000D02*
G75*
G02*
X-8594000Y10954000I-250000J0D01*
G01*
X-8594000Y10954000D02*
G75*
G02*
X-8094000Y10954000I250000J0D01*
G01*
D10*
%TO.C,U1*%
X102000Y25089500D02*
G75*
G02*
X-38000Y25089500I-70000J0D01*
G01*
X-38000Y25089500D02*
G75*
G02*
X102000Y25089500I70000J0D01*
G01*
D11*
%TO.C,J1*%
X-3342500Y27213500D02*
G75*
G02*
X-3642500Y27213500I-150000J0D01*
G01*
X-3642500Y27213500D02*
G75*
G02*
X-3342500Y27213500I150000J0D01*
G01*
X-3342500Y21433500D02*
G75*
G02*
X-3642500Y21433500I-150000J0D01*
G01*
X-3642500Y21433500D02*
G75*
G02*
X-3342500Y21433500I150000J0D01*
G01*
%TD*%
M02*
