%TF.GenerationSoftware,KiCad,Pcbnew,8.0.7*%
%TF.CreationDate,2024-12-24T17:50:32+01:00*%
%TF.ProjectId,AudioInterface,41756469-6f49-46e7-9465-72666163652e,1.1*%
%TF.SameCoordinates,Original*%
%TF.FileFunction,Paste,Top*%
%TF.FilePolarity,Positive*%
%FSLAX46Y46*%
G04 Gerber Fmt 4.6, Leading zero omitted, Abs format (unit mm)*
G04 Created by KiCad (PCBNEW 8.0.7) date 2024-12-24 17:50:32*
%MOMM*%
%LPD*%
G01*
G04 APERTURE LIST*
G04 Aperture macros list*
%AMRoundRect*
0 Rectangle with rounded corners*
0 $1 Rounding radius*
0 $2 $3 $4 $5 $6 $7 $8 $9 X,Y pos of 4 corners*
0 Add a 4 corners polygon primitive as box body*
4,1,4,$2,$3,$4,$5,$6,$7,$8,$9,$2,$3,0*
0 Add four circle primitives for the rounded corners*
1,1,$1+$1,$2,$3*
1,1,$1+$1,$4,$5*
1,1,$1+$1,$6,$7*
1,1,$1+$1,$8,$9*
0 Add four rect primitives between the rounded corners*
20,1,$1+$1,$2,$3,$4,$5,0*
20,1,$1+$1,$4,$5,$6,$7,0*
20,1,$1+$1,$6,$7,$8,$9,0*
20,1,$1+$1,$8,$9,$2,$3,0*%
G04 Aperture macros list end*
%ADD10R,1.475000X0.450000*%
%ADD11R,2.340000X6.460000*%
%ADD12R,0.570000X1.400000*%
%ADD13R,0.650000X1.900000*%
%ADD14R,2.000000X2.450000*%
%ADD15RoundRect,0.135000X0.185000X-0.135000X0.185000X0.135000X-0.185000X0.135000X-0.185000X-0.135000X0*%
%ADD16RoundRect,0.135000X-0.185000X0.135000X-0.185000X-0.135000X0.185000X-0.135000X0.185000X0.135000X0*%
%ADD17RoundRect,0.147500X-0.147500X-0.172500X0.147500X-0.172500X0.147500X0.172500X-0.147500X0.172500X0*%
%ADD18RoundRect,0.140000X-0.170000X0.140000X-0.170000X-0.140000X0.170000X-0.140000X0.170000X0.140000X0*%
%ADD19RoundRect,0.140000X0.140000X0.170000X-0.140000X0.170000X-0.140000X-0.170000X0.140000X-0.170000X0*%
%ADD20R,2.000000X0.700000*%
%ADD21RoundRect,0.250000X-1.500000X-0.550000X1.500000X-0.550000X1.500000X0.550000X-1.500000X0.550000X0*%
%ADD22RoundRect,0.135000X0.135000X0.185000X-0.135000X0.185000X-0.135000X-0.185000X0.135000X-0.185000X0*%
%ADD23RoundRect,0.135000X-0.135000X-0.185000X0.135000X-0.185000X0.135000X0.185000X-0.135000X0.185000X0*%
%ADD24RoundRect,0.150000X-0.150000X0.587500X-0.150000X-0.587500X0.150000X-0.587500X0.150000X0.587500X0*%
%ADD25RoundRect,0.147500X-0.172500X0.147500X-0.172500X-0.147500X0.172500X-0.147500X0.172500X0.147500X0*%
%ADD26RoundRect,0.200000X0.275000X-0.200000X0.275000X0.200000X-0.275000X0.200000X-0.275000X-0.200000X0*%
%ADD27RoundRect,0.225000X0.375000X-0.225000X0.375000X0.225000X-0.375000X0.225000X-0.375000X-0.225000X0*%
%ADD28RoundRect,0.140000X-0.140000X-0.170000X0.140000X-0.170000X0.140000X0.170000X-0.140000X0.170000X0*%
%ADD29R,1.250000X0.650000*%
%ADD30R,0.800000X0.650000*%
%ADD31R,3.900000X4.460000*%
%ADD32R,0.600000X1.400000*%
%ADD33RoundRect,0.225000X-0.225000X-0.375000X0.225000X-0.375000X0.225000X0.375000X-0.225000X0.375000X0*%
%ADD34RoundRect,0.250000X0.275000X0.700000X-0.275000X0.700000X-0.275000X-0.700000X0.275000X-0.700000X0*%
%ADD35RoundRect,0.250000X-0.275000X-0.700000X0.275000X-0.700000X0.275000X0.700000X-0.275000X0.700000X0*%
%ADD36R,1.400000X2.500000*%
%ADD37R,0.660000X0.280000*%
%ADD38R,1.500000X2.500000*%
%ADD39R,1.500000X0.300000*%
G04 APERTURE END LIST*
D10*
%TO.C,U5*%
X21958000Y33401202D03*
X21958000Y25601202D03*
X21958000Y26251202D03*
X21958000Y26901202D03*
X21958000Y27551202D03*
X21958000Y28201202D03*
X21958000Y28851202D03*
X21958000Y29501202D03*
X21958000Y30151202D03*
X21958000Y30801202D03*
X21958000Y31451202D03*
X21958000Y32101202D03*
X21958000Y32751202D03*
X21958000Y34051202D03*
X16082000Y34051202D03*
X16082000Y33401202D03*
X16082000Y32751202D03*
X16082000Y32101202D03*
X16082000Y31451202D03*
X16082000Y30801202D03*
X16082000Y30151202D03*
X16082000Y29501202D03*
X16082000Y28851202D03*
X16082000Y28201202D03*
X16082000Y27551202D03*
X16082000Y26901202D03*
X16082000Y26251202D03*
X16082000Y25601202D03*
D11*
X19020000Y29826202D03*
%TD*%
D10*
%TO.C,U4*%
X21916000Y8179000D03*
X21916000Y379000D03*
X21916000Y1029000D03*
X21916000Y1679000D03*
X21916000Y2329000D03*
X21916000Y2979000D03*
X21916000Y3629000D03*
X21916000Y4279000D03*
X21916000Y4929000D03*
X21916000Y5579000D03*
X21916000Y6229000D03*
X21916000Y6879000D03*
X21916000Y7529000D03*
X21916000Y8829000D03*
X16040000Y8829000D03*
X16040000Y8179000D03*
X16040000Y7529000D03*
X16040000Y6879000D03*
X16040000Y6229000D03*
X16040000Y5579000D03*
X16040000Y4929000D03*
X16040000Y4279000D03*
X16040000Y3629000D03*
X16040000Y2979000D03*
X16040000Y2329000D03*
X16040000Y1679000D03*
X16040000Y1029000D03*
X16040000Y379000D03*
D11*
X18978000Y4604000D03*
%TD*%
D12*
%TO.C,U3*%
X11162000Y19370500D03*
D13*
X9662000Y19120500D03*
D12*
X8162000Y19370500D03*
D14*
X9662000Y16945500D03*
%TD*%
D15*
%TO.C,R8*%
X46012000Y63784000D03*
X46012000Y64804000D03*
%TD*%
D16*
%TO.C,R6*%
X46012000Y55916000D03*
X46012000Y54896000D03*
%TD*%
D17*
%TO.C,D3*%
X36637000Y64802000D03*
X37607000Y64802000D03*
%TD*%
D18*
%TO.C,C2*%
X46012000Y57888000D03*
X46012000Y56928000D03*
%TD*%
D19*
%TO.C,C22*%
X23747000Y29877000D03*
X24707000Y29877000D03*
%TD*%
D20*
%TO.C,K1*%
X30216000Y20088000D03*
X30216000Y16888000D03*
X30216000Y14688000D03*
X30216000Y12488000D03*
X24216000Y12488000D03*
X24216000Y14688000D03*
X24216000Y16888000D03*
X24216000Y20088000D03*
%TD*%
D21*
%TO.C,C29*%
X20069000Y38767000D03*
X14669000Y38767000D03*
%TD*%
%TO.C,C26*%
X20052000Y20850202D03*
X14652000Y20850202D03*
%TD*%
D22*
%TO.C,R20*%
X23717000Y26448000D03*
X24737000Y26448000D03*
%TD*%
D18*
%TO.C,C19*%
X7658000Y5112000D03*
X7658000Y6072000D03*
%TD*%
D19*
%TO.C,C6*%
X24620000Y5620000D03*
X23660000Y5620000D03*
%TD*%
D23*
%TO.C,R9*%
X33837000Y41708000D03*
X32817000Y41708000D03*
%TD*%
D22*
%TO.C,R15*%
X23660000Y1175000D03*
X24680000Y1175000D03*
%TD*%
D24*
%TO.C,Q2*%
X31171500Y22892000D03*
X30221500Y24767000D03*
X32121500Y24767000D03*
%TD*%
D18*
%TO.C,C33*%
X7717000Y30336800D03*
X7717000Y31296800D03*
%TD*%
D23*
%TO.C,R13*%
X23630000Y8668000D03*
X24650000Y8668000D03*
%TD*%
D25*
%TO.C,D1*%
X7527000Y25039500D03*
X7527000Y24069500D03*
%TD*%
D26*
%TO.C,R2*%
X5622000Y23591000D03*
X5622000Y25241000D03*
%TD*%
D27*
%TO.C,D4*%
X34219500Y26320000D03*
X34219500Y23020000D03*
%TD*%
D28*
%TO.C,C12*%
X14615000Y9430000D03*
X13655000Y9430000D03*
%TD*%
D29*
%TO.C,Q1*%
X5876000Y17426000D03*
X5876000Y18706000D03*
X5876000Y19966000D03*
X5876000Y21236000D03*
D30*
X296000Y17426000D03*
X296000Y18706000D03*
D31*
X2396000Y19336000D03*
D30*
X296000Y19966000D03*
X296000Y21236000D03*
%TD*%
D23*
%TO.C,R16*%
X24678000Y159000D03*
X23658000Y159000D03*
%TD*%
D28*
%TO.C,C28*%
X14634000Y25965404D03*
X13674000Y25965404D03*
%TD*%
D23*
%TO.C,R19*%
X24737000Y33941000D03*
X23717000Y33941000D03*
%TD*%
D28*
%TO.C,C9*%
X23660000Y6636000D03*
X24620000Y6636000D03*
%TD*%
D23*
%TO.C,R18*%
X24737000Y28851202D03*
X23717000Y28851202D03*
%TD*%
D28*
%TO.C,C11*%
X14615000Y8414000D03*
X13655000Y8414000D03*
%TD*%
D19*
%TO.C,C7*%
X24648000Y4604000D03*
X23688000Y4604000D03*
%TD*%
D18*
%TO.C,C1*%
X1431000Y27216500D03*
X1431000Y26256500D03*
%TD*%
D32*
%TO.C,U2*%
X31745500Y31683500D03*
X32695500Y31683500D03*
X33645500Y31683500D03*
X33645500Y29183500D03*
X32695500Y29183500D03*
X31745500Y29183500D03*
%TD*%
D19*
%TO.C,C24*%
X13674000Y26956000D03*
X14634000Y26956000D03*
%TD*%
D23*
%TO.C,R14*%
X23656000Y3588000D03*
X24676000Y3588000D03*
%TD*%
D33*
%TO.C,D2*%
X28757500Y22892000D03*
X25457500Y22892000D03*
%TD*%
D19*
%TO.C,C20*%
X23747000Y32925000D03*
X24707000Y32925000D03*
%TD*%
D34*
%TO.C,FB1*%
X9131000Y2826000D03*
X12281000Y2826000D03*
%TD*%
D21*
%TO.C,C10*%
X20010000Y-4286000D03*
X14610000Y-4286000D03*
%TD*%
D28*
%TO.C,C5*%
X10202000Y20894500D03*
X11162000Y20894500D03*
%TD*%
D18*
%TO.C,C18*%
X7658000Y3080000D03*
X7658000Y4040000D03*
%TD*%
D35*
%TO.C,FB4*%
X12340000Y31528000D03*
X9190000Y31528000D03*
%TD*%
%TO.C,FB2*%
X12281000Y6276000D03*
X9131000Y6276000D03*
%TD*%
D16*
%TO.C,R1*%
X415000Y27246500D03*
X415000Y26226500D03*
%TD*%
D28*
%TO.C,C14*%
X14615000Y-222000D03*
X13655000Y-222000D03*
%TD*%
D34*
%TO.C,FB3*%
X9190000Y28099000D03*
X12340000Y28099000D03*
%TD*%
D21*
%TO.C,C13*%
X20010000Y13494000D03*
X14610000Y13494000D03*
%TD*%
D19*
%TO.C,C8*%
X24620000Y7652000D03*
X23660000Y7652000D03*
%TD*%
D28*
%TO.C,C31*%
X14674000Y34703000D03*
X13714000Y34703000D03*
%TD*%
D16*
%TO.C,R10*%
X35142000Y41704000D03*
X35142000Y42724000D03*
%TD*%
D15*
%TO.C,R5*%
X7527000Y22012500D03*
X7527000Y23032500D03*
%TD*%
D23*
%TO.C,R7*%
X31615500Y26369500D03*
X30595500Y26369500D03*
%TD*%
D19*
%TO.C,C16*%
X13655000Y7398000D03*
X14615000Y7398000D03*
%TD*%
D23*
%TO.C,R3*%
X4223000Y22418500D03*
X5243000Y22418500D03*
%TD*%
D18*
%TO.C,C32*%
X7717000Y28355600D03*
X7717000Y29315600D03*
%TD*%
D28*
%TO.C,C27*%
X14634000Y24949404D03*
X13674000Y24949404D03*
%TD*%
D19*
%TO.C,C4*%
X8487000Y20894500D03*
X7527000Y20894500D03*
%TD*%
D36*
%TO.C,J3*%
X-8744000Y14354000D03*
X-4094000Y14354000D03*
X256000Y7554000D03*
X-1994000Y7554000D03*
X-1844000Y14354000D03*
X-7844000Y7554000D03*
X-6944000Y14354000D03*
X-4744000Y7554000D03*
%TD*%
D19*
%TO.C,C17*%
X13655000Y1810000D03*
X14615000Y1810000D03*
%TD*%
%TO.C,C25*%
X13714000Y32671000D03*
X14674000Y32671000D03*
%TD*%
D23*
%TO.C,R17*%
X24737000Y25432000D03*
X23717000Y25432000D03*
%TD*%
D28*
%TO.C,C15*%
X14615000Y794000D03*
X13655000Y794000D03*
%TD*%
D22*
%TO.C,R11*%
X29261000Y41708000D03*
X30281000Y41708000D03*
%TD*%
D28*
%TO.C,C21*%
X24707000Y31909000D03*
X23747000Y31909000D03*
%TD*%
D37*
%TO.C,U1*%
X402000Y25069500D03*
X402000Y24569500D03*
X402000Y24069500D03*
X402000Y23569500D03*
X402000Y23069500D03*
X3222000Y23069500D03*
X3222000Y23569500D03*
X3222000Y24069500D03*
X3222000Y24569500D03*
X3222000Y25069500D03*
D38*
X1812000Y24069500D03*
%TD*%
D19*
%TO.C,C23*%
X23747000Y30893000D03*
X24707000Y30893000D03*
%TD*%
D16*
%TO.C,R4*%
X4352000Y24569500D03*
X4352000Y23549500D03*
%TD*%
D39*
%TO.C,J1*%
X-2002500Y27723500D03*
X-2002500Y27423500D03*
X-2002500Y21223500D03*
X-2002500Y20923500D03*
X-2002500Y26923500D03*
X-2002500Y26623500D03*
X-2002500Y22023500D03*
X-2002500Y21723500D03*
X-2002500Y25573500D03*
X-2002500Y24573500D03*
X-2002500Y24073500D03*
X-2002500Y23073500D03*
X-2002500Y22573500D03*
X-2002500Y23573500D03*
X-2002500Y25073500D03*
X-2002500Y26073500D03*
%TD*%
D22*
%TO.C,R12*%
X26721000Y41708000D03*
X27741000Y41708000D03*
%TD*%
D28*
%TO.C,C30*%
X14674000Y33687000D03*
X13714000Y33687000D03*
%TD*%
M02*
