%TF.GenerationSoftware,KiCad,Pcbnew,8.0.7*%
%TF.CreationDate,2024-12-24T17:50:32+01:00*%
%TF.ProjectId,AudioInterface,41756469-6f49-46e7-9465-72666163652e,1.1*%
%TF.SameCoordinates,Original*%
%TF.FileFunction,Profile,NP*%
%FSLAX46Y46*%
G04 Gerber Fmt 4.6, Leading zero omitted, Abs format (unit mm)*
G04 Created by KiCad (PCBNEW 8.0.7) date 2024-12-24 17:50:32*
%MOMM*%
%LPD*%
G01*
G04 APERTURE LIST*
%TA.AperFunction,Profile*%
%ADD10C,0.100000*%
%TD*%
G04 APERTURE END LIST*
D10*
X46266000Y50324000D02*
X57188000Y50324000D01*
X45504000Y51340000D02*
X46266000Y50324000D01*
X51073949Y51340000D02*
X45504000Y51340000D01*
X38646000Y51340000D02*
X37630000Y50070000D01*
X30245949Y51340000D02*
X38646000Y51340000D01*
X52597949Y52864000D02*
G75*
G02*
X51073949Y51340000I-1523999J-1D01*
G01*
X30245949Y51340000D02*
G75*
G02*
X28721949Y52864000I-1J1523999D01*
G01*
X30264000Y69120000D02*
X51092000Y69101949D01*
X28740000Y67596000D02*
G75*
G02*
X30264000Y69120000I1524000J0D01*
G01*
X51092000Y69101949D02*
G75*
G02*
X52597949Y67596000I0J-1505949D01*
G01*
X28740000Y67596000D02*
G75*
G02*
X26200000Y65056000I-2540001J1D01*
G01*
X55156000Y65037949D02*
G75*
G02*
X52597949Y67596000I1J2558052D01*
G01*
X52597949Y52864000D02*
G75*
G02*
X55156000Y55422051I2558052J-1D01*
G01*
X26200000Y55403936D02*
G75*
G02*
X28721949Y52864000I-18051J-2539936D01*
G01*
X26200000Y55404000D02*
G75*
G02*
X26200000Y65056000I0J4826000D01*
G01*
X55156000Y65037949D02*
G75*
G02*
X55156000Y55422051I0J-4807949D01*
G01*
X57188000Y50324000D02*
G75*
G02*
X62268000Y45244000I-2J-5080002D01*
G01*
X-10122000Y45207896D02*
G75*
G02*
X-5042000Y50287896I5080002J-2D01*
G01*
X62231898Y-4503898D02*
G75*
G02*
X57151898Y-9583898I-5080002J2D01*
G01*
X-5042000Y-9620000D02*
G75*
G02*
X-10122000Y-4540000I0J5080000D01*
G01*
X-5042000Y50287896D02*
X37630000Y50070000D01*
X-10122000Y-4540000D02*
X-10122000Y45207896D01*
X57151898Y-9583898D02*
X-5042000Y-9620000D01*
X62268000Y45244000D02*
X62231898Y-4503898D01*
M02*
