%TF.GenerationSoftware,KiCad,Pcbnew,8.0.7*%
%TF.CreationDate,2024-12-24T17:50:32+01:00*%
%TF.ProjectId,AudioInterface,41756469-6f49-46e7-9465-72666163652e,1.1*%
%TF.SameCoordinates,Original*%
%TF.FileFunction,Soldermask,Top*%
%TF.FilePolarity,Negative*%
%FSLAX46Y46*%
G04 Gerber Fmt 4.6, Leading zero omitted, Abs format (unit mm)*
G04 Created by KiCad (PCBNEW 8.0.7) date 2024-12-24 17:50:32*
%MOMM*%
%LPD*%
G01*
G04 APERTURE LIST*
G04 Aperture macros list*
%AMRoundRect*
0 Rectangle with rounded corners*
0 $1 Rounding radius*
0 $2 $3 $4 $5 $6 $7 $8 $9 X,Y pos of 4 corners*
0 Add a 4 corners polygon primitive as box body*
4,1,4,$2,$3,$4,$5,$6,$7,$8,$9,$2,$3,0*
0 Add four circle primitives for the rounded corners*
1,1,$1+$1,$2,$3*
1,1,$1+$1,$4,$5*
1,1,$1+$1,$6,$7*
1,1,$1+$1,$8,$9*
0 Add four rect primitives between the rounded corners*
20,1,$1+$1,$2,$3,$4,$5,0*
20,1,$1+$1,$4,$5,$6,$7,0*
20,1,$1+$1,$6,$7,$8,$9,0*
20,1,$1+$1,$8,$9,$2,$3,0*%
%AMFreePoly0*
4,1,16,0.535355,0.785355,0.550000,0.750000,0.550000,-0.750000,0.535355,-0.785355,0.500000,-0.800000,-0.650000,-0.800000,-0.685355,-0.785355,-0.700000,-0.750000,-0.691603,-0.722265,-0.210093,0.000000,-0.691603,0.722265,-0.699029,0.759806,-0.677735,0.791603,-0.650000,0.800000,0.500000,0.800000,0.535355,0.785355,0.535355,0.785355,$1*%
%AMFreePoly1*
4,1,16,0.535355,0.785355,0.541603,0.777735,1.041603,0.027735,1.049029,-0.009806,1.041603,-0.027735,0.541603,-0.777735,0.509806,-0.799029,0.500000,-0.800000,-0.500000,-0.800000,-0.535355,-0.785355,-0.550000,-0.750000,-0.550000,0.750000,-0.535355,0.785355,-0.500000,0.800000,0.500000,0.800000,0.535355,0.785355,0.535355,0.785355,$1*%
G04 Aperture macros list end*
%ADD10RoundRect,0.050000X-0.737500X0.225000X-0.737500X-0.225000X0.737500X-0.225000X0.737500X0.225000X0*%
%ADD11C,0.600000*%
%ADD12RoundRect,0.050000X1.170000X3.230000X-1.170000X3.230000X-1.170000X-3.230000X1.170000X-3.230000X0*%
%ADD13RoundRect,0.050000X0.285000X0.700000X-0.285000X0.700000X-0.285000X-0.700000X0.285000X-0.700000X0*%
%ADD14RoundRect,0.050000X0.325000X0.950000X-0.325000X0.950000X-0.325000X-0.950000X0.325000X-0.950000X0*%
%ADD15RoundRect,0.050000X1.000000X1.225000X-1.000000X1.225000X-1.000000X-1.225000X1.000000X-1.225000X0*%
%ADD16C,0.900000*%
%ADD17C,6.500000*%
%ADD18C,1.950000*%
%ADD19RoundRect,0.050000X-0.850000X0.850000X-0.850000X-0.850000X0.850000X-0.850000X0.850000X0.850000X0*%
%ADD20O,1.800000X1.800000*%
%ADD21C,1.801800*%
%ADD22C,3.100000*%
%ADD23C,4.087800*%
%ADD24RoundRect,0.160000X0.210000X-0.160000X0.210000X0.160000X-0.210000X0.160000X-0.210000X-0.160000X0*%
%ADD25RoundRect,0.160000X-0.210000X0.160000X-0.210000X-0.160000X0.210000X-0.160000X0.210000X0.160000X0*%
%ADD26FreePoly0,90.000000*%
%ADD27FreePoly1,90.000000*%
%ADD28RoundRect,0.050000X0.850000X0.850000X-0.850000X0.850000X-0.850000X-0.850000X0.850000X-0.850000X0*%
%ADD29RoundRect,0.050000X0.850000X-0.850000X0.850000X0.850000X-0.850000X0.850000X-0.850000X-0.850000X0*%
%ADD30RoundRect,0.172500X-0.172500X-0.197500X0.172500X-0.197500X0.172500X0.197500X-0.172500X0.197500X0*%
%ADD31RoundRect,0.165000X-0.195000X0.165000X-0.195000X-0.165000X0.195000X-0.165000X0.195000X0.165000X0*%
%ADD32RoundRect,0.165000X0.165000X0.195000X-0.165000X0.195000X-0.165000X-0.195000X0.165000X-0.195000X0*%
%ADD33RoundRect,0.102000X-1.000000X0.350000X-1.000000X-0.350000X1.000000X-0.350000X1.000000X0.350000X0*%
%ADD34RoundRect,0.265625X-1.534375X-0.584375X1.534375X-0.584375X1.534375X0.584375X-1.534375X0.584375X0*%
%ADD35RoundRect,0.160000X0.160000X0.210000X-0.160000X0.210000X-0.160000X-0.210000X0.160000X-0.210000X0*%
%ADD36RoundRect,0.160000X-0.160000X-0.210000X0.160000X-0.210000X0.160000X0.210000X-0.160000X0.210000X0*%
%ADD37RoundRect,0.175000X-0.175000X0.612500X-0.175000X-0.612500X0.175000X-0.612500X0.175000X0.612500X0*%
%ADD38O,3.100000X1.900000*%
%ADD39RoundRect,0.172500X-0.197500X0.172500X-0.197500X-0.172500X0.197500X-0.172500X0.197500X0.172500X0*%
%ADD40RoundRect,0.225000X0.300000X-0.225000X0.300000X0.225000X-0.300000X0.225000X-0.300000X-0.225000X0*%
%ADD41RoundRect,0.250000X0.400000X-0.250000X0.400000X0.250000X-0.400000X0.250000X-0.400000X-0.250000X0*%
%ADD42RoundRect,0.165000X-0.165000X-0.195000X0.165000X-0.195000X0.165000X0.195000X-0.165000X0.195000X0*%
%ADD43RoundRect,0.050000X0.625000X-0.325000X0.625000X0.325000X-0.625000X0.325000X-0.625000X-0.325000X0*%
%ADD44RoundRect,0.050000X0.400000X-0.325000X0.400000X0.325000X-0.400000X0.325000X-0.400000X-0.325000X0*%
%ADD45RoundRect,0.050000X1.950000X-2.230000X1.950000X2.230000X-1.950000X2.230000X-1.950000X-2.230000X0*%
%ADD46FreePoly0,0.000000*%
%ADD47FreePoly1,0.000000*%
%ADD48RoundRect,0.050000X0.300000X0.700000X-0.300000X0.700000X-0.300000X-0.700000X0.300000X-0.700000X0*%
%ADD49RoundRect,0.250000X-0.250000X-0.400000X0.250000X-0.400000X0.250000X0.400000X-0.250000X0.400000X0*%
%ADD50RoundRect,0.273809X0.301191X0.726191X-0.301191X0.726191X-0.301191X-0.726191X0.301191X-0.726191X0*%
%ADD51RoundRect,0.273809X-0.301191X-0.726191X0.301191X-0.726191X0.301191X0.726191X-0.301191X0.726191X0*%
%ADD52FreePoly0,270.000000*%
%ADD53FreePoly1,270.000000*%
%ADD54FreePoly0,180.000000*%
%ADD55FreePoly1,180.000000*%
%ADD56RoundRect,0.050000X0.700000X-1.250000X0.700000X1.250000X-0.700000X1.250000X-0.700000X-1.250000X0*%
%ADD57C,1.400000*%
%ADD58RoundRect,0.050000X-0.330000X0.140000X-0.330000X-0.140000X0.330000X-0.140000X0.330000X0.140000X0*%
%ADD59RoundRect,0.050000X-0.750000X1.250000X-0.750000X-1.250000X0.750000X-1.250000X0.750000X1.250000X0*%
%ADD60C,0.850000*%
%ADD61O,2.100000X1.200000*%
%ADD62O,1.900000X1.200000*%
%ADD63RoundRect,0.050000X-0.750000X0.150000X-0.750000X-0.150000X0.750000X-0.150000X0.750000X0.150000X0*%
G04 APERTURE END LIST*
D10*
%TO.C,U5*%
X21958000Y33401202D03*
X21958000Y25601202D03*
X21958000Y26251202D03*
X21958000Y26901202D03*
X21958000Y27551202D03*
X21958000Y28201202D03*
X21958000Y28851202D03*
X21958000Y29501202D03*
X21958000Y30151202D03*
X21958000Y30801202D03*
X21958000Y31451202D03*
X21958000Y32101202D03*
X21958000Y32751202D03*
X21958000Y34051202D03*
X16082000Y34051202D03*
X16082000Y33401202D03*
X16082000Y32751202D03*
X16082000Y32101202D03*
X16082000Y31451202D03*
X16082000Y30801202D03*
X16082000Y30151202D03*
X16082000Y29501202D03*
X16082000Y28851202D03*
X16082000Y28201202D03*
X16082000Y27551202D03*
X16082000Y26901202D03*
X16082000Y26251202D03*
X16082000Y25601202D03*
D11*
X19850000Y26981404D03*
X19850000Y27929670D03*
X19850000Y28877936D03*
X19850000Y29826202D03*
X19850000Y30774468D03*
X19850000Y31722734D03*
X19850000Y32671000D03*
X19020000Y26981404D03*
X19020000Y27929670D03*
X19020000Y28877936D03*
X19020000Y29826202D03*
D12*
X19020000Y29826202D03*
D11*
X19020000Y30774468D03*
X19020000Y31722734D03*
X19020000Y32671000D03*
X18190000Y26981404D03*
X18190000Y27929670D03*
X18190000Y28877936D03*
X18190000Y29826202D03*
X18190000Y30774468D03*
X18190000Y31722734D03*
X18190000Y32671000D03*
%TD*%
D10*
%TO.C,U4*%
X21916000Y8179000D03*
X21916000Y379000D03*
X21916000Y1029000D03*
X21916000Y1679000D03*
X21916000Y2329000D03*
X21916000Y2979000D03*
X21916000Y3629000D03*
X21916000Y4279000D03*
X21916000Y4929000D03*
X21916000Y5579000D03*
X21916000Y6229000D03*
X21916000Y6879000D03*
X21916000Y7529000D03*
X21916000Y8829000D03*
X16040000Y8829000D03*
X16040000Y8179000D03*
X16040000Y7529000D03*
X16040000Y6879000D03*
X16040000Y6229000D03*
X16040000Y5579000D03*
X16040000Y4929000D03*
X16040000Y4279000D03*
X16040000Y3629000D03*
X16040000Y2979000D03*
X16040000Y2329000D03*
X16040000Y1679000D03*
X16040000Y1029000D03*
X16040000Y379000D03*
D11*
X19808000Y1759202D03*
X19808000Y2707468D03*
X19808000Y3655734D03*
X19808000Y4604000D03*
X19808000Y5552266D03*
X19808000Y6500532D03*
X19808000Y7448798D03*
X18978000Y1759202D03*
X18978000Y2707468D03*
X18978000Y3655734D03*
X18978000Y4604000D03*
D12*
X18978000Y4604000D03*
D11*
X18978000Y5552266D03*
X18978000Y6500532D03*
X18978000Y7448798D03*
X18148000Y1759202D03*
X18148000Y2707468D03*
X18148000Y3655734D03*
X18148000Y4604000D03*
X18148000Y5552266D03*
X18148000Y6500532D03*
X18148000Y7448798D03*
%TD*%
D13*
%TO.C,U3*%
X11162000Y19370500D03*
D14*
X9662000Y19120500D03*
D13*
X8162000Y19370500D03*
D15*
X9662000Y16945500D03*
%TD*%
D16*
%TO.C,H6*%
X55236944Y57830000D03*
X53539888Y58532944D03*
X56934000Y58532944D03*
X52836944Y60230000D03*
D17*
X55236944Y60230000D03*
D16*
X57636944Y60230000D03*
X53539888Y61927056D03*
X56934000Y61927056D03*
X55236944Y62630000D03*
%TD*%
%TO.C,H5*%
X26200000Y57830000D03*
X24502944Y58532944D03*
X27897056Y58532944D03*
X23800000Y60230000D03*
D17*
X26200000Y60230000D03*
D16*
X28600000Y60230000D03*
X24502944Y61927056D03*
X27897056Y61927056D03*
X26200000Y62630000D03*
%TD*%
%TO.C,H4*%
X54788000Y45243998D03*
X55490944Y46941054D03*
X55490944Y43546942D03*
X57188000Y47643998D03*
D17*
X57188000Y45243998D03*
D16*
X57188000Y42843998D03*
X58885056Y46941054D03*
X58885056Y43546942D03*
X59588000Y45243998D03*
%TD*%
%TO.C,H3*%
X54751896Y-4503896D03*
X55454840Y-2806840D03*
X55454840Y-6200952D03*
X57151896Y-2103896D03*
D17*
X57151896Y-4503896D03*
D16*
X57151896Y-6903896D03*
X58848952Y-2806840D03*
X58848952Y-6200952D03*
X59551896Y-4503896D03*
%TD*%
%TO.C,H2*%
X-7442000Y-4540000D03*
X-6739056Y-2842944D03*
X-6739056Y-6237056D03*
X-5042000Y-2140000D03*
D17*
X-5042000Y-4540000D03*
D16*
X-5042000Y-6940000D03*
X-3344944Y-2842944D03*
X-3344944Y-6237056D03*
X-2642000Y-4540000D03*
%TD*%
%TO.C,H1*%
X-7405896Y45207894D03*
X-6702952Y46904950D03*
X-6702952Y43510838D03*
X-5005896Y47607894D03*
D17*
X-5005896Y45207894D03*
D16*
X-5005896Y42807894D03*
X-3308840Y46904950D03*
X-3308840Y43510838D03*
X-2605896Y45207894D03*
%TD*%
D18*
%TO.C,Pt1*%
X46934000Y18160000D03*
X46934000Y13160000D03*
X46934000Y8160000D03*
X56934000Y18160000D03*
X56934000Y13160000D03*
X56934000Y8160000D03*
%TD*%
D19*
%TO.C,J2*%
X32804000Y43974000D03*
D20*
X32804000Y46514000D03*
X30264000Y43974000D03*
X30264000Y46514000D03*
X27724000Y43974000D03*
X27724000Y46514000D03*
%TD*%
D21*
%TO.C,S1*%
X42211000Y60014000D03*
D22*
X40941000Y57474000D03*
D23*
X37131000Y60014000D03*
D22*
X34591000Y54934000D03*
D21*
X32051000Y60014000D03*
%TD*%
D24*
%TO.C,R8*%
X46012000Y63784000D03*
X46012000Y64804000D03*
%TD*%
D25*
%TO.C,R6*%
X46012000Y55916000D03*
X46012000Y54896000D03*
%TD*%
D26*
%TO.C,JP3*%
X29647500Y33153500D03*
D27*
X29647500Y31703500D03*
%TD*%
D28*
%TO.C,J8*%
X49314000Y56166000D03*
D20*
X49314000Y58706000D03*
X49314000Y61246000D03*
X49314000Y63786000D03*
%TD*%
%TO.C,J7*%
X35354000Y36041500D03*
X32814000Y36041500D03*
X30274000Y36041500D03*
D29*
X27734000Y36041500D03*
%TD*%
D30*
%TO.C,D3*%
X36637000Y64802000D03*
X37607000Y64802000D03*
%TD*%
D31*
%TO.C,C2*%
X46012000Y57888000D03*
X46012000Y56928000D03*
%TD*%
D32*
%TO.C,C22*%
X23747000Y29877000D03*
X24707000Y29877000D03*
%TD*%
D33*
%TO.C,K1*%
X30216000Y20088000D03*
X30216000Y16888000D03*
X30216000Y14688000D03*
X30216000Y12488000D03*
X24216000Y12488000D03*
X24216000Y14688000D03*
X24216000Y16888000D03*
X24216000Y20088000D03*
%TD*%
D34*
%TO.C,C29*%
X20069000Y38767000D03*
X14669000Y38767000D03*
%TD*%
%TO.C,C26*%
X20052000Y20850202D03*
X14652000Y20850202D03*
%TD*%
D35*
%TO.C,R20*%
X23717000Y26448000D03*
X24737000Y26448000D03*
%TD*%
D31*
%TO.C,C19*%
X7658000Y5112000D03*
X7658000Y6072000D03*
%TD*%
D32*
%TO.C,C6*%
X24620000Y5620000D03*
X23660000Y5620000D03*
%TD*%
D36*
%TO.C,R9*%
X33837000Y41708000D03*
X32817000Y41708000D03*
%TD*%
D35*
%TO.C,R15*%
X23660000Y1175000D03*
X24680000Y1175000D03*
%TD*%
D37*
%TO.C,Q2*%
X31171500Y22892000D03*
X30221500Y24767000D03*
X32121500Y24767000D03*
%TD*%
D31*
%TO.C,C33*%
X7717000Y30336800D03*
X7717000Y31296800D03*
%TD*%
D36*
%TO.C,R13*%
X23630000Y8668000D03*
X24650000Y8668000D03*
%TD*%
D38*
%TO.C,J4*%
X54648000Y35084000D03*
X47148000Y37584000D03*
X39748000Y37584000D03*
X39748000Y32584000D03*
%TD*%
D39*
%TO.C,D1*%
X7527000Y25039500D03*
X7527000Y24069500D03*
%TD*%
D40*
%TO.C,R2*%
X5622000Y23591000D03*
X5622000Y25241000D03*
%TD*%
D41*
%TO.C,D4*%
X34219500Y26320000D03*
X34219500Y23020000D03*
%TD*%
D42*
%TO.C,C12*%
X14615000Y9430000D03*
X13655000Y9430000D03*
%TD*%
D43*
%TO.C,Q1*%
X5876000Y17426000D03*
X5876000Y18706000D03*
X5876000Y19966000D03*
X5876000Y21236000D03*
D44*
X296000Y17426000D03*
X296000Y18706000D03*
D45*
X2396000Y19336000D03*
D44*
X296000Y19966000D03*
X296000Y21236000D03*
%TD*%
D36*
%TO.C,R16*%
X24678000Y159000D03*
X23658000Y159000D03*
%TD*%
D42*
%TO.C,C28*%
X14634000Y25965404D03*
X13674000Y25965404D03*
%TD*%
D36*
%TO.C,R19*%
X24737000Y33941000D03*
X23717000Y33941000D03*
%TD*%
D42*
%TO.C,C9*%
X23660000Y6636000D03*
X24620000Y6636000D03*
%TD*%
D36*
%TO.C,R18*%
X24737000Y28851202D03*
X23717000Y28851202D03*
%TD*%
D42*
%TO.C,C11*%
X14615000Y8414000D03*
X13655000Y8414000D03*
%TD*%
D46*
%TO.C,JP6*%
X27194000Y39930000D03*
D47*
X25744000Y39930000D03*
%TD*%
D32*
%TO.C,C7*%
X24648000Y4604000D03*
X23688000Y4604000D03*
%TD*%
D31*
%TO.C,C1*%
X1431000Y27216500D03*
X1431000Y26256500D03*
%TD*%
D48*
%TO.C,U2*%
X31745500Y31683500D03*
X32695500Y31683500D03*
X33645500Y31683500D03*
X33645500Y29183500D03*
X32695500Y29183500D03*
X31745500Y29183500D03*
%TD*%
D32*
%TO.C,C24*%
X13674000Y26956000D03*
X14634000Y26956000D03*
%TD*%
D36*
%TO.C,R14*%
X23656000Y3588000D03*
X24676000Y3588000D03*
%TD*%
D49*
%TO.C,D2*%
X28757500Y22892000D03*
X25457500Y22892000D03*
%TD*%
D32*
%TO.C,C20*%
X23747000Y32925000D03*
X24707000Y32925000D03*
%TD*%
D50*
%TO.C,FB1*%
X9131000Y2826000D03*
X12281000Y2826000D03*
%TD*%
D34*
%TO.C,C10*%
X20010000Y-4286000D03*
X14610000Y-4286000D03*
%TD*%
D42*
%TO.C,C5*%
X10202000Y20894500D03*
X11162000Y20894500D03*
%TD*%
D31*
%TO.C,C18*%
X7658000Y3080000D03*
X7658000Y4040000D03*
%TD*%
D51*
%TO.C,FB4*%
X12340000Y31528000D03*
X9190000Y31528000D03*
%TD*%
%TO.C,FB2*%
X12281000Y6276000D03*
X9131000Y6276000D03*
%TD*%
D20*
%TO.C,J6*%
X5304000Y31015000D03*
D28*
X5304000Y28475000D03*
%TD*%
D20*
%TO.C,J5*%
X5245000Y5869000D03*
D28*
X5245000Y3329000D03*
%TD*%
D52*
%TO.C,JP1*%
X35743500Y31703500D03*
D53*
X35743500Y33153500D03*
%TD*%
D25*
%TO.C,R1*%
X415000Y27246500D03*
X415000Y26226500D03*
%TD*%
D54*
%TO.C,JP4*%
X32856000Y39930000D03*
D55*
X34306000Y39930000D03*
%TD*%
D42*
%TO.C,C14*%
X14615000Y-222000D03*
X13655000Y-222000D03*
%TD*%
D50*
%TO.C,FB3*%
X9190000Y28099000D03*
X12340000Y28099000D03*
%TD*%
D34*
%TO.C,C13*%
X20010000Y13494000D03*
X14610000Y13494000D03*
%TD*%
D32*
%TO.C,C8*%
X24620000Y7652000D03*
X23660000Y7652000D03*
%TD*%
D42*
%TO.C,C31*%
X14674000Y34703000D03*
X13714000Y34703000D03*
%TD*%
D52*
%TO.C,JP2*%
X29393500Y27893500D03*
D53*
X29393500Y29343500D03*
%TD*%
D25*
%TO.C,R10*%
X35142000Y41704000D03*
X35142000Y42724000D03*
%TD*%
D24*
%TO.C,R5*%
X7527000Y22012500D03*
X7527000Y23032500D03*
%TD*%
D36*
%TO.C,R7*%
X31615500Y26369500D03*
X30595500Y26369500D03*
%TD*%
D32*
%TO.C,C16*%
X13655000Y7398000D03*
X14615000Y7398000D03*
%TD*%
D36*
%TO.C,R3*%
X4223000Y22418500D03*
X5243000Y22418500D03*
%TD*%
D31*
%TO.C,C32*%
X7717000Y28355600D03*
X7717000Y29315600D03*
%TD*%
D42*
%TO.C,C27*%
X14634000Y24949404D03*
X13674000Y24949404D03*
%TD*%
D32*
%TO.C,C4*%
X8487000Y20894500D03*
X7527000Y20894500D03*
%TD*%
D56*
%TO.C,J3*%
X-8744000Y14354000D03*
X-4094000Y14354000D03*
X256000Y7554000D03*
X-1994000Y7554000D03*
X-1844000Y14354000D03*
X-7844000Y7554000D03*
X-6944000Y14354000D03*
D57*
X-1344000Y10954000D03*
X-8344000Y10954000D03*
D56*
X-4744000Y7554000D03*
%TD*%
D32*
%TO.C,C17*%
X13655000Y1810000D03*
X14615000Y1810000D03*
%TD*%
D46*
%TO.C,JP5*%
X30787000Y39930000D03*
D47*
X29337000Y39930000D03*
%TD*%
D32*
%TO.C,C25*%
X13714000Y32671000D03*
X14674000Y32671000D03*
%TD*%
D36*
%TO.C,R17*%
X24737000Y25432000D03*
X23717000Y25432000D03*
%TD*%
D42*
%TO.C,C15*%
X14615000Y794000D03*
X13655000Y794000D03*
%TD*%
D35*
%TO.C,R11*%
X29261000Y41708000D03*
X30281000Y41708000D03*
%TD*%
D42*
%TO.C,C21*%
X24707000Y31909000D03*
X23747000Y31909000D03*
%TD*%
D58*
%TO.C,U1*%
X402000Y25069500D03*
X402000Y24569500D03*
X402000Y24069500D03*
X402000Y23569500D03*
X402000Y23069500D03*
X3222000Y23069500D03*
X3222000Y23569500D03*
X3222000Y24069500D03*
X3222000Y24569500D03*
X3222000Y25069500D03*
D59*
X1812000Y24069500D03*
%TD*%
D32*
%TO.C,C23*%
X23747000Y30893000D03*
X24707000Y30893000D03*
%TD*%
D25*
%TO.C,R4*%
X4352000Y24569500D03*
X4352000Y23549500D03*
%TD*%
D60*
%TO.C,J1*%
X-3492500Y27213500D03*
X-3492500Y21433500D03*
D61*
X-2962500Y28643500D03*
D62*
X-7142500Y28643500D03*
D61*
X-2962500Y20003500D03*
D62*
X-7142500Y20003500D03*
D63*
X-2002500Y27723500D03*
X-2002500Y27423500D03*
X-2002500Y21223500D03*
X-2002500Y20923500D03*
X-2002500Y26923500D03*
X-2002500Y26623500D03*
X-2002500Y22023500D03*
X-2002500Y21723500D03*
X-2002500Y25573500D03*
X-2002500Y24573500D03*
X-2002500Y24073500D03*
X-2002500Y23073500D03*
X-2002500Y22573500D03*
X-2002500Y23573500D03*
X-2002500Y25073500D03*
X-2002500Y26073500D03*
%TD*%
D35*
%TO.C,R12*%
X26721000Y41708000D03*
X27741000Y41708000D03*
%TD*%
D42*
%TO.C,C30*%
X14674000Y33687000D03*
X13714000Y33687000D03*
%TD*%
M02*
